<?xml version="1.0" encoding="utf-8"?>
<!-- Generator: Adobe Illustrator 23.0.1, SVG Export Plug-In . SVG Version: 6.00 Build 0)  -->
<svg version="1.1" id="Layer_1" xmlns="http://www.w3.org/2000/svg" xmlns:xlink="http://www.w3.org/1999/xlink" x="0px" y="0px"
	 viewBox="0 0 595.28 419.53" style="enable-background:new 0 0 595.28 419.53;" xml:space="preserve">
<style type="text/css">
	.st0{fill-rule:evenodd;clip-rule:evenodd;fill:#9D187C;}
	.st1{fill:#9D187C;}
	.st2{fill:#C286AF;}
	.st3{fill-rule:evenodd;clip-rule:evenodd;fill:#C286AF;}
	.st4{clip-path:url(#SVGID_2_);fill:none;stroke:#C286AF;stroke-width:0.7758;}
	.st5{clip-path:url(#SVGID_4_);fill:#C286AF;}
	.st6{fill:none;stroke:#C286AF;stroke-width:1.0827;}
</style>
<g>
	<g>
		<path class="st0" d="M449.11,109.97c0.28,0.36-0.12,0.37-0.16,0.63c-0.04,0.23,0.08,0.25,0.08,0.25s9.03-3.62,9.65-4.13
			c0.62-0.51,0.84-0.7,1.01-0.7c0.36-0.01,0.5,0.28,0.41,0.52c-0.09,0.24-0.3,0.44-0.64,0.55c-0.34,0.11-0.51-0.14-0.82-0.04
			c-0.31,0.1-9.43,3.88-9.51,3.94c-0.08,0.06-0.09,0.3,0.05,0.39c0.13,0.09,0.89,0.09,0.4,0.76c-0.36,0.48,0.27,0.78-0.58,1.05
			c-0.44,0.14-0.63,0.53-1.09,0.56c-0.17,0.01-0.09,0.47-0.09,0.47s4.38-0.56,9.73,3.48c6.77,5.12,10.04,7.39,12.05,14.3
			c2.01,6.92-1.78,4.61-2.02,4.72c-0.24,0.11-0.57,1.6-2.43,1.52c-0.86-0.04-3.01-0.42-3.38-1.23c-0.36-0.81-0.57,1.38-2.62,0.17
			c-2.38-1.41-3.15,3.17-6.61,1.77c-1.75-0.71-3.65-1.21-5.24-0.73c-1.59,0.48-2.34,1.6-3.05,1.37c-0.81-0.27-2.61,0.57-3.14,0.13
			c-0.59-0.49-1.73-0.68-2.74-0.62c-0.91,0.06-1.18-0.06-1.82-0.33c-0.64-0.27-1.04,0.15-0.86-0.44c0.1-0.34,1.07-2.12,0.55-2.07
			c-0.02,0-0.35-0.08-0.71,0.3c-0.69,0.73-1.08,0.82-1.71,0.97c-1.94,0.46-2.93-2.06-3.51-2.15c-0.58-0.09-3.82-1.38-4.44-3.25
			c-0.19-0.56,0.82-2.53,1.06-2.64c0.24-0.11-1.12-0.11-1.57,0.13c-0.11,0.06,5.26-4.95,5.44-5.34c-0.43,0.08-6.59,4.08-6.5,3.99
			c0.34-0.37,0.67-1.69,0.51-1.49c-0.17,0.2-2.32,0.71-2.82,0.39c-1.66-1.06-2.13-4.52-2.08-5.1c0.06-0.58-2.15-2.15-1.24-3.92
			c0.29-0.57,0.47-0.93,1.35-1.42c0.46-0.26,0.46-0.6,0.47-0.62c0.18-0.49-1.79,0.01-2.14,0.03c-0.62,0.03-0.11-0.26-0.22-0.94
			c-0.11-0.68-0.16-0.98,0.12-1.85c0.3-0.96,0.39-2.12,0.06-2.8c-0.3-0.63,0.96-2.17,0.89-3.02c-0.06-0.74,1.21-1.2,2.06-2.63
			c0.85-1.43,0.82-3.39,0.56-5.26c-0.52-3.7,4.11-3.33,3.32-5.99c-0.68-2.28,1.49-1.95,0.79-2.5c-0.69-0.55-0.55-2.73-0.38-3.58
			c0.37-1.83,1.9-1.79,2.06-1.99c0.17-0.2-1.16-4.44,5.06-0.82c6.22,3.62,7.64,7.34,10.96,15.15c2.63,6.16,1.03,10.28,1.03,10.28
			s0.43,0.19,0.48,0.03c0.14-0.43,0.57-0.52,0.8-0.92c0.46-0.77,0.6-0.09,1.16-0.31c0.78-0.32,0.58,0.42,0.64,0.57
			c0.06,0.15,0.29,0.21,0.37,0.14c0.08-0.07,5.96-8,6.13-8.28c0.17-0.28-0.03-0.5,0.16-0.81c0.19-0.3,0.44-0.46,0.69-0.49
			c0.25-0.04,0.5,0.18,0.4,0.52c-0.04,0.16-0.28,0.32-0.93,0.8c-0.65,0.48-6.34,8.36-6.34,8.36s-0.01,0.12,0.22,0.14
			C448.75,110,448.81,109.6,449.11,109.97z"/>
		<path class="st1" d="M465.43,143.29c10.94,2.74,18.37,12.24,18.37,23.58c0,9.12-5.47,15.63-12.9,15.63
			c-6.38,0-11.46-4.95-11.46-11.2c0-4.17,1.56-7.03,5.08-9.12c2.61-1.56,3.39-2.48,3.39-4.17c0-3.26-3.65-6.12-9.38-7.43
			L465.43,143.29z"/>
		<path class="st1" d="M438.75,143.29c10.81,2.74,18.24,12.24,18.24,23.58c0,9.12-5.34,15.63-12.9,15.63
			c-6.38,0-11.46-4.95-11.46-11.2c0-4.17,1.69-7.03,5.08-9.12c2.74-1.69,3.39-2.48,3.39-4.17c0-3.26-3.65-6.12-9.25-7.43
			L438.75,143.29z"/>
		<polygon class="st1" points="324.12,137.8 324.12,143.57 330.91,143.57 330.92,137.57 336.11,140.57 339.5,134.69 334.39,131.74 
			339.5,128.69 336.11,122.81 330.94,125.79 330.91,119.81 324.1,119.81 324.07,125.77 318.92,122.81 315.53,128.69 320.67,131.72 
			315.53,134.69 318.92,140.57 		"/>
		<polygon class="st2" points="351.65,119.68 351.66,126 348.49,120.52 348.45,120.43 348.41,120.34 348.38,120.25 348.34,120.12 
			348.28,119.79 348.3,119.46 348.38,119.14 348.52,118.83 348.7,118.57 348.93,118.35 349.21,118.17 349.53,118.06 349.88,118 
			350.2,118.02 350.51,118.08 350.81,118.22 351.07,118.42 351.3,118.65 351.47,118.93 351.6,119.25 351.62,119.41 		"/>
		<polygon class="st2" points="351.9,119.68 351.89,126 355.06,120.52 355.1,120.43 355.14,120.34 355.17,120.25 355.21,120.12 
			355.25,119.79 355.25,119.46 355.17,119.14 355.03,118.83 354.85,118.57 354.62,118.35 354.33,118.17 354.01,118.06 353.67,118 
			353.34,118.02 353.04,118.08 352.73,118.22 352.47,118.42 352.25,118.65 352.07,118.93 351.94,119.25 351.91,119.41 		"/>
		<polygon class="st2" points="348.37,120.86 351.54,126.33 346.07,123.17 345.98,123.11 345.9,123.06 345.83,122.99 345.73,122.91 
			345.36,122.34 345.24,121.71 345.36,121.08 345.73,120.52 346,120.3 346.29,120.15 346.59,120.05 346.91,120.02 347.24,120.05 
			347.55,120.15 347.85,120.32 348.1,120.52 348.16,120.56 348.21,120.65 348.28,120.75 		"/>
		<polygon class="st2" points="355.17,120.86 352.01,126.33 357.48,123.17 357.57,123.11 357.65,123.06 357.72,122.99 
			357.82,122.91 358.19,122.34 358.32,121.71 358.19,121.08 357.82,120.52 357.55,120.3 357.26,120.15 356.94,120.05 356.63,120.02 
			356.29,120.05 355.99,120.15 355.7,120.32 355.43,120.52 355.39,120.56 355.32,120.65 355.25,120.75 		"/>
		<polygon class="st2" points="346.19,123.53 351.66,126.69 345.35,126.69 345.25,126.69 345.15,126.68 345.06,126.65 
			344.92,126.62 344.6,126.5 344.32,126.33 344.09,126.09 343.89,125.83 343.75,125.54 343.68,125.22 343.67,124.89 343.73,124.56 
			343.84,124.24 344.02,123.96 344.24,123.72 344.51,123.54 344.81,123.41 345.12,123.34 345.46,123.32 345.79,123.36 
			345.85,123.39 345.94,123.43 346.07,123.47 		"/>
		<polygon class="st2" points="357.36,123.53 351.89,126.69 358.2,126.69 358.3,126.69 358.4,126.68 358.5,126.65 358.63,126.62 
			358.95,126.5 359.23,126.33 359.47,126.09 359.66,125.83 359.8,125.54 359.87,125.22 359.88,124.89 359.83,124.56 359.7,124.24 
			359.52,123.96 359.3,123.72 359.04,123.54 358.75,123.41 358.43,123.34 358.09,123.32 357.75,123.36 357.69,123.39 357.6,123.43 
			357.48,123.47 		"/>
		<polygon class="st2" points="351.65,133.95 351.66,127.63 348.49,133.1 348.45,133.19 348.41,133.28 348.38,133.38 348.34,133.51 
			348.28,133.84 348.3,134.17 348.38,134.49 348.52,134.78 348.7,135.04 348.93,135.28 349.21,135.46 349.53,135.57 349.88,135.63 
			350.2,135.61 350.51,135.54 350.81,135.4 351.07,135.21 351.3,134.98 351.47,134.7 351.6,134.38 351.62,134.21 		"/>
		<polygon class="st2" points="351.9,133.95 351.89,127.63 355.06,133.1 355.1,133.19 355.14,133.28 355.17,133.38 355.21,133.51 
			355.25,133.84 355.25,134.17 355.17,134.49 355.03,134.78 354.85,135.04 354.62,135.28 354.33,135.46 354.01,135.57 
			353.67,135.63 353.34,135.61 353.04,135.54 352.73,135.4 352.47,135.21 352.25,134.98 352.07,134.7 351.94,134.38 351.91,134.21 
					"/>
		<polygon class="st2" points="348.37,132.77 351.54,127.3 346.07,130.46 345.98,130.51 345.9,130.57 345.83,130.64 345.73,130.72 
			345.36,131.29 345.24,131.91 345.36,132.55 345.73,133.12 346,133.33 346.29,133.48 346.59,133.58 346.91,133.6 347.24,133.58 
			347.55,133.48 347.85,133.33 348.1,133.12 348.16,133.06 348.21,132.98 348.28,132.88 		"/>
		<polygon class="st2" points="355.17,132.77 352.01,127.3 357.48,130.46 357.57,130.51 357.65,130.57 357.72,130.64 357.82,130.72 
			358.19,131.29 358.32,131.91 358.19,132.55 357.82,133.12 357.55,133.33 357.26,133.48 356.94,133.58 356.63,133.6 356.29,133.58 
			355.99,133.48 355.7,133.33 355.43,133.12 355.39,133.06 355.32,132.98 355.25,132.88 		"/>
		<polygon class="st2" points="346.19,130.1 351.66,126.94 345.35,126.94 345.25,126.94 345.15,126.95 345.06,126.98 344.92,127.01 
			344.6,127.13 344.32,127.3 344.09,127.53 343.89,127.8 343.75,128.09 343.68,128.41 343.67,128.74 343.73,129.07 343.84,129.39 
			344.02,129.67 344.24,129.9 344.51,130.1 344.81,130.24 345.12,130.31 345.46,130.32 345.79,130.26 345.85,130.25 345.94,130.21 
			346.07,130.15 		"/>
		<polygon class="st2" points="357.36,130.1 351.89,126.94 358.2,126.94 358.3,126.94 358.4,126.95 358.5,126.98 358.63,127.01 
			358.95,127.13 359.23,127.3 359.47,127.53 359.66,127.8 359.8,128.09 359.87,128.41 359.88,128.74 359.83,129.07 359.7,129.39 
			359.52,129.67 359.3,129.9 359.04,130.1 358.75,130.24 358.43,130.31 358.09,130.32 357.75,130.26 357.69,130.25 357.6,130.21 
			357.48,130.15 		"/>
		<polygon class="st2" points="259.42,94.69 259.56,94.79 259.54,94.69 		"/>
		<polygon class="st2" points="260.85,94.69 260.87,94.71 260.87,94.69 		"/>
		<polygon class="st2" points="261.11,97.96 261.07,97.86 261.21,97.96 		"/>
		<polygon class="st2" points="261.17,89.41 261.4,89.23 261.58,89.02 261.74,88.8 261.85,88.58 261.96,88.34 262.02,88.09 
			262.06,87.86 262.06,87.61 262.02,87.15 261.89,86.71 261.67,86.32 261.38,85.98 261.04,85.69 260.65,85.46 260.22,85.35 
			259.74,85.29 259.45,85.31 259.16,85.38 258.89,85.46 258.65,85.6 258.42,85.77 258.2,85.96 257.99,86.14 257.79,86.37 
			257.29,87.17 256.97,88.15 256.83,89.29 256.88,90.52 257.17,91.75 257.7,92.9 258.48,93.94 259.56,94.79 259.34,93.86 
			259.23,93.02 259.25,92.27 259.42,91.59 259.69,90.98 260.08,90.42 260.56,89.91 		"/>
		<polygon class="st2" points="256.03,90.83 256.05,90.26 255.93,89.75 255.71,89.31 255.4,88.94 255.03,88.63 254.64,88.43 
			254.19,88.29 253.75,88.26 253.31,88.29 252.88,88.43 252.48,88.63 252.12,88.94 251.76,89.4 251.56,89.92 251.47,90.5 
			251.49,91.08 251.56,91.52 251.71,91.98 251.91,92.46 252.17,92.92 252.51,93.38 252.88,93.82 253.31,94.26 253.79,94.66 
			254.3,95.01 254.86,95.32 255.44,95.58 256.05,95.78 256.68,95.9 257.34,95.95 258.01,95.92 258.71,95.78 257.87,95.29 
			257.21,94.76 256.7,94.21 256.34,93.62 256.1,92.99 255.96,92.32 255.95,91.61 		"/>
		<polygon class="st2" points="253.41,95.47 253.21,95.25 253.02,95.06 252.8,94.91 252.58,94.79 252.32,94.69 252.08,94.62 
			251.85,94.59 251.61,94.59 251.15,94.62 250.71,94.76 250.31,94.98 249.97,95.27 249.68,95.61 249.46,96 249.33,96.43 
			249.28,96.9 249.31,97.19 249.36,97.48 249.46,97.75 249.6,97.99 249.77,98.23 249.94,98.45 250.14,98.66 250.36,98.86 
			250.72,99.12 251.15,99.34 251.64,99.52 252.15,99.68 252.71,99.76 253.29,99.81 253.91,99.81 254.52,99.76 255.13,99.64 
			255.74,99.47 256.34,99.25 256.9,98.95 257.45,98.59 257.94,98.16 258.4,97.65 258.79,97.09 258.31,97.23 257.85,97.31 
			257.43,97.38 257.02,97.41 256.63,97.43 256.27,97.4 255.91,97.33 255.59,97.23 255.28,97.11 254.98,96.95 254.69,96.78 
			254.42,96.56 254.16,96.34 253.89,96.09 253.65,95.8 		"/>
		<polygon class="st2" points="254.82,100.61 254.54,100.6 254.26,100.6 254.01,100.65 253.75,100.72 253.51,100.82 253.31,100.94 
			253.11,101.09 252.94,101.24 252.63,101.62 252.42,102.01 252.29,102.45 252.25,102.89 252.29,103.34 252.42,103.76 
			252.63,104.17 252.94,104.53 253.16,104.73 253.39,104.89 253.65,105 253.92,105.09 254.21,105.14 254.5,105.18 254.79,105.18 
			255.08,105.16 255.52,105.09 255.98,104.94 256.46,104.73 256.92,104.48 257.38,104.14 257.82,103.76 258.26,103.34 
			258.65,102.86 259.01,102.35 259.32,101.79 259.57,101.21 259.78,100.6 259.9,99.97 259.95,99.3 259.91,98.64 259.78,97.94 
			259.54,98.38 259.28,98.78 259.03,99.13 258.76,99.44 258.48,99.71 258.21,99.95 257.92,100.14 257.62,100.31 257.31,100.44 
			256.99,100.55 256.66,100.63 256.32,100.68 255.96,100.7 255.59,100.7 255.22,100.66 		"/>
		<polygon class="st2" points="259.47,103.24 259.25,103.44 259.06,103.63 258.91,103.85 258.79,104.07 258.69,104.32 
			258.62,104.56 258.59,104.8 258.57,105.04 258.62,105.5 258.76,105.94 258.98,106.33 259.27,106.67 259.61,106.96 260,107.18 
			260.42,107.32 260.88,107.37 261.19,107.34 261.48,107.29 261.74,107.18 261.99,107.05 262.23,106.88 262.45,106.71 262.65,106.5 
			262.86,106.28 263.34,105.5 263.68,104.49 263.81,103.35 263.76,102.13 263.47,100.9 262.94,99.75 262.16,98.71 261.07,97.86 
			261.33,98.79 261.41,99.63 261.38,100.38 261.22,101.06 260.95,101.67 260.56,102.23 260.08,102.76 		"/>
		<polygon class="st2" points="264.61,101.82 264.6,102.38 264.71,102.89 264.94,103.34 265.24,103.71 265.6,104.02 266.01,104.22 
			266.43,104.36 266.89,104.39 267.34,104.36 267.76,104.22 268.17,104.02 268.53,103.71 268.88,103.25 269.09,102.72 
			269.17,102.15 269.16,101.57 269.09,101.12 268.94,100.66 268.73,100.19 268.48,99.73 268.14,99.27 267.76,98.83 267.34,98.38 
			266.86,97.99 266.35,97.63 265.79,97.33 265.21,97.07 264.6,96.87 263.96,96.75 263.3,96.7 262.64,96.73 261.94,96.87 
			262.77,97.36 263.44,97.89 263.95,98.43 264.32,99.03 264.54,99.66 264.68,100.32 264.68,101.06 		"/>
		<polygon class="st2" points="267.23,97.17 267.42,97.4 267.62,97.58 267.85,97.74 268.07,97.86 268.31,97.96 268.56,98.03 
			268.8,98.06 269.04,98.08 269.5,98.03 269.94,97.89 270.33,97.67 270.67,97.38 270.96,97.04 271.18,96.65 271.3,96.22 
			271.35,95.76 271.34,95.46 271.27,95.17 271.18,94.91 271.05,94.66 270.88,94.42 270.69,94.2 270.5,93.99 270.28,93.79 
			269.92,93.53 269.48,93.31 269,93.12 268.49,92.97 267.93,92.89 267.35,92.83 266.74,92.83 266.13,92.89 265.51,93.01 
			264.9,93.18 264.31,93.4 263.74,93.7 263.2,94.06 262.71,94.49 262.25,95 261.85,95.58 262.33,95.44 262.79,95.32 263.22,95.27 
			263.62,95.23 264.02,95.22 264.37,95.27 264.73,95.32 265.05,95.42 265.36,95.54 265.67,95.69 265.96,95.88 266.23,96.09 
			266.48,96.32 266.74,96.56 266.99,96.87 		"/>
		<polygon class="st2" points="265.82,92.03 266.11,92.05 266.38,92.05 266.64,92 266.89,91.93 267.11,91.83 267.34,91.71 
			267.54,91.56 267.71,91.4 268.02,91.05 268.22,90.64 268.36,90.21 268.39,89.75 268.36,89.31 268.22,88.89 268.02,88.48 
			267.71,88.12 267.49,87.92 267.25,87.76 266.99,87.64 266.72,87.56 266.43,87.51 266.14,87.47 265.85,87.47 265.57,87.49 
			265.12,87.56 264.66,87.71 264.19,87.92 263.73,88.17 263.27,88.51 262.82,88.89 262.38,89.31 261.99,89.79 261.63,90.3 
			261.33,90.86 261.07,91.44 260.87,92.05 260.75,92.68 260.7,93.35 260.73,94.01 260.87,94.71 261.11,94.26 261.36,93.87 
			261.62,93.52 261.89,93.21 262.16,92.94 262.43,92.7 262.72,92.51 263.03,92.32 263.34,92.21 263.66,92.1 263.98,92.02 
			264.32,91.97 264.68,91.95 265.04,91.97 265.43,91.98 		"/>
		<path class="st2" d="M385.89,177.22c-0.95,2.26,3.37,2.86,4.98,3.86c3.3,1.34,4.9,4.94,3.67,8.25c-1.27,3.22-4.91,4.84-8.2,3.65
			c-3.24-1.32-4.84-4.91-3.67-8.25c0.39-2.22,3-5.69,0.6-6.34c-2.26-0.62-2.51,3.16-3.6,4.81c-1.16,3.22-4.89,4.88-8.11,3.61
			c-3.26-1.36-4.86-4.96-3.65-8.2c1.25-3.15,4.98-4.81,8.11-3.61c2.24,0.33,5.38,2.77,6.35,0.49c0.99-2.35-3.65-2.74-5.36-3.74
			c-3.17-1.29-4.79-4.93-3.63-8.16c1.32-3.24,5.01-4.88,8.2-3.65c3.26,1.25,4.88,4.89,3.65,8.2c-0.3,2.18-2.8,5.53-0.46,6.28
			c2.27,0.73,2.53-3.11,3.67-4.89c1.2-3.13,4.93-4.79,8.11-3.61c3.31,1.23,4.95,4.92,3.63,8.16c-1.19,3.29-4.92,4.95-8.11,3.61
			C389.87,177.49,386.83,175,385.89,177.22z"/>
		<path class="st1" d="M311.93,126.72h-2.48c-5.63,0-11.26,1.28-15.38,5.4c-3.75,3.75-5.48,9.23-5.48,14.48
			c0,7.28,4.28,13.28,11.93,13.28c6.68,0,12.23-4.2,12.23-11.18c0-5.7-4.95-10.58-10.66-10.58c-1.13,0-2.14,0.04-3.07,0.44
			c-0.4,0.13-0.8,0.33-1.2,0.33c-1.14,0-1.8-0.8-1.8-1.87c0-2.87,3.34-5.48,5.74-6.41c3.7-1.38,7.21-1.7,10.25-1.06L311.93,126.72z"
			/>
		<path class="st1" d="M305.82,53.71l4.07-6.99c0.41,1.13,0.93,1.85,2.02,2.51c1.7,1.02,3.94,0.33,4.96-1.36
			c1.17-1.95,0.34-4.07-1.36-5.3c0.42-0.36,0.81-0.67,1.08-1.12c1.17-1.95,0.54-4.29-1.35-5.43c-1.65-0.99-3.91-0.38-4.9,1.26
			c-0.33,0.55-0.43,1.17-0.56,1.84c-1.98-0.78-4.27-0.8-5.5,1.24c-1.14,1.9-0.49,3.98,1.35,5.09c0.85,0.51,1.91,0.67,2.86,0.43
			l-4.27,6.87l-6.79-3.95c0.93-0.53,1.75-0.99,2.32-1.93c1.11-1.85,0.52-4.03-1.32-5.14c-1.8-1.08-4.15-0.32-5.3,1.36
			c-0.33-0.47-0.67-0.81-1.17-1.11c-1.8-1.08-4.21-0.56-5.29,1.23c-0.93,1.55-0.69,3.86,0.96,4.85c0.6,0.36,1.37,0.55,2.09,0.71
			c-1.03,1.83-1.04,4.33,0.9,5.5c1.85,1.11,4.14,0.79,5.31-1.15c0.57-0.95,0.77-1.85,0.67-2.92l6.67,4.15l-3.92,6.74
			c-0.4-0.92-0.84-1.66-1.79-2.23c-1.8-1.08-4.12-0.37-5.2,1.42c-1.17,1.95-0.25,4.26,1.62,5.32c-0.58,0.4-1,0.76-1.36,1.36
			c-1.05,1.75-0.44,4.01,1.25,5.03c1.85,1.11,4.14,0.45,5.22-1.34c0.36-0.6,0.47-1.01,0.52-1.66c1.79,0.87,4.34,0.57,5.45-1.27
			c1.14-1.9,0.42-4.09-1.42-5.2c-0.85-0.51-1.94-0.62-2.95-0.62l4.17-6.59l7.02,4.02c-0.95,0.45-1.73,1.07-2.27,1.96
			c-1.08,1.8-0.64,3.89,1.25,5.03c2,1.2,4.23,0.3,5.42-1.56c0.3,0.52,0.61,0.91,1.16,1.24c1.75,1.05,4.1,0.63,5.18-1.16
			c1.08-1.8,0.43-4.22-1.36-5.3c-0.5-0.3-0.99-0.39-1.56-0.46c1-1.78,0.64-4.23-1.2-5.34c-1.85-1.11-4.04-0.73-5.18,1.16
			c-0.54,0.9-0.73,2.01-0.63,3.08L305.82,53.71z"/>
		<path class="st1" d="M304.37,166.31c0-2.7,2.19-4.89,4.89-4.89c2.7,0,4.89,2.19,4.89,4.89c0,2.7-2.19,4.89-4.89,4.89
			C306.55,171.19,304.37,169,304.37,166.31z"/>
		<polygon class="st1" points="337.95,49.13 338.1,49.25 338.08,49.13 		"/>
		<polygon class="st1" points="339.52,49.13 339.54,49.15 339.54,49.13 		"/>
		<polygon class="st1" points="339.8,52.72 339.77,52.61 339.92,52.72 		"/>
		<polygon class="st1" points="339.88,43.34 340.12,43.13 340.33,42.91 340.49,42.66 340.63,42.42 340.74,42.16 340.81,41.88 
			340.85,41.64 340.85,41.36 340.81,40.85 340.66,40.36 340.42,39.93 340.1,39.56 339.73,39.24 339.3,39 338.83,38.87 338.31,38.81 
			337.99,38.83 337.67,38.91 337.37,39 337.11,39.15 336.85,39.34 336.61,39.54 336.38,39.75 336.16,39.99 335.61,40.87 
			335.26,41.95 335.11,43.21 335.17,44.55 335.48,45.9 336.06,47.17 336.92,48.31 338.1,49.25 337.86,48.22 337.75,47.3 
			337.76,46.48 337.95,45.73 338.25,45.06 338.68,44.44 339.2,43.88 		"/>
		<polygon class="st1" points="334.23,44.89 334.25,44.27 334.12,43.71 333.88,43.22 333.54,42.81 333.13,42.48 332.7,42.25 
			332.21,42.1 331.73,42.07 331.24,42.1 330.77,42.25 330.32,42.48 329.93,42.81 329.54,43.32 329.31,43.9 329.22,44.53 
			329.24,45.17 329.31,45.66 329.48,46.16 329.71,46.68 329.99,47.19 330.36,47.69 330.77,48.18 331.24,48.67 331.76,49.1 
			332.32,49.49 332.94,49.83 333.58,50.11 334.25,50.33 334.94,50.46 335.67,50.52 336.4,50.48 337.17,50.33 336.25,49.79 
			335.52,49.21 334.96,48.61 334.57,47.96 334.31,47.26 334.16,46.53 334.14,45.75 		"/>
		<polygon class="st1" points="331.35,49.99 331.13,49.75 330.92,49.55 330.68,49.38 330.43,49.25 330.15,49.13 329.89,49.06 
			329.63,49.02 329.37,49.02 328.86,49.06 328.38,49.21 327.95,49.45 327.57,49.77 327.26,50.14 327.01,50.57 326.86,51.04 
			326.81,51.56 326.84,51.88 326.9,52.2 327.01,52.5 327.16,52.76 327.35,53.02 327.54,53.27 327.76,53.49 328,53.71 328.4,54 
			328.86,54.24 329.41,54.44 329.97,54.61 330.58,54.71 331.22,54.76 331.89,54.76 332.57,54.71 333.24,54.57 333.91,54.39 
			334.57,54.14 335.18,53.81 335.78,53.42 336.32,52.95 336.83,52.39 337.26,51.77 336.74,51.92 336.23,52.01 335.76,52.09 
			335.32,52.13 334.89,52.14 334.49,52.11 334.1,52.03 333.74,51.92 333.41,51.79 333.07,51.62 332.75,51.43 332.45,51.19 
			332.17,50.95 331.87,50.67 331.61,50.35 		"/>
		<polygon class="st1" points="332.9,55.64 332.59,55.62 332.29,55.62 332.01,55.68 331.73,55.75 331.46,55.86 331.24,56 
			331.01,56.16 330.83,56.33 330.49,56.74 330.27,57.17 330.12,57.66 330.08,58.15 330.12,58.63 330.27,59.1 330.49,59.55 
			330.83,59.94 331.07,60.17 331.33,60.33 331.61,60.47 331.91,60.56 332.23,60.61 332.55,60.65 332.87,60.65 333.18,60.63 
			333.67,60.56 334.17,60.39 334.7,60.17 335.2,59.89 335.71,59.51 336.19,59.1 336.68,58.63 337.11,58.11 337.5,57.55 
			337.84,56.93 338.12,56.3 338.34,55.62 338.48,54.93 338.53,54.2 338.49,53.47 338.34,52.7 338.08,53.19 337.8,53.62 
			337.52,54.01 337.22,54.35 336.92,54.65 336.62,54.91 336.31,55.12 335.97,55.3 335.63,55.45 335.28,55.57 334.92,55.66 
			334.55,55.72 334.16,55.73 333.74,55.73 333.33,55.7 		"/>
		<polygon class="st1" points="338.01,58.52 337.76,58.74 337.56,58.95 337.39,59.19 337.26,59.44 337.15,59.72 337.07,59.98 
			337.04,60.24 337.02,60.5 337.07,61.01 337.22,61.49 337.47,61.92 337.78,62.3 338.16,62.61 338.59,62.86 339.05,63.01 
			339.56,63.06 339.9,63.03 340.21,62.97 340.49,62.86 340.78,62.71 341.04,62.52 341.28,62.33 341.5,62.11 341.73,61.87 
			342.25,61.01 342.63,59.9 342.78,58.65 342.72,57.3 342.4,55.96 341.82,54.69 340.96,53.55 339.77,52.61 340.05,53.64 
			340.14,54.56 340.1,55.38 339.93,56.13 339.63,56.8 339.2,57.42 338.68,58 		"/>
		<polygon class="st1" points="343.65,56.97 343.64,57.59 343.77,58.15 344.01,58.63 344.35,59.04 344.74,59.38 345.19,59.61 
			345.66,59.75 346.16,59.79 346.65,59.75 347.11,59.61 347.56,59.38 347.96,59.04 348.35,58.54 348.57,57.96 348.67,57.32 
			348.65,56.69 348.57,56.2 348.4,55.7 348.18,55.17 347.9,54.67 347.53,54.16 347.11,53.68 346.65,53.19 346.12,52.76 
			345.56,52.37 344.94,52.03 344.31,51.75 343.64,51.53 342.94,51.4 342.22,51.34 341.49,51.38 340.72,51.53 341.64,52.07 
			342.36,52.65 342.93,53.25 343.34,53.9 343.58,54.59 343.73,55.32 343.73,56.13 		"/>
		<polygon class="st1" points="346.53,51.86 346.74,52.11 346.96,52.31 347.21,52.48 347.45,52.61 347.71,52.72 347.99,52.8 
			348.25,52.84 348.52,52.85 349.02,52.8 349.51,52.65 349.94,52.41 350.31,52.09 350.63,51.71 350.87,51.28 351,50.82 
			351.06,50.31 351.04,49.97 350.97,49.66 350.87,49.38 350.72,49.1 350.54,48.83 350.33,48.59 350.12,48.37 349.88,48.14 
			349.49,47.86 349,47.62 348.48,47.41 347.92,47.24 347.3,47.15 346.67,47.1 345.99,47.1 345.32,47.15 344.65,47.28 343.97,47.47 
			343.32,47.71 342.7,48.05 342.1,48.44 341.56,48.91 341.06,49.47 340.63,50.11 341.15,49.96 341.65,49.83 342.12,49.77 
			342.57,49.73 343,49.71 343.39,49.77 343.79,49.83 344.14,49.94 344.48,50.07 344.81,50.24 345.13,50.44 345.43,50.67 
			345.71,50.93 345.99,51.19 346.27,51.53 		"/>
		<polygon class="st1" points="344.98,46.22 345.3,46.24 345.6,46.24 345.88,46.18 346.16,46.1 346.4,45.99 346.65,45.86 
			346.87,45.69 347.06,45.52 347.39,45.13 347.62,44.68 347.77,44.22 347.81,43.71 347.77,43.22 347.62,42.76 347.39,42.31 
			347.06,41.92 346.81,41.69 346.55,41.52 346.27,41.39 345.97,41.3 345.66,41.24 345.34,41.21 345.02,41.21 344.7,41.22 
			344.22,41.3 343.71,41.47 343.19,41.69 342.68,41.97 342.18,42.35 341.69,42.76 341.21,43.22 340.78,43.75 340.38,44.31 
			340.05,44.93 339.77,45.56 339.54,46.24 339.41,46.93 339.35,47.66 339.39,48.39 339.54,49.15 339.8,48.67 340.08,48.24 
			340.36,47.84 340.66,47.51 340.96,47.21 341.26,46.95 341.58,46.74 341.92,46.53 342.25,46.4 342.61,46.29 342.96,46.2 
			343.34,46.14 343.73,46.12 344.12,46.14 344.55,46.16 		"/>
		<path class="st1" d="M370.84,105.09l3.55-3.55l3.55,3.55c0.81,0.81,0.81,2.14,0,2.95c-0.81,0.81-2.14,0.81-2.95,0
			c-0.4-0.4-0.58-0.95-0.59-1.47c0,0.53-0.2,1.07-0.61,1.47c-0.81,0.81-2.14,0.81-2.95,0C370.03,107.23,370.03,105.91,370.84,105.09
			z M373.83,104.7c-0.33,0.33-0.33,0.86,0,1.19c0.33,0.33,0.86,0.33,1.19,0c0.33-0.33,0.33-0.86,0-1.19
			C374.69,104.37,374.16,104.37,373.83,104.7z"/>
		<path class="st1" d="M378.32,104.6l-3.55-3.55l3.55-3.55c0.81-0.82,2.14-0.82,2.95,0c0.81,0.81,0.81,2.14,0,2.95
			c-0.4,0.4-0.95,0.58-1.47,0.59c0.53,0,1.07,0.2,1.47,0.61c0.81,0.81,0.81,2.14,0,2.95C380.45,105.42,379.13,105.42,378.32,104.6z
			 M377.93,101.61c0.33,0.33,0.86,0.33,1.19,0c0.33-0.33,0.33-0.86,0-1.19c-0.33-0.33-0.86-0.33-1.19,0
			C377.6,100.75,377.6,101.28,377.93,101.61z"/>
		<path class="st1" d="M377.83,97.13l-3.55,3.55l-3.55-3.55c-0.81-0.81-0.81-2.14,0-2.95c0.81-0.81,2.14-0.81,2.95,0
			c0.4,0.4,0.58,0.95,0.59,1.47c0-0.53,0.2-1.07,0.61-1.47c0.81-0.81,2.14-0.81,2.95,0C378.64,94.99,378.64,96.31,377.83,97.13z
			 M374.84,97.52c0.33-0.33,0.33-0.86,0-1.19c-0.33-0.33-0.86-0.33-1.19,0c-0.33,0.33-0.33,0.86,0,1.19
			C373.98,97.84,374.51,97.84,374.84,97.52z"/>
		<path class="st1" d="M370.35,97.62l3.55,3.55l-3.55,3.55c-0.81,0.81-2.14,0.81-2.95,0c-0.81-0.81-0.81-2.14,0-2.95
			c0.4-0.4,0.95-0.58,1.47-0.59c-0.53,0-1.07-0.2-1.47-0.61c-0.81-0.81-0.81-2.14,0-2.95C368.22,96.8,369.54,96.8,370.35,97.62z
			 M370.74,100.61c-0.33-0.33-0.86-0.33-1.19,0c-0.33,0.33-0.33,0.86,0,1.19c0.33,0.33,0.86,0.33,1.19,0
			C371.07,101.47,371.07,100.94,370.74,100.61z"/>
		<path class="st2" d="M141.48,159.92c0-2.59,2.1-4.69,4.69-4.69c2.59,0,4.69,2.1,4.69,4.69s-2.1,4.69-4.69,4.69
			C143.58,164.61,141.48,162.51,141.48,159.92z"/>
		<path class="st1" d="M319.53,75.73c0-2.7,2.19-4.89,4.89-4.89c2.7,0,4.89,2.19,4.89,4.89c0,2.7-2.19,4.89-4.89,4.89
			C321.72,80.62,319.53,78.43,319.53,75.73z"/>
		<path class="st1" d="M338.11,221.7l4.49,1.46l-1.46,4.49c-0.34,1.03-1.44,1.6-2.47,1.26c-1.03-0.34-1.6-1.44-1.26-2.47
			c0.17-0.51,0.55-0.89,0.99-1.12c-0.45,0.23-0.98,0.29-1.5,0.12c-1.03-0.34-1.6-1.44-1.26-2.47
			C335.97,221.93,337.08,221.37,338.11,221.7z M339.72,224.04c-0.41-0.13-0.86,0.09-1,0.51c-0.13,0.41,0.09,0.86,0.51,1
			c0.41,0.13,0.86-0.09,1-0.51C340.36,224.62,340.13,224.18,339.72,224.04z"/>
		<path class="st1" d="M341.72,227.76l1.46-4.49l4.49,1.46c1.03,0.34,1.6,1.44,1.26,2.47c-0.34,1.03-1.44,1.6-2.47,1.26
			c-0.51-0.16-0.89-0.55-1.12-0.99c0.23,0.45,0.28,0.98,0.12,1.5c-0.34,1.03-1.44,1.6-2.47,1.26
			C341.95,229.9,341.38,228.79,341.72,227.76z M344.06,226.16c-0.13,0.41,0.09,0.86,0.51,1c0.41,0.13,0.86-0.09,1-0.51
			c0.13-0.41-0.09-0.86-0.51-1C344.64,225.51,344.19,225.74,344.06,226.16z"/>
		<path class="st1" d="M347.78,224.16l-4.49-1.46l1.46-4.49c0.34-1.03,1.44-1.6,2.47-1.26c1.03,0.34,1.6,1.44,1.26,2.47
			c-0.16,0.51-0.55,0.89-0.99,1.12c0.45-0.23,0.98-0.28,1.5-0.12c1.03,0.34,1.6,1.44,1.26,2.47
			C349.92,223.93,348.81,224.49,347.78,224.16z M346.17,221.81c0.41,0.13,0.86-0.09,1-0.51c0.13-0.41-0.09-0.86-0.51-1
			c-0.41-0.13-0.86,0.09-1,0.51C345.53,221.23,345.76,221.68,346.17,221.81z"/>
		<path class="st1" d="M344.17,218.1l-1.46,4.49l-4.49-1.46c-1.03-0.34-1.6-1.44-1.26-2.47c0.34-1.03,1.44-1.6,2.47-1.26
			c0.51,0.17,0.89,0.55,1.12,0.98c-0.23-0.45-0.28-0.98-0.12-1.5c0.34-1.03,1.44-1.6,2.47-1.26
			C343.94,215.96,344.51,217.06,344.17,218.1z M341.83,219.7c0.13-0.41-0.09-0.86-0.51-1c-0.41-0.13-0.86,0.09-1,0.51
			c-0.13,0.42,0.09,0.86,0.51,1C341.25,220.34,341.7,220.12,341.83,219.7z"/>
		<polygon class="st1" points="203.71,121.5 203.73,127.3 200.82,122.28 200.78,122.19 200.74,122.11 200.72,122.02 200.68,121.91 
			200.63,121.61 200.64,121.3 200.72,121.01 200.84,120.73 201.01,120.49 201.22,120.28 201.48,120.12 201.77,120.02 202.09,119.97 
			202.38,119.98 202.67,120.04 202.94,120.17 203.18,120.35 203.4,120.56 203.55,120.82 203.66,121.11 203.69,121.26 		"/>
		<polygon class="st1" points="203.94,121.5 203.93,127.3 206.84,122.28 206.88,122.19 206.91,122.11 206.94,122.02 206.98,121.91 
			207.01,121.61 207.01,121.3 206.94,121.01 206.81,120.73 206.65,120.49 206.43,120.28 206.16,120.12 205.87,120.02 205.57,119.97 
			205.26,119.98 204.98,120.04 204.7,120.17 204.46,120.35 204.26,120.56 204.09,120.82 203.98,121.11 203.95,121.26 		"/>
		<polygon class="st1" points="200.7,122.58 203.61,127.6 198.59,124.7 198.52,124.65 198.44,124.6 198.38,124.54 198.29,124.46 
			197.95,123.94 197.83,123.37 197.95,122.79 198.29,122.28 198.53,122.08 198.8,121.94 199.08,121.85 199.37,121.82 199.67,121.85 
			199.95,121.94 200.23,122.09 200.46,122.28 200.51,122.32 200.56,122.39 200.63,122.48 		"/>
		<polygon class="st1" points="206.94,122.58 204.04,127.6 209.06,124.7 209.14,124.65 209.21,124.6 209.28,124.54 209.36,124.46 
			209.71,123.94 209.82,123.37 209.71,122.79 209.36,122.28 209.12,122.08 208.86,121.94 208.56,121.85 208.27,121.82 
			207.97,121.85 207.69,121.94 207.42,122.09 207.18,122.28 207.14,122.32 207.08,122.39 207.01,122.48 		"/>
		<polygon class="st1" points="198.71,125.04 203.73,127.93 197.93,127.93 197.85,127.93 197.76,127.92 197.67,127.89 
			197.54,127.87 197.25,127.75 196.99,127.6 196.78,127.38 196.6,127.14 196.47,126.88 196.41,126.58 196.4,126.28 196.45,125.97 
			196.55,125.68 196.71,125.43 196.92,125.21 197.17,125.05 197.44,124.92 197.73,124.86 198.04,124.84 198.34,124.88 
			198.39,124.91 198.48,124.95 198.59,124.98 		"/>
		<polygon class="st1" points="208.95,125.04 203.93,127.93 209.72,127.93 209.81,127.93 209.9,127.92 209.99,127.89 210.11,127.87 
			210.41,127.75 210.66,127.6 210.88,127.38 211.05,127.14 211.18,126.88 211.24,126.58 211.26,126.28 211.21,125.97 211.09,125.68 
			210.93,125.43 210.72,125.21 210.48,125.05 210.22,124.92 209.92,124.86 209.62,124.84 209.3,124.88 209.25,124.91 209.16,124.95 
			209.06,124.98 		"/>
		<polygon class="st1" points="203.71,134.59 203.73,128.79 200.82,133.81 200.78,133.89 200.74,133.98 200.72,134.07 
			200.68,134.18 200.63,134.48 200.64,134.79 200.72,135.08 200.84,135.35 201.01,135.59 201.22,135.8 201.48,135.97 201.77,136.07 
			202.09,136.12 202.38,136.11 202.67,136.05 202.94,135.92 203.18,135.74 203.4,135.53 203.55,135.27 203.66,134.98 203.69,134.83 
					"/>
		<polygon class="st1" points="203.94,134.59 203.93,128.79 206.84,133.81 206.88,133.89 206.91,133.98 206.94,134.07 
			206.98,134.18 207.01,134.48 207.01,134.79 206.94,135.08 206.81,135.35 206.65,135.59 206.43,135.8 206.16,135.97 205.87,136.07 
			205.57,136.12 205.26,136.11 204.98,136.05 204.7,135.92 204.46,135.74 204.26,135.53 204.09,135.27 203.98,134.98 203.95,134.83 
					"/>
		<polygon class="st1" points="200.7,133.51 203.61,128.49 198.59,131.39 198.52,131.44 198.44,131.49 198.38,131.55 198.29,131.63 
			197.95,132.15 197.83,132.72 197.95,133.3 198.29,133.82 198.53,134.01 198.8,134.15 199.08,134.24 199.37,134.27 199.67,134.24 
			199.95,134.15 200.23,134.01 200.46,133.82 200.51,133.77 200.56,133.7 200.63,133.61 		"/>
		<polygon class="st1" points="206.94,133.51 204.04,128.49 209.06,131.39 209.14,131.44 209.21,131.49 209.28,131.55 
			209.36,131.63 209.71,132.15 209.82,132.72 209.71,133.3 209.36,133.82 209.12,134.01 208.86,134.15 208.56,134.24 208.27,134.27 
			207.97,134.24 207.69,134.15 207.42,134.01 207.18,133.82 207.14,133.77 207.08,133.7 207.01,133.61 		"/>
		<polygon class="st1" points="198.71,131.05 203.73,128.16 197.93,128.16 197.85,128.16 197.76,128.17 197.67,128.2 197.54,128.22 
			197.25,128.34 196.99,128.49 196.78,128.71 196.6,128.95 196.47,129.21 196.41,129.51 196.4,129.81 196.45,130.12 196.55,130.41 
			196.71,130.66 196.92,130.88 197.17,131.05 197.44,131.18 197.73,131.25 198.04,131.26 198.34,131.21 198.39,131.19 
			198.48,131.16 198.59,131.11 		"/>
		<polygon class="st1" points="208.95,131.05 203.93,128.16 209.72,128.16 209.81,128.16 209.9,128.17 209.99,128.2 210.11,128.22 
			210.41,128.34 210.66,128.49 210.88,128.71 211.05,128.95 211.18,129.21 211.24,129.51 211.26,129.81 211.21,130.12 
			211.09,130.41 210.93,130.66 210.72,130.88 210.48,131.05 210.22,131.18 209.92,131.25 209.62,131.26 209.3,131.21 209.25,131.19 
			209.16,131.16 209.06,131.11 		"/>
		<path class="st2" d="M170.89,94.07c0-2.11,1.71-3.81,3.81-3.81s3.81,1.71,3.81,3.81c0,2.11-1.71,3.81-3.81,3.81
			S170.89,96.18,170.89,94.07z"/>
		<path class="st3" d="M310.75,87.73c1.1-1.14,2.86-2.96,3.49-3.56c0.95-0.9,4.05-1.77,6.42,0.8c2.38,2.57,2.96,5.77,3.27,7.11
			c0.31,1.34,1.19,6.41,0.05,8.96c-1.14,2.54-3.77,3.54-5.05,3.13c-0.79-0.25-2.63-1-3.93-1.54c0.06-0.23,0.1-0.43,0.14-0.59
			c0.19-0.81,0.72-3.86,0.03-5.39c-0.69-1.53-2.41-2.48-2.41-2.48s1.25-2.2,0.22-4.04C312.35,89.04,311.49,88.27,310.75,87.73z
			 M314.8,103.37c1.43,0.7,3.57,1.74,4.3,2.14c1.15,0.62,2.94,3.3,1.23,6.36c-1.71,3.06-4.57,4.6-5.75,5.31
			c-1.18,0.71-5.73,3.11-8.5,2.81c-2.77-0.3-4.54-2.49-4.54-3.83c0-0.79,0.13-2.65,0.23-4.04c0.3-0.02,0.55-0.05,0.75-0.06
			c0.83-0.07,3.89-0.51,5.13-1.64c1.24-1.13,1.29-3.15,1.29-3.15s2.8,0.6,4.23-0.95C314.05,105.36,314.52,104.27,314.8,103.37z
			 M300.99,112.15c-0.22,1.57-0.54,3.8-0.69,4.59c-0.24,1.29-2.23,3.81-5.67,3.13c-3.43-0.68-5.78-2.93-6.82-3.83
			c-1.04-0.9-4.73-4.49-5.3-7.22c-0.57-2.73,0.97-5.08,2.24-5.5c0.76-0.25,2.62-0.71,3.98-1.04c0.14,0.36,0.27,0.65,0.36,0.86
			c0.32,0.76,1.69,3.54,3.14,4.38c1.45,0.83,3.33,0.27,3.33,0.27s0.36,2.83,2.27,3.71C298.96,112.02,300.08,112.15,300.99,112.15z
			 M288.48,101.55c-1.57,0.28-3.84,0.67-4.65,0.78c-1.3,0.17-4.32-0.94-4.73-4.42c-0.41-3.48,1-6.41,1.54-7.68
			c0.54-1.27,2.81-5.89,5.23-7.27c2.42-1.39,5.13-0.65,5.92,0.43c0.5,0.69,1.63,2.41,2.39,3.59c-0.32,0.25-0.57,0.48-0.75,0.64
			c-0.63,0.54-2.85,2.7-3.19,4.34c-0.34,1.64,0.72,3.29,0.72,3.29s-2.53,1.18-2.78,3.27C288.03,99.67,288.22,100.72,288.48,101.55z
			 M294.71,86.58c-0.75-1.41-1.91-3.59-2.28-4.37c-0.57-1.18-0.44-4.4,2.74-5.86c3.18-1.47,6.4-1.03,7.77-0.91
			c1.37,0.12,6.47,0.85,8.53,2.72c2.07,1.87,2.2,4.68,1.42,5.77c-0.51,0.7-1.83,2.35-2.71,3.43c-0.27-0.17-0.5-0.3-0.68-0.41
			c-0.71-0.43-3.45-1.87-5.11-1.69c-1.67,0.18-3.05,1.64-3.05,1.64s-1.76-1.98-3.83-1.57C296.37,85.55,295.43,86.07,294.71,86.58z"
			/>
		<path class="st3" d="M305.94,103.69c0,0,1.5,1.83,1.93,2.42c0.43,0.59,0.35,2.12-0.77,3.14c-1.12,1.02-3.89,1.41-4.64,1.48
			c-0.75,0.07-2.5,0.3-4.23-0.5c-1.73-0.8-1.8-2.55-1.49-3.19c0.31-0.64,1.6-3.05,1.6-3.05l-0.25-0.18c0,0-1.28,2-1.71,2.58
			c-0.43,0.59-1.9,0.99-3.22,0.24c-1.32-0.75-2.55-3.26-2.84-3.95c-0.29-0.69-1.06-2.28-0.84-4.17c0.22-1.89,1.87-2.5,2.57-2.4
			c0.7,0.09,3.4,0.58,3.4,0.58l0.14-0.34c0,0-2.33-0.55-3.03-0.77c-0.69-0.23-1.53-1.51-1.22-2.99c0.31-1.48,2.32-3.43,2.88-3.92
			c0.57-0.49,1.84-1.71,3.71-2.08c1.87-0.37,2.95,1,3.08,1.7c0.13,0.7,0.5,3.41,0.5,3.41l0.37,0.02c0,0-0.2-2.39-0.2-3.12
			c0-0.73,0.96-1.92,2.47-2.08c1.51-0.16,3.98,1.14,4.62,1.53c0.64,0.39,2.2,1.22,3.13,2.88c0.93,1.66-0.04,3.12-0.67,3.46
			c-0.63,0.34-3.09,1.53-3.09,1.53l0.09,0.36c0,0,2.21-0.93,2.9-1.15c0.69-0.23,2.12,0.32,2.74,1.7c0.62,1.38,0.14,4.14-0.03,4.87
			c-0.17,0.73-0.48,2.47-1.78,3.87c-1.29,1.4-2.98,0.92-3.49,0.43c-0.51-0.49-2.41-2.47-2.41-2.47L305.94,103.69z M297.89,95.38
			c0.33,0.33,0.86,0.33,1.19,0c0.33-0.33,0.33-0.86,0-1.19c-0.33-0.33-0.86-0.33-1.19,0C297.57,94.52,297.57,95.05,297.89,95.38z
			 M297.18,96.99c0.42,0.19,0.92,0,1.11-0.42c0.19-0.42,0-0.92-0.42-1.11c-0.42-0.19-0.92,0-1.11,0.42
			C296.57,96.3,296.76,96.8,297.18,96.99z M297.09,98.75c0.46,0.02,0.86-0.33,0.88-0.79c0.02-0.46-0.33-0.86-0.79-0.88
			c-0.46-0.02-0.86,0.33-0.88,0.79C296.27,98.33,296.62,98.72,297.09,98.75z M299.12,94.13c0.19,0.42,0.68,0.61,1.11,0.43
			c0.42-0.19,0.61-0.68,0.42-1.11c-0.19-0.42-0.68-0.61-1.11-0.42C299.13,93.22,298.94,93.71,299.12,94.13z M297.63,100.42
			c0.4-0.13,0.64-0.53,0.57-0.94c0.13,0.36,0.31,0.7,0.54,1c-0.3-0.24-0.74-0.25-1.05,0c-0.36,0.29-0.42,0.82-0.12,1.18
			c0.29,0.36,0.82,0.42,1.18,0.12c0.31-0.25,0.4-0.68,0.22-1.03c0.24,0.27,0.51,0.5,0.81,0.69c-0.36-0.1-0.76,0.05-0.96,0.39
			c-0.23,0.4-0.09,0.91,0.31,1.15c0.4,0.23,0.91,0.09,1.15-0.31c0.2-0.34,0.13-0.76-0.14-1.02c0.3,0.15,0.61,0.27,0.95,0.34
			c-0.36,0.05-0.66,0.32-0.72,0.7c-0.07,0.46,0.24,0.89,0.7,0.96c0.46,0.07,0.89-0.24,0.96-0.7c0.06-0.38-0.14-0.74-0.47-0.89
			c0.12,0.01,0.25,0.02,0.37,0.02c0.19,0,0.39-0.01,0.57-0.04c-0.3,0.18-0.46,0.53-0.39,0.89c0.1,0.45,0.54,0.74,0.99,0.65
			c0.45-0.1,0.74-0.54,0.65-0.99c-0.08-0.36-0.37-0.62-0.72-0.66c0.29-0.09,0.57-0.2,0.82-0.35c-0.2,0.27-0.22,0.65-0.02,0.95
			c0.25,0.39,0.77,0.5,1.16,0.25c0.39-0.25,0.5-0.77,0.25-1.16c-0.2-0.3-0.56-0.44-0.9-0.36c0.23-0.18,0.45-0.39,0.64-0.62
			c-0.09,0.33,0.02,0.69,0.31,0.9c0.37,0.27,0.9,0.19,1.17-0.19c0.27-0.37,0.19-0.9-0.19-1.17c-0.3-0.22-0.69-0.21-0.98-0.01
			c0.15-0.25,0.28-0.53,0.37-0.82c0.03,0.34,0.27,0.64,0.62,0.73c0.45,0.12,0.91-0.15,1.03-0.59c0.12-0.45-0.15-0.91-0.59-1.03
			c-0.36-0.1-0.72,0.06-0.92,0.35c0.04-0.22,0.06-0.45,0.06-0.68c0-0.07,0-0.15-0.01-0.22c0.15,0.31,0.48,0.51,0.84,0.47
			c0.46-0.05,0.79-0.46,0.75-0.92c-0.05-0.46-0.46-0.79-0.92-0.75c-0.37,0.04-0.66,0.32-0.73,0.66c-0.06-0.33-0.17-0.64-0.3-0.93
			c0.25,0.28,0.66,0.37,1.01,0.19c0.41-0.21,0.58-0.72,0.37-1.13c-0.21-0.41-0.72-0.58-1.13-0.37c-0.36,0.18-0.53,0.59-0.43,0.96
			c-0.19-0.31-0.42-0.6-0.69-0.85c0.33,0.19,0.77,0.13,1.04-0.17c0.31-0.34,0.28-0.87-0.06-1.18c-0.34-0.31-0.87-0.28-1.18,0.06
			c-0.28,0.31-0.28,0.76-0.04,1.08c-0.3-0.24-0.63-0.43-0.99-0.57c0.39,0.07,0.79-0.14,0.93-0.52c0.17-0.43-0.05-0.92-0.48-1.08
			c-0.43-0.17-0.92,0.05-1.08,0.48c-0.15,0.4,0.02,0.84,0.38,1.04c-0.35-0.11-0.71-0.17-1.09-0.18c0.36-0.1,0.62-0.42,0.62-0.81
			c0-0.46-0.38-0.84-0.84-0.84c-0.46,0-0.84,0.38-0.84,0.84c0,0.4,0.28,0.74,0.66,0.82c-2.04,0.15-3.65,1.85-3.65,3.93
			c0,0.38,0.05,0.75,0.16,1.1c-0.18-0.37-0.61-0.56-1.01-0.43c-0.44,0.14-0.68,0.62-0.54,1.06
			C296.71,100.33,297.19,100.57,297.63,100.42z"/>
		<polygon class="st1" points="136.25,138.31 136.43,138.43 136.4,138.31 		"/>
		<polygon class="st1" points="138.06,138.31 138.08,138.33 138.08,138.31 		"/>
		<polygon class="st1" points="138.38,142.42 138.33,142.29 138.51,142.42 		"/>
		<polygon class="st1" points="138.46,131.66 138.74,131.42 138.98,131.17 139.17,130.89 139.32,130.61 139.45,130.31 
			139.54,129.99 139.58,129.71 139.58,129.39 139.54,128.81 139.36,128.25 139.09,127.76 138.72,127.33 138.29,126.96 137.8,126.68 
			137.26,126.53 136.66,126.47 136.3,126.49 135.93,126.58 135.59,126.68 135.29,126.86 134.99,127.07 134.71,127.31 134.45,127.54 
			134.2,127.82 133.57,128.83 133.17,130.07 133,131.51 133.06,133.05 133.42,134.6 134.09,136.05 135.08,137.36 136.43,138.43 
			136.15,137.26 136.02,136.2 136.04,135.26 136.25,134.4 136.6,133.63 137.09,132.92 137.69,132.28 		"/>
		<polygon class="st1" points="131.99,133.44 132.01,132.73 131.86,132.09 131.58,131.53 131.19,131.06 130.72,130.67 
			130.23,130.42 129.67,130.24 129.11,130.2 128.56,130.24 128.02,130.42 127.51,130.67 127.06,131.06 126.61,131.64 126.35,132.3 
			126.24,133.03 126.26,133.76 126.35,134.32 126.54,134.9 126.8,135.5 127.12,136.08 127.55,136.65 128.02,137.21 128.56,137.77 
			129.16,138.26 129.8,138.71 130.51,139.1 131.24,139.42 132.01,139.68 132.8,139.83 133.64,139.89 134.47,139.85 135.35,139.68 
			134.3,139.06 133.47,138.39 132.82,137.71 132.37,136.95 132.07,136.16 131.9,135.33 131.88,134.42 		"/>
		<polygon class="st1" points="128.69,139.29 128.43,139.01 128.19,138.78 127.91,138.58 127.63,138.43 127.31,138.31 
			127.01,138.22 126.71,138.18 126.41,138.18 125.83,138.22 125.28,138.39 124.78,138.67 124.35,139.03 123.99,139.46 
			123.71,139.96 123.54,140.49 123.47,141.09 123.52,141.46 123.58,141.82 123.71,142.17 123.88,142.47 124.1,142.77 124.31,143.04 
			124.57,143.3 124.85,143.56 125.3,143.88 125.83,144.16 126.46,144.4 127.1,144.59 127.81,144.7 128.54,144.76 129.31,144.76 
			130.08,144.7 130.85,144.55 131.62,144.33 132.37,144.05 133.08,143.67 133.77,143.22 134.39,142.68 134.97,142.04 135.46,141.33 
			134.86,141.5 134.28,141.61 133.75,141.69 133.23,141.74 132.74,141.76 132.29,141.72 131.84,141.63 131.43,141.5 131.04,141.35 
			130.66,141.16 130.29,140.94 129.95,140.66 129.63,140.39 129.29,140.06 128.99,139.7 		"/>
		<polygon class="st1" points="130.47,145.77 130.1,145.75 129.76,145.75 129.44,145.81 129.11,145.9 128.81,146.03 128.56,146.18 
			128.3,146.37 128.08,146.56 127.7,147.03 127.44,147.53 127.27,148.08 127.23,148.64 127.27,149.2 127.44,149.73 127.7,150.25 
			128.08,150.7 128.36,150.96 128.66,151.15 128.99,151.3 129.33,151.41 129.69,151.47 130.06,151.51 130.42,151.51 130.79,151.49 
			131.34,151.41 131.92,151.21 132.52,150.96 133.1,150.64 133.68,150.21 134.24,149.73 134.8,149.2 135.29,148.6 135.74,147.96 
			136.13,147.25 136.45,146.52 136.7,145.75 136.86,144.95 136.92,144.12 136.88,143.28 136.7,142.4 136.4,142.96 136.08,143.45 
			135.76,143.9 135.42,144.29 135.08,144.63 134.73,144.93 134.37,145.17 133.98,145.38 133.6,145.55 133.19,145.68 132.78,145.79 
			132.35,145.85 131.9,145.87 131.43,145.87 130.96,145.83 		"/>
		<polygon class="st1" points="136.32,149.07 136.04,149.33 135.8,149.56 135.61,149.84 135.46,150.12 135.33,150.44 135.25,150.74 
			135.2,151.04 135.18,151.34 135.25,151.92 135.42,152.48 135.7,152.97 136.06,153.4 136.49,153.77 136.98,154.04 137.52,154.22 
			138.1,154.28 138.48,154.24 138.85,154.17 139.17,154.04 139.49,153.87 139.79,153.66 140.07,153.44 140.33,153.19 140.59,152.91 
			141.19,151.92 141.62,150.66 141.79,149.22 141.72,147.68 141.36,146.13 140.69,144.67 139.71,143.37 138.33,142.29 
			138.66,143.47 138.76,144.52 138.72,145.47 138.53,146.33 138.18,147.1 137.69,147.8 137.09,148.47 		"/>
		<polygon class="st1" points="142.79,147.29 142.77,148 142.92,148.64 143.2,149.2 143.59,149.67 144.04,150.06 144.55,150.31 
			145.09,150.49 145.67,150.53 146.23,150.49 146.76,150.31 147.28,150.06 147.73,149.67 148.18,149.09 148.43,148.43 148.54,147.7 
			148.52,146.97 148.43,146.41 148.24,145.83 147.98,145.23 147.66,144.65 147.23,144.07 146.76,143.52 146.23,142.96 
			145.63,142.47 144.98,142.02 144.27,141.63 143.55,141.31 142.77,141.05 141.98,140.9 141.14,140.84 140.31,140.88 139.43,141.05 
			140.48,141.67 141.32,142.34 141.96,143.02 142.43,143.77 142.71,144.57 142.88,145.4 142.88,146.33 		"/>
		<polygon class="st1" points="146.1,141.44 146.33,141.72 146.59,141.95 146.87,142.14 147.15,142.29 147.45,142.42 147.77,142.51 
			148.07,142.55 148.37,142.57 148.95,142.51 149.51,142.34 150,142.06 150.43,141.69 150.79,141.26 151.07,140.77 151.22,140.24 
			151.29,139.66 151.26,139.27 151.18,138.91 151.07,138.58 150.9,138.26 150.69,137.96 150.45,137.68 150.21,137.43 149.94,137.17 
			149.48,136.85 148.93,136.57 148.33,136.33 147.68,136.14 146.98,136.03 146.25,135.97 145.48,135.97 144.7,136.03 143.93,136.18 
			143.16,136.4 142.41,136.68 141.7,137.06 141.01,137.51 140.39,138.05 139.81,138.69 139.32,139.42 139.92,139.25 140.5,139.1 
			141.04,139.03 141.55,138.99 142.04,138.97 142.49,139.03 142.94,139.1 143.35,139.23 143.74,139.38 144.12,139.57 144.49,139.81 
			144.83,140.06 145.15,140.36 145.48,140.66 145.8,141.05 		"/>
		<polygon class="st1" points="144.32,134.96 144.68,134.98 145.02,134.98 145.35,134.92 145.67,134.83 145.95,134.7 146.23,134.55 
			146.48,134.36 146.7,134.17 147.08,133.72 147.34,133.2 147.51,132.67 147.56,132.09 147.51,131.53 147.34,130.99 147.08,130.48 
			146.7,130.03 146.42,129.77 146.12,129.58 145.8,129.43 145.45,129.32 145.09,129.26 144.72,129.21 144.36,129.21 144,129.24 
			143.44,129.32 142.86,129.51 142.26,129.77 141.68,130.09 141.1,130.52 140.54,130.99 139.99,131.53 139.49,132.13 139.04,132.77 
			138.66,133.48 138.33,134.21 138.08,134.98 137.93,135.78 137.86,136.61 137.91,137.45 138.08,138.33 138.38,137.77 138.7,137.28 
			139.02,136.83 139.36,136.44 139.71,136.1 140.05,135.8 140.41,135.56 140.8,135.33 141.19,135.18 141.59,135.05 142,134.94 
			142.43,134.87 142.88,134.85 143.33,134.87 143.82,134.9 		"/>
		<path class="st0" d="M219.3,72.52c0,0,0.71,1.42,1.29,2.25c0.58,0.84,0.51,2.25-0.77,3.15c-1.29,0.9-3.35,1.48-4.38,1.67
			c-1.03,0.19-1.55,0.19-1.55,0.19s-0.52,0-1.55-0.19c-1.03-0.19-3.09-0.77-4.38-1.67c-1.29-0.9-1.35-2.32-0.77-3.15
			c0.58-0.84,1.29-2.25,1.29-2.25l-0.32-0.29c0,0-1.42,0.71-2.25,1.29c-0.84,0.58-2.25,0.51-3.15-0.77
			c-0.9-1.29-1.48-3.35-1.67-4.38c-0.19-1.03-0.19-1.55-0.19-1.55s0-0.52,0.19-1.55c0.19-1.03,0.77-3.09,1.67-4.38
			c0.9-1.29,2.32-1.35,3.15-0.77c0.84,0.58,2.25,1.29,2.25,1.29l0.32-0.38c0,0-0.71-1.42-1.29-2.25c-0.58-0.84-0.51-2.25,0.77-3.15
			c1.29-0.9,3.35-1.48,4.38-1.67c1.03-0.19,1.55-0.19,1.55-0.19s0.52,0,1.55,0.19c1.03,0.19,3.09,0.77,4.38,1.67
			c1.29,0.9,1.35,2.32,0.77,3.15c-0.58,0.84-1.35,2.25-1.35,2.25l0.32,0.32c0,0,1.42-0.71,2.25-1.29c0.84-0.58,2.25-0.51,3.15,0.77
			c0.9,1.29,1.48,3.35,1.67,4.38c0.19,1.03,0.19,1.55,0.19,1.55s0,0.52-0.19,1.55c-0.19,1.03-0.77,3.09-1.67,4.38
			c-0.9,1.29-2.32,1.35-3.15,0.77c-0.84-0.58-2.25-1.29-2.25-1.29L219.3,72.52z M207.9,66.84c0-3.22,2.61-5.83,5.83-5.83
			c3.22,0,5.83,2.61,5.83,5.83c0,3.22-2.61,5.83-5.83,5.83C210.51,72.66,207.9,70.05,207.9,66.84z M210.94,66.9
			c0-1.46,1.18-2.64,2.64-2.64c1.46,0,2.64,1.18,2.64,2.64c0,1.46-1.18,2.64-2.64,2.64C212.12,69.54,210.94,68.36,210.94,66.9z"/>
		<path class="st3" d="M186.5,117.07c0,0,1.94-0.79,3.58-2.33c1.63-1.55,2.59-3.55,2.93-5.05c0.33-1.5,0.65-3.27,0.65-3.27
			s-3.14-0.3-5.3-0.68c-1.89-0.33-4.8-1.1-4.8-1.1s-0.31,1.78-0.51,3.3c-0.2,1.52,0.02,3.73,1.03,5.74
			C185.07,115.69,186.5,117.07,186.5,117.07z M182.51,106.37c0,0-0.52-2.4,0.6-3.6c1.12-1.2,2.56-1.83,3.79-1.93
			c1.23-0.1,2.83-1.1,2.83-1.1s1.14,1.47,2.25,1.99c1.12,0.52,2.23,1.6,2.85,3.11c0.62,1.51-0.74,3.58-0.74,3.58
			s2.35,0.79,2.83,2.35c0.47,1.56,0.29,3.11-0.24,4.22c-0.53,1.11-0.48,2.98-0.48,2.98s-1.86,0.26-2.88,0.96
			c-1.02,0.71-2.52,1.14-4.15,0.93c-1.62-0.21-2.76-2.36-2.76-2.36s-1.83,1.67-3.43,1.31c-1.6-0.36-2.85-1.28-3.55-2.29
			c-0.7-1.01-2.34-1.88-2.34-1.88s0.72-1.73,0.62-2.96c-0.1-1.23,0.29-2.74,1.3-4.04C180.01,106.34,182.51,106.37,182.51,106.37z
			 M176.03,108.66c1.13-6.39,7.23-10.67,13.62-9.54c6.4,1.13,10.67,7.23,9.54,13.62c-1.13,6.4-7.23,10.67-13.62,9.54
			C179.18,121.15,174.91,115.05,176.03,108.66z"/>
		<path class="st2" d="M122.5,157.1l23.22,12.89c0,0-10.3,34.77-10.82,35.75c-0.73,1.37-1.19,1.8-2.48,2.82
			c-0.93,0.74-2.65,1.19-2.65,1.19l-26.07-14.34l10.99-32.75l1.87,1.04l-10.07,30.92l23.73,13.06c0,0,2.18-0.48,3.19-2.38
			c0.75-1.4,0.76-1.99,0.92-2.73l-22.82-12.73L122.5,157.1z"/>
		<path class="st2" d="M415.66,146.13c0-2.7,2.19-4.89,4.89-4.89c2.7,0,4.89,2.19,4.89,4.89c0,2.7-2.19,4.89-4.89,4.89
			C417.85,151.01,415.66,148.83,415.66,146.13z"/>
		<path class="st0" d="M343.75,178.06c-1.51,0.96-2.98,1.43-4.47,0.05c-0.93-0.87-1.4-2.03-1.45-3.3c-1.78,0.91-4.1,1.53-5.75-0.01
			c-1.26-1.18-1.08-3.58-1.03-5.18l-0.89,0.51c-3.03,3.24-4.32,7.39-6.93,10.19c-1.08,1.15-5.34,5.51-6.99,3.97
			c-1.76-1.64,1.4-8.56,2.19-10.4c1.63-3.73,3.14-7.45,5.47-10.83c2.58-3.76,5.36-7.85,8.44-11.15c1.79-1.92,2.63-2.27,5.04-3.31
			l8.71-3.39c3.05-0.96,3.56-1.61,5.83-3.71c1.34-1.32,2.16-2.1,4.03-1.79c2.89,0.43,6,2.72,8.09,4.66
			c1.98,1.85,4.81,5.31,5.54,7.95c0.25,1.06-0.68,1.94-1.18,2.7l-2.59,3.65c-1.42,1.86-1.43,1.65-2,3.79
			c-0.93,3.86-1.02,5.83-3.79,8.8c-2.31,2.47-6.35,5.59-9.05,7.5c-1.92,1.29-4.01,2.53-5.99,0.69L343.75,178.06z"/>
		<path class="st2" d="M423.92,213.51c0,0,3.15-1.91,3.73-4.39c0.74-3.17-0.41-6.19-2.56-8.34c-2.15-2.15-5.7-1.76-5.7-1.76
			L423.92,213.51z M414.7,181.57c0,0,4.83-3.75,6.44-7.46c1.61-3.71,2.58-6.2,2-10.15c-0.59-3.95-3.75-5.12-6.29-4.14
			c-2.54,0.98-4.1,4.73-4.1,8.44C412.75,171.96,414.7,181.57,414.7,181.57z M417.23,199.22c0,0-2.43,0.57-3.71,2.54
			c-1.05,1.62-1.17,4.68-1.17,4.68s-1.37-0.2-1.8-2.15c-0.44-1.95-0.98-3.51,0.63-6.25c1.61-2.73,5.07-3.95,5.07-3.95l-1.95-5.86
			c0,0-3.48,2.76-6.1,7.81c-2.71,5.24-2.73,12.78,2.78,16.48c5.51,3.71,11.76,1.76,11.76,1.76L417.23,199.22z M413.53,182.35
			c0,0-2.3-9.61-2.54-14.1c-0.24-4.49,0.98-8.44,3.32-10.39c2.34-1.95,9.02-4.14,11.76,5.27c2.73,9.41-4.61,18.18-7.38,20.95
			c-2.2,2.2-3.01,2.8-3.01,2.8l2.15,7.03c0,0,4.32-1.19,8.05,1.56c4.36,3.21,6.04,10.53,4.18,14.58c-1.98,4.31-5.54,5.61-5.54,5.61
			s1.45,3.87,1.3,7.6c-0.18,4.43-1.73,7.32-6.22,8.3c-1.69,0.37-3.19,0.04-4.4-0.52c-2.36-0.69-4.09-2.87-4.09-5.46
			c0-3.14,2.54-5.68,5.68-5.68c3.14,0,5.68,2.54,5.68,5.68c0,1.76-0.8,3.34-2.06,4.38c0.88-0.19,1.61-0.72,2.54-1.97
			c1.76-2.34,1.76-6.01,1.37-7.81c-0.39-1.8-1.37-4.34-1.37-4.34c-2.6,0.47-6.05,0.98-10-0.39c-3.95-1.37-10.39-5.47-10.39-14.68
			c0-9.22,6.01-14.14,7.42-15.51C411.38,183.91,413.53,182.35,413.53,182.35z"/>
		<path class="st2" d="M157.72,157.06c-0.94-0.3-1.02-0.02-1.97,0.16c0-1.18,4.13-2.42,4.9-3.01c0,0-3.92-0.39-6.21,0.07
			c-0.84-0.08-1.29,0.06-1.88-0.25c-0.18,0-0.35-0.06-0.53-0.06c-0.23,0.06-0.47,0.15-0.89,0.23c0-1.15,5.34-1.27,6.08-1.85
			c0,0-3.81-0.38-6.03,0.07c-0.82-0.08-1.25,0.05-1.82-0.24c-0.17,0-0.34-0.06-0.52-0.06c0.29-1.09,7.43-1.02,8.98-1.02
			c1.52-0.52,1.77-2.43,2.35-4.05c0.18-0.51,0.35-0.98,0.53-1.35c0.42-1.61,0.51-3.7,0.51-3.9c-0.06-0.14,0.01-0.45-0.08-0.5
			c0.04-0.29-0.27-0.71,0.1-0.87c-0.21-0.25,0.31-0.44,0-0.62c0.31-0.25,0.06-0.25,0.04-0.31c0.21-0.13-0.04-0.29,0.04-0.48
			c-0.52-0.12-0.06-0.58-0.21-0.94c-0.66-1.18-2.31-1.47-3.24-2.41c-0.77-0.1-1.19-0.81-1.95-1c-0.25-0.12-0.42-0.52-0.79-0.44
			c-0.58-0.85-1.73-1.21-2.31-2.14c-2.08-1.85-2.83-4.53-3.87-6.96c-0.04-1.14-0.58-1.99-0.69-3.07c0.04-0.64-0.04-1.23-0.27-1.77
			c-0.08-1.99-0.37-3.93-0.25-5.92c0-2,0.42-3.53,0.64-5.45c0.48-3.33,4.22-4.68,4.45-8.06c0.21-1.85,1.23-3.2,1.87-4.8
			c0.29-0.44-0.12-0.85-0.29-1.18c-1.35-0.96-2.76-1.83-4.16-2.76c-0.25-0.29-0.81-0.54-0.91-1c0.15-0.13,0.35-0.25,0.56-0.27
			c0.87,0.62,1.7,1.12,2.52,1.52c1.45,0.52,2.87,1.02,4.16,1.87c0.23,0.06,0.62,0.37,0.83,0c-0.24-0.68-0.4-1.26-1.62-2.87
			c-1.19-1.58-2.49-2.91-4.3-4.01c0.21-0.12,0.54-0.12,0.81-0.17c2.18,0.67,3.84,2.22,5.71,3.64c1.45,0.67,3.1-0.17,4.59,0.29
			c1.29,0.5,2.74,0.85,3.53,2.04c0.42,0.52,0.96,0.6,1.06,1.37c0.48,0.75,0.79,1.58,1.16,2.43c0.1,1.43,0.37,2.58,0.31,3.95
			c-0.1,2.51-1.25,4.9-1.12,7.42c0.54,3.28,2.87,5.57,4.39,8.36c0.12,0.06,2.56,4.97,3.45,7.48c0.37,1.73,0.91,3.55,1.56,5.22
			c0,0.56,0.13,1.06,0.4,1.52c0.33,1.7,1.5,2.97,2.43,4.36c3.78,4.53,7.4,9.17,11.08,13.55c3.28,3.7,6.05,7.88,9.69,11.33
			c0.17,0.21,0.21,0.6-0.08,0.69c-0.4,0.21-1,0.04-1.41-0.13c-1.35-0.27-1.85-1.89-3.1-2.29c-0.98-0.6-0.89,0.81-1.66,0.83
			c-0.48-0.06-0.91-0.35-0.96-0.83c-1.23,0.1-1.77-1.27-2.31-2.06c-2.43-3.47-5.17-6.69-8.02-9.79c-1.77-2.18-3.62-4.32-5.59-6.26
			c-0.21-0.15-0.48-0.52-0.73-0.5c0.75,3.3,1.99,6.3,2.45,9.69c0.31,0.71-0.02,1.6,0.5,2.22c-1.21-0.6-1.45-1.72-2.08-2.54
			c-0.21-1.14-1.25-2.08-1.73-3.14c-1.12-1.7-2.37-3.43-3.18-5.22c-0.29-0.5-0.39-1.16-0.83-1.52c-0.39,0.27-0.93,0.19-1.37,0.31
			c-0.64,1.27,1.29,2.66-0.13,3.87c0.21,0.96,0.67,1.95,0.62,2.99c-0.17,0.33-0.23,0.83-0.75,0.67c-0.94-0.67-2.33-3.29-3.36-4.03
			c-0.45,1.36-0.76,3-0.98,4.42l-0.14,0.9c-0.26,0.95-0.3,1.87-0.65,2.91c1.37,0.21,2.42,0.58,1.76,1.24
			c-0.47-0.25-1.44-0.04-1.91-0.16c-0.09-0.02-0.2-0.02-0.29-0.04c0,0.18-0.06,0.3-0.06,0.47c0.06,0.06,7.5,0.06,5.96,1.59
			c-0.48-0.25-1.48-0.04-1.97-0.17c-2.89-0.76-5.23,0.08-7.06,0.58C159.68,155.75,159.25,156.88,157.72,157.06z M157.79,153.1
			c1.17,0,3.15-0.03,3.66-0.03c0.59-0.19,0.43-0.59,0.83-1.03c-1.51,0.1-3.14,0.64-4.25,0.95L157.79,153.1z M162.69,151.12
			c0.74-1.31,1.13-2.91,1.59-3.83c0.27-1.37,0.77-4.26,0.57-4.29c-0.19-0.03-1.55-0.68-1.81-0.69c-0.18-0.01-0.55,2.14-0.83,3.57
			l-0.2,0.95c-0.32,1.2-0.56,2.23-0.93,3.75c0,0.17-0.06,0.29-0.06,0.46C161.03,151.05,161.75,151.07,162.69,151.12z"/>
		<path class="st0" d="M219.36,123.27c0.41,1.66,2.73,3.7,5.21,3.35l4.05-0.57c1.66-0.23,2.96-1.48,3.61-2.78h1.29
			c-0.42,1.8-1.7,3.82-4.82,4.26l-3.81,0.54c-4.56,0.64-6.26-3.07-6.54-4.8L219.36,123.27z M217.72,123.27
			c0.29,1.93,2.14,6.15,7.1,5.45l4.11-0.58c3.44-0.48,4.79-2.84,5.21-4.88l2.75,0c0,0.26,0.02,0.5,0.05,0.72
			c0.3,2.15,0.33,9.23-7.53,10.34l-3.33,0.47c-7.86,1.1-9.79-5.71-10.09-7.86c-0.14-0.99-0.68-2.29-1.61-3.67L217.72,123.27z"/>
		<path class="st0" d="M229.9,85.32c-0.08-0.13-0.15-0.27-0.22-0.41c0.03,0.11,0.05,0.23,0.07,0.35L229.9,85.32z M219.44,102.09
			c-1.71-1.67-5.88-2.6-11.59,2.2C209.46,105.42,214.76,108.98,219.44,102.09z M218.15,98.56c-1.37-2.21-7.66-5.41-10.49-0.01
			C210.56,96.68,213.83,96.43,218.15,98.56z M218.86,92.9c-2.5-2.24-5.41-2.22-6.36-1.2c-0.95,1.03,1.35,1,2.61,0.43
			C216.1,91.4,218.21,92.59,218.86,92.9z M226.71,101.9c1.04-2.16,4.63-4.46,11.64-1.9C237.23,101.62,232.67,106.46,226.71,101.9z
			 M226.81,97.13c0.8-2.48,6.13-7.1,10.18-2.54C233.72,93.46,230.48,94.01,226.81,97.13z M224.81,92.06
			c1.79-2.84,4.59-3.63,5.78-2.9c1.19,0.73-1.03,1.34-2.39,1.13C227.05,89.86,225.35,91.59,224.81,92.06z M222.2,114.29
			c0,0-1.05,0.31-1.71-0.42c-0.66-0.73-0.83-1.64-0.45-2.21c0.37-0.57,0.97-0.76,0.97-0.76s-0.62,0.71-0.48,1.72
			S222.2,114.29,222.2,114.29z M227.53,113.54c0,0,1.1,0.01,1.53-0.88c0.43-0.89,0.34-1.81-0.17-2.25
			c-0.52-0.44-1.14-0.46-1.14-0.46s0.79,0.51,0.94,1.52C228.83,112.49,227.53,113.54,227.53,113.54z M214.38,123.27
			c-1.1-1.63-2.74-3.36-4.91-4.78c-4.01-2.62-4.59-6.72-3.17-8.71c1.42-1.99-0.37-4.33-1.33-5.98c-0.51-0.88-0.84-1.75-1.01-2.63
			c-0.8,0.14-1.8-0.34-2.85-1.93c-2.63-4.01,0.9-10.42,3.56-11.79c2.61-1.63,5.38-2.3,7.47-3.39c0.15,0.78,0.21,1.51,0.18,2.17
			c0.81-2.92,5.29-3.73,7.24-4.21c-0.05,0.16-0.11,0.32-0.17,0.48c0.41-0.17,1.5-0.33,2.01-0.28c-0.1-0.13-0.19-0.27-0.29-0.41
			c2.01-0.07,6.54-0.53,8.12,2.05c-0.21-0.64-0.35-1.35-0.42-2.14c2.31,0.47,5.09,0,8.12,1.2c2.93,0.58,8.1,5.78,6.67,10.35
			c-0.57,1.83-1.41,2.56-2.22,2.64c0.08,0.88,0.02,1.81-0.23,2.8c-0.47,1.86-1.54,4.59,0.37,6.12c1.91,1.52,2.49,5.62-0.64,9.24
			c-2.82,3.26-4,6.93-4,9.2l-2.75,0c0.25-1.23,0.16-2.35-0.01-2.88c-0.46-1.38-0.63-4.48-0.2-6.1c0.43-1.62-1.59-0.95-2.29-0.41
			c0.66-0.49,2.16-0.2,1.75,1.25c-0.4,1.45-0.26,4.21,0.16,5.45c0.16,0.48,0.24,1.54-0.03,2.69l-1.29,0
			c0.43-0.85,0.58-1.72,0.4-2.36c-0.47-1.63,0.01-4.28,0.17-5.7c0.17-1.42-1.35-1-1.73-0.25c-0.38,0.75-1.51,3.39-3.73,3.7
			l-3.57,0.5c-2.15,0.3-4.03-1.91-4.6-2.53c-0.57-0.62-2.15-0.59-1.6,0.72c0.55,1.32,1.74,3.74,1.73,5.43c0,0.16,0.02,0.33,0.06,0.5
			l-1-0.01c-0.03-0.22-0.05-0.4-0.04-0.55c0.06-1.3-0.56-4-1.35-5.28c-0.79-1.28,0.37-2.14,1.14-1.85
			c-0.83-0.33-2.77-0.25-1.91,1.19c0.86,1.44,1.55,4.46,1.49,5.92c-0.01,0.15,0.01,0.34,0.04,0.57L214.38,123.27z"/>
		<path class="st0" d="M177.87,80.4c0.82-2.52,3.26-4.05,5.79-3.81c-0.02-0.63,0.06-1.27,0.27-1.9c0.95-2.91,4.08-4.51,6.99-3.56
			c2.91,0.95,4.51,4.08,3.56,6.99c-0.19,0.6-0.48,1.14-0.84,1.61c2.53,1.15,3.85,4.05,2.97,6.76c-0.95,2.91-4.08,4.51-6.99,3.56
			c-1.65-0.54-2.88-1.78-3.46-3.28c-1.35,0.88-3.08,1.16-4.73,0.62C178.52,86.45,176.92,83.32,177.87,80.4z M174.74,79.31
			c1-3.08,3.56-5.21,6.53-5.81c1.51-4.48,6.36-6.93,10.87-5.46c4.5,1.46,6.98,6.26,5.6,10.77c2.09,2.23,2.93,5.49,1.92,8.6
			c-1.48,4.54-6.36,7.03-10.9,5.55c-1.55-0.5-2.85-1.4-3.85-2.54c-1.48,0.34-3.06,0.3-4.61-0.21
			C175.75,88.74,173.27,83.86,174.74,79.31z M176.12,80.02c0.9-2.77,3.28-4.64,5.99-5.02c0.06-0.36,0.15-0.72,0.26-1.08
			c1.28-3.95,5.52-6.11,9.47-4.82c3.95,1.28,6.11,5.52,4.82,9.47c-0.11,0.33-0.23,0.65-0.38,0.95c2.07,1.89,2.96,4.88,2.04,7.72
			c-1.26,3.87-5.41,5.98-9.28,4.73c-1.53-0.5-2.79-1.45-3.67-2.66c-1.42,0.46-3,0.49-4.53-0.01
			C176.98,88.04,174.86,83.89,176.12,80.02z"/>
		<polygon class="st1" points="279.17,33.57 275,41.49 268.1,42.98 272.97,35.05 		"/>
		<polygon class="st1" points="285.2,39.29 279.82,40.37 284.08,33.07 		"/>
		<polygon class="st1" points="262.89,44.17 256.37,45.58 261.73,37.59 267.74,36.23 		"/>
		<polygon class="st1" points="255.79,38.99 251.14,46.69 245.29,48.02 249.97,40.27 		"/>
		<polygon class="st1" points="239.43,49.23 237.86,43.18 238,42.9 243.99,41.6 		"/>
		<polygon class="st1" points="239.29,50.22 243.72,56.96 250.45,57.93 246.01,51.07 252,51.91 256.56,58.78 264.29,59.87 
			259.13,52.91 264.96,53.72 270.03,60.68 275.94,61.51 270.73,54.54 277.02,55.43 282.23,62.39 279.09,84.56 235.41,78.42 		"/>
		<path class="st1" d="M458.28,187.43l27.95-0.96c0,0,9.56,36.96,9.62,38.12c0.09,1.63-0.1,2.26-0.71,3.89
			c-0.44,1.17-1.74,2.51-1.74,2.51l-31.3,1.2l-7.84-35.51l2.25-0.07l7.68,33.36l28.49-1.08c0,0,1.7-1.62,1.59-3.88
			c-0.09-1.67-0.4-2.21-0.65-2.96l-27.49,0.89L458.28,187.43z"/>
		<path class="st1" d="M225.24,52.67c0-2.7,2.19-4.89,4.89-4.89s4.89,2.19,4.89,4.89c0,2.7-2.19,4.89-4.89,4.89
			S225.24,55.37,225.24,52.67z"/>
		<path class="st2" d="M349.28,72.86l-20.17,9.42c0,0,6.58,29.68,6.96,30.52c0.53,1.19,0.89,1.57,1.91,2.5
			c0.73,0.67,2.14,1.15,2.14,1.15l22.64-10.47l-7.27-28.03l-1.62,0.76l6.61,26.44l-20.61,9.53c0,0-1.79-0.53-2.53-2.18
			c-0.54-1.22-0.52-1.71-0.61-2.34l19.83-9.31L349.28,72.86z"/>
		<path class="st0" d="M249.98,109.18l4.47,1.54l0.77-2.23l1.97,0.68l-0.77,2.23l5.13,1.77l2.84-3.14l12.75,4.39l0.31,4.22
			l11.3,3.89l-7.69,22.34l-38.77-13.35L249.98,109.18z M256.18,123.81c1.78-5.16,7.4-7.9,12.56-6.12c5.16,1.78,7.9,7.4,6.12,12.55
			c-1.78,5.16-7.4,7.9-12.56,6.12C257.15,134.59,254.41,128.97,256.18,123.81z M258.65,124.66c1.31-3.8,5.45-5.82,9.24-4.51
			c3.8,1.31,5.82,5.45,4.51,9.24c-1.31,3.8-5.45,5.82-9.24,4.51C259.36,132.6,257.34,128.46,258.65,124.66z"/>
		<path class="st2" d="M371.3,197.04c-9.51,1.68-16.43,9.37-17.11,19.05c-0.55,7.79,3.74,13.69,10.09,14.13
			c5.46,0.38,10.09-3.55,10.47-8.89c0.25-3.56-0.92-6.1-3.8-8.1c-2.13-1.49-2.75-2.32-2.65-3.76c0.19-2.78,3.48-5.01,8.46-5.79
			L371.3,197.04z"/>
		<path class="st2" d="M394.1,198.64c-9.4,1.69-16.32,9.37-16.99,19.06c-0.54,7.79,3.63,13.68,10.09,14.13
			c5.46,0.38,10.09-3.55,10.47-8.89c0.25-3.56-1.03-6.11-3.8-8.1c-2.24-1.61-2.75-2.32-2.65-3.76c0.19-2.78,3.48-5.01,8.35-5.79
			L394.1,198.64z"/>
		<path class="st0" d="M346.61,195.85c1.03-0.09,2.67-0.23,3.23-0.26c0.85-0.04,2.75,0.86,2.82,3.14c0.07,2.28-1.01,4.1-1.43,4.89
			c-0.42,0.79-2.15,3.66-3.8,4.42c-1.65,0.76-3.37,0.13-3.82-0.62c-0.28-0.46-0.86-1.62-1.27-2.43c0.13-0.09,0.23-0.17,0.32-0.23
			c0.44-0.32,2-1.59,2.31-2.63c0.32-1.05-0.13-2.25-0.13-2.25s1.55-0.55,1.83-1.89C346.84,197.18,346.75,196.43,346.61,195.85z
			 M341.92,205.26c0.41,0.95,1.01,2.38,1.2,2.89c0.3,0.8,0.03,2.88-2.11,3.65c-2.15,0.77-4.21,0.31-5.09,0.15
			c-0.88-0.16-4.15-0.92-5.38-2.25c-1.23-1.33-1.16-3.16-0.59-3.82c0.34-0.39,1.2-1.25,1.84-1.89c0.16,0.12,0.29,0.21,0.39,0.29
			c0.44,0.32,2.13,1.41,3.22,1.39c1.09-0.02,1.98-1,1.98-1s1.12,1.49,2.49,1.34C340.71,205.92,341.41,205.58,341.92,205.26z
			 M331.39,203.68c-0.78,0.68-1.89,1.64-2.3,1.96c-0.67,0.53-2.72,0.92-4.12-0.88c-1.4-1.8-1.59-3.91-1.72-4.8
			c-0.13-0.89-0.41-4.23,0.48-5.81s2.65-2.08,3.45-1.74c0.48,0.2,1.59,0.77,2.4,1.19c-0.08,0.23-0.14,0.43-0.19,0.58
			c-0.17,0.51-0.68,2.46-0.32,3.49c0.36,1.03,1.52,1.56,1.52,1.56s-1.03,1.54-0.47,2.79C330.45,202.75,330.95,203.29,331.39,203.68z
			 M329.77,193.13c-0.89-0.53-2.17-1.31-2.62-1.6c-0.71-0.47-1.72-2.31-0.44-4.19c1.28-1.88,3.23-2.72,4.03-3.11
			c0.81-0.39,3.89-1.69,5.67-1.34c1.78,0.35,2.8,1.87,2.72,2.74c-0.05,0.55-0.23,1.88-0.36,2.78c-0.26-0.01-0.49,0-0.64,0
			c-0.54,0-2.55,0.11-3.42,0.77c-0.87,0.66-1.05,1.92-1.05,1.92s-1.75-0.5-2.76,0.42C330.35,192.01,330,192.61,329.77,193.13z
			 M339.23,188.43c0.23-1.01,0.6-2.58,0.75-3.12c0.23-0.82,1.66-2.35,3.85-1.71c2.19,0.64,3.58,2.23,4.21,2.87
			c0.62,0.65,2.81,3.18,3.03,4.98c0.22,1.8-0.92,3.24-1.77,3.44c-0.55,0.13-1.9,0.37-2.8,0.53c-0.06-0.2-0.12-0.36-0.16-0.49
			c-0.17-0.51-0.89-2.39-1.79-3.02c-0.9-0.62-2.2-0.5-2.2-0.5s-0.02-1.72-1.21-2.4C340.48,188.64,339.8,188.49,339.23,188.43z"/>
		<path class="st0" d="M337.44,201.64c0,0-0.05,1.54-0.09,2.02c-0.04,0.47-0.73,1.19-1.72,1.21c-0.99,0.02-2.52-0.97-2.91-1.25
			c-0.39-0.29-1.36-0.92-1.87-2.05c-0.51-1.13,0.2-2.02,0.63-2.2c0.42-0.18,2.09-0.82,2.09-0.82l-0.05-0.19c0,0-1.48,0.43-1.94,0.54
			c-0.46,0.11-1.36-0.33-1.68-1.26c-0.32-0.93,0.14-2.69,0.29-3.16c0.15-0.46,0.45-1.57,1.37-2.41c0.92-0.83,1.98-0.43,2.29-0.08
			c0.31,0.35,1.42,1.74,1.42,1.74l0.21-0.11c0,0-0.91-1.27-1.16-1.67c-0.24-0.41-0.11-1.39,0.68-1.99c0.79-0.6,2.6-0.7,3.09-0.7
			c0.49,0,1.64-0.05,2.71,0.56c1.08,0.62,1.02,1.75,0.79,2.15c-0.24,0.4-1.21,1.89-1.21,1.89l0.17,0.17c0,0,0.92-1.26,1.23-1.62
			c0.31-0.36,1.29-0.53,2.1,0.03c0.81,0.56,1.47,2.26,1.62,2.73c0.15,0.46,0.56,1.54,0.3,2.75c-0.25,1.21-1.35,1.51-1.8,1.41
			c-0.45-0.1-2.17-0.57-2.17-0.57l-0.11,0.22c0,0,1.48,0.49,1.92,0.67c0.44,0.19,0.91,1.06,0.62,2.01c-0.29,0.94-1.7,2.09-2.09,2.38
			c-0.39,0.29-1.29,1.01-2.52,1.14c-1.23,0.13-1.86-0.82-1.9-1.28c-0.04-0.46-0.13-2.24-0.13-2.24L337.44,201.64z M337.03,194.11
			c0.02,0.3,0.28,0.53,0.58,0.51c0.3-0.02,0.53-0.28,0.51-0.58c-0.02-0.3-0.28-0.53-0.58-0.51
			C337.24,193.55,337.01,193.81,337.03,194.11z M336,194.6c0.13,0.27,0.45,0.39,0.73,0.26c0.27-0.13,0.39-0.45,0.26-0.73
			c-0.13-0.27-0.45-0.39-0.73-0.26C335.99,194,335.87,194.33,336,194.6z M335.2,195.42c0.22,0.21,0.56,0.2,0.77-0.01
			c0.21-0.22,0.2-0.56-0.01-0.77c-0.22-0.21-0.56-0.2-0.77,0.01C334.97,194.87,334.98,195.22,335.2,195.42z M338.17,194.03
			c-0.09,0.29,0.07,0.59,0.36,0.68c0.29,0.09,0.59-0.07,0.68-0.36c0.09-0.29-0.07-0.59-0.36-0.68
			C338.56,193.58,338.26,193.74,338.17,194.03z M334.75,196.48c0.25,0.11,0.54,0.01,0.68-0.22c-0.09,0.23-0.15,0.48-0.17,0.72
			c-0.04-0.25-0.26-0.44-0.52-0.45c-0.3-0.01-0.55,0.22-0.56,0.53c-0.01,0.3,0.23,0.55,0.53,0.56c0.26,0.01,0.49-0.17,0.55-0.41
			c0,0.23,0.04,0.46,0.1,0.68c-0.13-0.2-0.39-0.3-0.63-0.22c-0.28,0.1-0.44,0.41-0.34,0.69c0.1,0.29,0.41,0.44,0.69,0.34
			c0.24-0.08,0.39-0.32,0.37-0.56c0.08,0.2,0.19,0.39,0.32,0.57c-0.2-0.13-0.46-0.12-0.65,0.04c-0.23,0.19-0.26,0.54-0.07,0.77
			c0.19,0.23,0.54,0.26,0.77,0.07c0.19-0.16,0.24-0.42,0.15-0.64c0.06,0.06,0.11,0.11,0.18,0.17c0.1,0.08,0.2,0.16,0.3,0.22
			c-0.22-0.04-0.45,0.07-0.57,0.27c-0.15,0.26-0.05,0.6,0.21,0.74c0.26,0.15,0.6,0.05,0.74-0.21c0.12-0.21,0.08-0.46-0.07-0.63
			c0.18,0.08,0.36,0.14,0.55,0.18c-0.21,0.05-0.39,0.23-0.42,0.46c-0.04,0.3,0.17,0.57,0.46,0.62c0.3,0.04,0.57-0.17,0.62-0.46
			c0.03-0.23-0.09-0.45-0.29-0.56c0.19,0.01,0.39,0,0.58-0.03c-0.19,0.12-0.28,0.35-0.23,0.58c0.07,0.29,0.36,0.48,0.65,0.41
			c0.29-0.07,0.48-0.36,0.41-0.65c-0.05-0.23-0.25-0.4-0.48-0.42c0.18-0.06,0.36-0.14,0.53-0.24c-0.13,0.18-0.14,0.43-0.01,0.62
			c0.17,0.25,0.51,0.32,0.76,0.15c0.25-0.17,0.32-0.51,0.15-0.76c-0.13-0.2-0.38-0.28-0.6-0.22c0.11-0.09,0.22-0.19,0.32-0.31
			c0.03-0.04,0.06-0.07,0.09-0.11c-0.06,0.22,0.02,0.45,0.21,0.59c0.25,0.17,0.59,0.11,0.76-0.13c0.17-0.25,0.11-0.59-0.13-0.76
			c-0.2-0.14-0.46-0.13-0.64,0.01c0.11-0.19,0.19-0.38,0.25-0.59c0,0.24,0.17,0.46,0.41,0.52c0.29,0.07,0.59-0.11,0.66-0.4
			c0.07-0.29-0.11-0.59-0.4-0.66c-0.25-0.06-0.51,0.06-0.62,0.29c0.04-0.23,0.05-0.47,0.02-0.71c0.08,0.24,0.32,0.39,0.58,0.36
			c0.3-0.04,0.51-0.31,0.48-0.61c-0.04-0.3-0.31-0.51-0.61-0.48c-0.27,0.03-0.47,0.25-0.48,0.51c-0.05-0.24-0.13-0.48-0.24-0.71
			c0.16,0.2,0.45,0.27,0.68,0.14c0.27-0.14,0.37-0.47,0.23-0.74c-0.14-0.27-0.47-0.37-0.74-0.23c-0.24,0.13-0.35,0.42-0.26,0.67
			c-0.12-0.2-0.28-0.39-0.46-0.56c0.22,0.1,0.48,0.06,0.65-0.13c0.2-0.23,0.17-0.57-0.05-0.77c-0.23-0.2-0.57-0.17-0.77,0.05
			c-0.17,0.2-0.18,0.48-0.03,0.68c-1.07-0.8-2.58-0.65-3.47,0.37c-0.16,0.19-0.29,0.39-0.39,0.61c0.07-0.26-0.06-0.53-0.31-0.64
			c-0.28-0.12-0.6,0.01-0.72,0.29C334.34,196.04,334.47,196.36,334.75,196.48z"/>
		<polygon class="st2" points="441.85,189.55 441.86,195.86 438.69,190.39 438.64,190.29 438.6,190.21 438.58,190.11 438.53,189.99 
			438.48,189.66 438.49,189.32 438.58,189.01 438.71,188.7 438.89,188.44 439.13,188.22 439.41,188.04 439.73,187.92 440.07,187.87 
			440.39,187.88 440.71,187.95 441,188.09 441.26,188.28 441.5,188.52 441.67,188.8 441.79,189.12 441.82,189.28 		"/>
		<polygon class="st2" points="442.09,189.55 442.08,195.86 445.25,190.39 445.3,190.29 445.34,190.21 445.36,190.11 445.41,189.99 
			445.45,189.66 445.45,189.32 445.36,189.01 445.23,188.7 445.05,188.44 444.81,188.22 444.52,188.04 444.2,187.92 443.87,187.87 
			443.54,187.88 443.23,187.95 442.93,188.09 442.66,188.28 442.44,188.52 442.26,188.8 442.14,189.12 442.11,189.28 		"/>
		<polygon class="st2" points="438.56,190.72 441.73,196.2 436.26,193.04 436.18,192.98 436.1,192.93 436.03,192.86 435.93,192.77 
			435.55,192.21 435.43,191.58 435.55,190.95 435.93,190.39 436.19,190.17 436.48,190.02 436.79,189.92 437.11,189.89 
			437.44,189.92 437.74,190.02 438.05,190.18 438.3,190.39 438.35,190.43 438.41,190.52 438.48,190.61 		"/>
		<polygon class="st2" points="445.36,190.72 442.21,196.2 447.68,193.04 447.76,192.98 447.85,192.93 447.91,192.86 448.01,192.77 
			448.39,192.21 448.51,191.58 448.39,190.95 448.01,190.39 447.75,190.17 447.46,190.02 447.14,189.92 446.82,189.89 
			446.49,189.92 446.18,190.02 445.89,190.18 445.63,190.39 445.59,190.43 445.52,190.52 445.45,190.61 		"/>
		<polygon class="st2" points="436.39,193.4 441.86,196.56 435.54,196.56 435.44,196.56 435.35,196.54 435.25,196.52 435.11,196.49 
			434.79,196.36 434.52,196.2 434.28,195.96 434.09,195.7 433.95,195.41 433.88,195.09 433.86,194.76 433.92,194.42 434.03,194.1 
			434.21,193.83 434.43,193.59 434.71,193.41 435,193.27 435.32,193.2 435.65,193.19 435.98,193.23 436.04,193.26 436.14,193.3 
			436.26,193.34 		"/>
		<polygon class="st2" points="447.55,193.4 442.08,196.56 448.4,196.56 448.5,196.56 448.59,196.54 448.69,196.52 448.83,196.49 
			449.15,196.36 449.42,196.2 449.66,195.96 449.85,195.7 449.99,195.41 450.06,195.09 450.08,194.76 450.02,194.42 449.9,194.1 
			449.72,193.83 449.49,193.59 449.23,193.41 448.94,193.27 448.62,193.2 448.29,193.19 447.94,193.23 447.89,193.26 447.79,193.3 
			447.68,193.34 		"/>
		<polygon class="st2" points="441.85,203.82 441.86,197.5 438.69,202.97 438.64,203.06 438.6,203.15 438.58,203.25 438.53,203.37 
			438.48,203.71 438.49,204.04 438.58,204.36 438.71,204.65 438.89,204.91 439.13,205.15 439.41,205.33 439.73,205.44 
			440.07,205.49 440.39,205.48 440.71,205.41 441,205.27 441.26,205.08 441.5,204.84 441.67,204.57 441.79,204.25 441.82,204.08 		
			"/>
		<polygon class="st2" points="442.09,203.82 442.08,197.5 445.25,202.97 445.3,203.06 445.34,203.15 445.36,203.25 445.41,203.37 
			445.45,203.71 445.45,204.04 445.36,204.36 445.23,204.65 445.05,204.91 444.81,205.15 444.52,205.33 444.2,205.44 443.87,205.49 
			443.54,205.48 443.23,205.41 442.93,205.27 442.66,205.08 442.44,204.84 442.26,204.57 442.14,204.25 442.11,204.08 		"/>
		<polygon class="st2" points="438.56,202.64 441.73,197.17 436.26,200.33 436.18,200.38 436.1,200.44 436.03,200.51 435.93,200.59 
			435.55,201.16 435.43,201.78 435.55,202.42 435.93,202.99 436.19,203.19 436.48,203.35 436.79,203.44 437.11,203.47 
			437.44,203.44 437.74,203.35 438.05,203.19 438.3,202.99 438.35,202.93 438.41,202.85 438.48,202.75 		"/>
		<polygon class="st2" points="445.36,202.64 442.21,197.17 447.68,200.33 447.76,200.38 447.85,200.44 447.91,200.51 
			448.01,200.59 448.39,201.16 448.51,201.78 448.39,202.42 448.01,202.99 447.75,203.19 447.46,203.35 447.14,203.44 
			446.82,203.47 446.49,203.44 446.18,203.35 445.89,203.19 445.63,202.99 445.59,202.93 445.52,202.85 445.45,202.75 		"/>
		<polygon class="st2" points="436.39,199.97 441.86,196.81 435.54,196.81 435.44,196.81 435.35,196.82 435.25,196.85 
			435.11,196.88 434.79,197 434.52,197.17 434.28,197.4 434.09,197.67 433.95,197.96 433.88,198.28 433.86,198.61 433.92,198.94 
			434.03,199.26 434.21,199.54 434.43,199.77 434.71,199.97 435,200.1 435.32,200.17 435.65,200.19 435.98,200.13 436.04,200.12 
			436.14,200.08 436.26,200.02 		"/>
		<polygon class="st2" points="447.55,199.97 442.08,196.81 448.4,196.81 448.5,196.81 448.59,196.82 448.69,196.85 448.83,196.88 
			449.15,197 449.42,197.17 449.66,197.4 449.85,197.67 449.99,197.96 450.06,198.28 450.08,198.61 450.02,198.94 449.9,199.26 
			449.72,199.54 449.49,199.77 449.23,199.97 448.94,200.1 448.62,200.17 448.29,200.19 447.94,200.13 447.89,200.12 447.79,200.08 
			447.68,200.02 		"/>
		<path class="st3" d="M435.45,224.02c-0.16-2.27,1.3-4.28,3.39-4.91c-0.22-0.49-0.36-1.03-0.4-1.6c-0.18-2.63,1.8-4.91,4.43-5.1
			c2.63-0.18,4.91,1.8,5.1,4.43c0.04,0.54-0.02,1.06-0.15,1.56c2.39,0.1,4.38,1.99,4.55,4.44c0.18,2.63-1.8,4.91-4.43,5.1
			c-1.49,0.1-2.87-0.49-3.82-1.5c-0.8,1.14-2.08,1.92-3.57,2.02C437.91,228.64,435.63,226.65,435.45,224.02z M432.6,224.16
			c-0.19-2.78,1.16-5.31,3.33-6.74c-0.24-4.07,2.84-7.57,6.91-7.86c4.06-0.28,7.59,2.75,7.93,6.79c2.38,1.1,4.11,3.44,4.3,6.24
			c0.29,4.1-2.8,7.66-6.91,7.94c-1.4,0.1-2.73-0.2-3.89-0.79c-1.07,0.75-2.35,1.22-3.74,1.32
			C436.45,231.35,432.89,228.26,432.6,224.16z M433.93,224.28c-0.17-2.5,1.12-4.76,3.16-5.93c-0.07-0.31-0.11-0.62-0.14-0.94
			c-0.25-3.56,2.44-6.65,6-6.9c3.56-0.25,6.65,2.44,6.9,6c0.02,0.3,0.02,0.59,0,0.88c2.26,0.84,3.93,2.94,4.11,5.5
			c0.24,3.49-2.39,6.52-5.88,6.76c-1.38,0.1-2.69-0.26-3.78-0.94c-0.99,0.82-2.23,1.36-3.61,1.45
			C437.2,230.4,434.17,227.77,433.93,224.28z"/>
		<g>
			<defs>
				<path id="SVGID_1_" d="M404.37,109.18l-34.91,11.34c2.45,7.54,7.99,32.66,30.83,35.49C417.1,140.3,406.82,116.72,404.37,109.18z
					"/>
			</defs>
			<clipPath id="SVGID_2_">
				<use xlink:href="#SVGID_1_"  style="overflow:visible;"/>
			</clipPath>
			<polygon class="st4" points="387.79,117.53 377.18,140.09 382.01,154.95 392.62,132.4 414.46,144.41 409.63,129.54 			"/>
		</g>
		<path class="st2" d="M405.08,107.07l-37.87,12.3l0.55,1.7c0.19,0.6,0.41,1.33,0.67,2.17c0.34,1.14,0.73,2.43,1.2,3.87
			c1.59,4.87,4.26,12.06,9.12,18.3c2.58,3.3,5.53,5.99,8.77,8c3.75,2.33,7.97,3.8,12.55,4.36l0.47,0.06l-0.5-1.54
			c-20.97-2.73-27.44-24.24-30.2-33.45c-0.26-0.86-0.48-1.61-0.69-2.23l-0.1-0.31l0.31-0.1l34.78-11.3L405.08,107.07z
			 M405.73,106.52l-1.36,2.66l-34.91,11.34c2.45,7.54,7.99,32.66,30.83,35.49l0.72,2.22l-0.98-0.12c-4.9-0.61-9.12-2.19-12.68-4.41
			c-3.56-2.21-6.47-5.03-8.85-8.08c-4.76-6.1-7.46-13.12-9.18-18.4c-0.82-2.52-1.42-4.66-1.87-6.04l-0.65-2.01L405.73,106.52z"/>
		<path class="st2" d="M401.08,157.93l-0.61-1.88c15.38-14.46,7.97-35.65,4.81-44.71c-0.29-0.82-0.54-1.54-0.74-2.15l1.15-2.25
			l0.53,1.64c0.19,0.59,0.44,1.31,0.73,2.14c0.39,1.13,0.84,2.4,1.31,3.84c1.11,3.43,2.66,8.67,3.21,14.56
			c0.6,6.42-0.15,12.26-2.22,17.35c-1.67,4.11-4.24,7.8-7.63,10.96L401.08,157.93z"/>
		<path class="st2" d="M405.66,107.36l-0.94,1.84c0.2,0.6,0.44,1.29,0.72,2.08c3.17,9.07,10.59,30.28-4.78,44.81l0.5,1.54l0.35-0.33
			c3.37-3.15,5.93-6.82,7.59-10.9c2.06-5.06,2.81-10.88,2.21-17.28c-0.55-5.87-2.09-11.1-3.2-14.52c-0.47-1.44-0.91-2.71-1.31-3.84
			c-0.29-0.83-0.54-1.55-0.74-2.15L405.66,107.36z M405.73,106.52l0.65,2.01c0.45,1.38,1.22,3.46,2.04,5.99
			c1.29,3.96,2.7,9.04,3.21,14.59c0.52,5.55,0.14,11.6-2.24,17.43c-1.58,3.88-4.06,7.65-7.67,11.02l-0.72,0.67l-0.72-2.22
			c16.81-15.71,6.53-39.29,4.08-46.83L405.73,106.52z"/>
		<g>
			<defs>
				<path id="SVGID_3_" d="M404.37,109.18l-34.91,11.34c2.45,7.54,7.99,32.66,30.83,35.49C417.1,140.3,406.82,116.72,404.37,109.18z
					"/>
			</defs>
			<clipPath id="SVGID_4_">
				<use xlink:href="#SVGID_3_"  style="overflow:visible;"/>
			</clipPath>
			<path class="st5" d="M386.79,114.58c9.56-3.22,18.95-5.43,27.28-7.9c-8.13,3.08-17.13,6.42-26.7,9.64
				c-9.56,3.22-18.95,5.43-27.28,7.9C368.23,121.14,377.23,117.8,386.79,114.58z"/>
			<path class="st5" d="M387.58,116.9c9.56-3.22,18.95-5.43,27.28-7.9c-7.84,2.97-16.49,6.18-25.67,9.3l-1.4-0.77l-0.69,1.47
				c-9.19,3.03-18.19,5.16-26.22,7.54C369.01,123.46,378.01,120.13,387.58,116.9z"/>
			<path class="st5" d="M389.92,118.71c9.01-2.94,17.82-5.04,25.7-7.37c-7.23,2.74-15.14,5.68-23.53,8.56L389.92,118.71z
				 M385.67,122.04c-8.43,2.67-16.64,4.65-24.03,6.83c7.68-2.91,16.13-6.05,25.1-9.1L385.67,122.04z"/>
			<path class="st5" d="M392.88,120.33c8.24-2.58,16.26-4.53,23.49-6.67c-6.61,2.51-13.8,5.18-21.39,7.82L392.88,120.33z
				 M384.25,125.04c-7.67,2.33-15.11,4.16-21.86,6.16c7.04-2.67,14.74-5.53,22.89-8.34L384.25,125.04z"/>
			<path class="st5" d="M395.87,121.98c7.45-2.25,14.68-4.03,21.26-5.98c-5.99,2.27-12.45,4.68-19.26,7.08L395.87,121.98z
				 M382.85,128.02c-6.9,2.03-13.58,3.7-19.7,5.52c6.4-2.43,13.34-5.01,20.67-7.57L382.85,128.02z"/>
			<path class="st5" d="M398.89,123.64c6.65-1.94,13.09-3.56,19-5.31c-5.37,2.03-11.11,4.18-17.15,6.33L398.89,123.64z
				 M381.46,130.98c-6.14,1.76-12.07,3.27-17.56,4.89c5.75-2.18,11.94-4.49,18.45-6.79L381.46,130.98z"/>
			<path class="st5" d="M401.93,125.31c5.84-1.66,11.48-3.1,16.72-4.65c-4.74,1.8-9.77,3.68-15.04,5.57L401.93,125.31z
				 M380.08,133.91c-5.38,1.51-10.57,2.85-15.42,4.29c5.09-1.93,10.53-3.96,16.22-6L380.08,133.91z"/>
			<path class="st5" d="M404.99,127c5.02-1.39,9.87-2.66,14.41-4.01c-4.11,1.56-8.43,3.18-12.94,4.82L404.99,127z M392.91,132.56
				l-0.21,0.07l-0.24,0.08l0.15-0.31L392.91,132.56z M378.71,136.83c-4.62,1.27-9.09,2.45-13.29,3.69c4.42-1.68,9.11-3.43,13.99-5.2
				L378.71,136.83z"/>
			<path class="st5" d="M393.12,133.97l1.47-0.49l2.17,1.19l-3.05,1.04c-1.05,0.35-2.09,0.69-3.13,1.02l1.07-2.27L393.12,133.97z
				 M409.06,129.23c3.93-1.07,7.74-2.09,11.35-3.16c-3.39,1.29-6.94,2.62-10.62,3.97l-0.16-0.49L409.06,129.23z M377.33,140.57
				c-3.78,1.03-7.43,2.01-10.91,3.04c3.52-1.34,7.21-2.72,11.04-4.12l-0.28,0.6L377.33,140.57z"/>
			<path class="st5" d="M393.88,136.32c1.23-0.41,2.46-0.81,3.69-1.2l2.11,1.16c-1.72,0.6-3.45,1.19-5.21,1.78
				c-1.78,0.6-3.56,1.17-5.32,1.7l1.03-2.19L393.88,136.32z M410.25,131.47c3.78-1.03,7.44-2.02,10.92-3.04
				c-3.39,1.29-6.94,2.62-10.62,3.97L410.25,131.47z M378.1,142.92c-3.78,1.03-7.43,2.01-10.91,3.04c3.39-1.29,6.94-2.62,10.61-3.96
				L378.1,142.92z"/>
			<path class="st5" d="M394.65,138.67c1.99-0.67,3.97-1.3,5.94-1.89l2,1.1c-2.41,0.85-4.86,1.7-7.35,2.53
				c-2.52,0.85-5.02,1.63-7.5,2.36l0.97-2.06C390.66,140.03,392.64,139.34,394.65,138.67z M411.02,133.82
				c3.78-1.03,7.44-2.01,10.92-3.04c-3.39,1.29-6.94,2.62-10.62,3.97L411.02,133.82z M378.86,145.27
				c-3.78,1.03-7.43,2.01-10.91,3.04c3.39-1.29,6.94-2.62,10.61-3.96L378.86,145.27z"/>
			<path class="st5" d="M395.41,141.02c2.76-0.93,5.51-1.78,8.22-2.57l1.86,1.02c-3.09,1.1-6.26,2.2-9.49,3.29
				c-3.25,1.1-6.49,2.07-9.67,2.99l0.9-1.9C389.9,142.9,392.63,141.96,395.41,141.02z M411.78,136.17
				c3.78-1.03,7.44-2.02,10.92-3.04c-3.39,1.29-6.94,2.62-10.62,3.97L411.78,136.17z M379.62,147.62
				c-3.78,1.03-7.43,2.01-10.91,3.04c3.39-1.29,6.94-2.62,10.61-3.96L379.62,147.62z"/>
			<path class="st5" d="M396.17,143.37c3.55-1.19,7.07-2.25,10.52-3.23l1.68,0.92c-3.76,1.35-7.64,2.71-11.61,4.05
				c-3.99,1.35-7.95,2.51-11.82,3.6l0.81-1.72C389.14,145.79,392.62,144.57,396.17,143.37z M412.54,138.52
				c3.78-1.03,7.44-2.01,10.92-3.04c-3.39,1.29-6.94,2.62-10.62,3.97L412.54,138.52z M380.39,149.97
				c-3.78,1.03-7.43,2.01-10.91,3.04c3.39-1.29,6.94-2.62,10.61-3.96L380.39,149.97z"/>
			<path class="st5" d="M396.94,145.72c4.35-1.46,8.66-2.72,12.85-3.88l1.47,0.81c-4.42,1.6-9.01,3.23-13.73,4.82
				c-4.74,1.6-9.43,2.94-13.97,4.2l0.71-1.51C388.35,148.68,392.59,147.19,396.94,145.72z M413.31,140.87
				c3.78-1.03,7.44-2.02,10.92-3.04c-3.39,1.29-6.94,2.62-10.62,3.97L413.31,140.87z M381.15,152.32
				c-3.78,1.03-7.43,2.01-10.91,3.04c3.39-1.29,6.94-2.62,10.61-3.96L381.15,152.32z"/>
			<path class="st5" d="M397.7,148.07c5.16-1.74,10.27-3.18,15.18-4.53l1.25,0.69l0.24-0.09l-0.3-0.92
				c3.78-1.03,7.44-2.01,10.92-3.04c-3.39,1.29-6.94,2.62-10.62,3.97l-0.24,0.09c-5.06,1.85-10.36,3.74-15.84,5.59
				c-5.49,1.85-10.91,3.36-16.12,4.78l-0.25,0.07c-3.78,1.03-7.43,2.01-10.91,3.04c3.39-1.29,6.94-2.62,10.61-3.96l0.3,0.92
				l0.25-0.07l0.6-1.27C387.55,151.58,392.55,149.81,397.7,148.07z"/>
			<path class="st5" d="M398.47,150.43c9.56-3.22,18.95-5.43,27.28-7.9c-8.13,3.08-17.13,6.42-26.7,9.64
				c-9.56,3.22-18.95,5.43-27.28,7.9C379.9,156.99,388.9,153.65,398.47,150.43z"/>
			<path class="st5" d="M399.23,152.78c9.56-3.22,18.95-5.43,27.28-7.9c-8.13,3.08-17.13,6.42-26.7,9.64
				c-9.56,3.22-18.95,5.43-27.28,7.9C380.67,159.34,389.67,156,399.23,152.78z"/>
		</g>
		<path class="st6" d="M404.37,109.18l-34.91,11.34c2.45,7.54,7.99,32.66,30.83,35.49C417.1,140.3,406.82,116.72,404.37,109.18z"/>
		<path class="st3" d="M397.46,128.93l0.71-0.22c-0.02,0.16-0.01,0.34,0.04,0.51c0.2,0.62,0.64,0.84,0.64,0.84l-0.29-0.91
			c-0.05-0.19-0.05-0.39-0.01-0.56l0.98-0.31c-0.03,0.17-0.02,0.36,0.04,0.54c0.2,0.62,0.64,0.84,0.64,0.84l-0.3-0.91
			c-0.06-0.2-0.05-0.41,0-0.58l0.96-0.31c-0.03,0.17-0.02,0.36,0.04,0.54c0.2,0.62,0.64,0.84,0.64,0.84l-0.29-0.91
			c-0.06-0.2-0.05-0.41,0-0.58l1.29-0.41c0.06-0.05,0.18-0.09,0.24-0.11c0.28-0.08,0.51,0.11,0.62,0.42l0.03,0.1l1.36,4.18
			l-0.84,0.28c-0.01,0.11,0,0.22,0.02,0.33l-0.04,0.08l-1.36,0.44c-0.05-0.06-0.12-0.17-0.18-0.35c-0.08-0.23,0-0.47,0.21-0.53
			c0.17-0.06,0.36,0.03,0.47,0.19l-0.02-0.1c-0.09-0.28-0.37-0.44-0.63-0.36c-0.08,0.03-0.14,0.07-0.2,0.13l-0.03-0.13
			c-0.07-0.21-0.21-0.37-0.39-0.46c-0.09,0.17-0.11,0.39-0.04,0.6l0.05,0.12c-0.08-0.02-0.16-0.02-0.24,0.01
			c-0.25,0.08-0.38,0.38-0.29,0.66l0.04,0.09c-0.01-0.19,0.09-0.37,0.26-0.43c0.21-0.07,0.41,0.08,0.48,0.31
			c0.06,0.18,0.06,0.31,0.06,0.39l-1.72,0.56c-0.05-0.06-0.12-0.17-0.18-0.35c-0.08-0.23,0-0.47,0.21-0.53
			c0.17-0.06,0.36,0.03,0.47,0.19l-0.02-0.1c-0.09-0.28-0.37-0.44-0.63-0.36c-0.08,0.03-0.14,0.07-0.2,0.13l-0.03-0.13
			c-0.07-0.21-0.21-0.37-0.39-0.46c-0.09,0.17-0.11,0.39-0.04,0.6l0.05,0.12c-0.08-0.02-0.16-0.02-0.24,0.01
			c-0.25,0.08-0.38,0.38-0.29,0.66l0.04,0.09c-0.01-0.19,0.09-0.37,0.26-0.43c0.21-0.07,0.41,0.08,0.48,0.31
			c0.06,0.18,0.06,0.31,0.06,0.39l-1.61,0.52l-1.4-4.32c-0.09-0.39-0.02-0.82,0.22-1.03c0.06-0.05,0.18-0.09,0.24-0.11
			L397.46,128.93z M403.27,127.77l-0.03-0.09c-0.05-0.13-0.12-0.22-0.18-0.27c-0.06-0.05-0.11-0.05-0.15-0.04
			c-0.21,0.14-0.3,0.54-0.21,0.88l1.15,3.55c0.05-0.12,0.12-0.23,0.21-0.31c0.05-0.04,0.1-0.07,0.15-0.09
			c0.08-0.02,0.16-0.03,0.23-0.01L403.27,127.77z"/>
		<path class="st3" d="M387.36,124.63l0.71-0.22c-0.02,0.16-0.01,0.34,0.04,0.51c0.2,0.62,0.64,0.84,0.64,0.84l-0.29-0.91
			c-0.05-0.19-0.05-0.39-0.01-0.56l0.98-0.31c-0.03,0.17-0.02,0.36,0.04,0.54c0.2,0.62,0.64,0.84,0.64,0.84l-0.3-0.91
			c-0.06-0.2-0.05-0.41,0-0.58l0.96-0.32c-0.03,0.17-0.02,0.36,0.04,0.54c0.2,0.62,0.64,0.84,0.64,0.84l-0.29-0.91
			c-0.06-0.2-0.05-0.41,0-0.58l1.29-0.41c0.06-0.05,0.18-0.09,0.24-0.11c0.28-0.08,0.51,0.11,0.62,0.42l0.03,0.1l1.36,4.18
			l-0.84,0.28c-0.01,0.11,0,0.22,0.02,0.33l-0.04,0.08l-1.36,0.44c-0.05-0.06-0.12-0.17-0.18-0.35c-0.08-0.23,0-0.47,0.21-0.53
			c0.17-0.06,0.36,0.03,0.47,0.19l-0.02-0.1c-0.09-0.28-0.37-0.44-0.63-0.36c-0.08,0.03-0.14,0.07-0.2,0.13l-0.03-0.13
			c-0.07-0.21-0.21-0.37-0.39-0.46c-0.09,0.17-0.11,0.39-0.04,0.6l0.05,0.12c-0.08-0.02-0.16-0.02-0.24,0.01
			c-0.25,0.08-0.39,0.38-0.29,0.66l0.04,0.09c-0.01-0.19,0.09-0.37,0.26-0.43c0.21-0.07,0.41,0.08,0.48,0.31
			c0.06,0.18,0.06,0.31,0.06,0.39l-1.72,0.56c-0.05-0.06-0.12-0.17-0.18-0.35c-0.08-0.23,0-0.47,0.21-0.53
			c0.17-0.06,0.36,0.03,0.47,0.19l-0.02-0.1c-0.09-0.28-0.37-0.44-0.63-0.36c-0.08,0.03-0.14,0.07-0.2,0.13l-0.03-0.13
			c-0.07-0.21-0.21-0.37-0.39-0.46c-0.09,0.17-0.11,0.39-0.04,0.6l0.05,0.12c-0.08-0.02-0.16-0.02-0.24,0.01
			c-0.25,0.08-0.38,0.38-0.29,0.66l0.04,0.09c-0.01-0.19,0.09-0.37,0.26-0.43c0.21-0.07,0.41,0.08,0.48,0.31
			c0.06,0.18,0.06,0.31,0.06,0.39l-1.61,0.52l-1.4-4.32c-0.09-0.39-0.02-0.82,0.22-1.03c0.06-0.05,0.18-0.09,0.24-0.11
			L387.36,124.63z M393.17,123.47l-0.03-0.09c-0.05-0.13-0.12-0.22-0.18-0.27c-0.06-0.05-0.11-0.05-0.15-0.04
			c-0.21,0.14-0.3,0.54-0.21,0.88l1.15,3.55c0.05-0.12,0.12-0.23,0.21-0.31c0.05-0.04,0.1-0.07,0.15-0.09
			c0.08-0.03,0.16-0.03,0.23-0.01L393.17,123.47z"/>
		<path class="st0" d="M363.73,52.41c-0.34-0.37-0.91-0.07-1.26,0.13c-0.58,0.32-0.69,1.36-1.41,1.4c-0.55-0.28-1.13-0.32-1.57,0.01
			c-0.76,1.03-1.61,2.44-2.2,3.6c-0.04,0.27,0.01,0.5,0.16,0.69c1.15,0.91-1.16,1.86-0.45,3.03c0.13,0.77,1.12,1.08,1.77,1.56
			L363.73,52.41z M361.12,64.14l4.74-10.25c-0.27-0.4-0.62-0.36-0.89-0.76c-1.64,3.42-3.3,6.96-4.94,10.43
			C360.16,63.86,360.78,64.37,361.12,64.14z M363.28,65.67l4.67-10.35c-0.06-0.38-0.64-0.52-0.96-0.81
			c-1.53,3.43-3.19,7.13-4.79,10.54C362.33,65.4,362.98,65.89,363.28,65.67z M406.72,96.18c4.86-3.21,8.33-9.49,7.85-15.31
			c-0.43-8.08-5.85-14.58-13.23-16.84c-0.64-0.25-1.42-0.28-1.96-0.69c-3.64-0.56-7.43,0.08-11.08,0.92c-1.82,0.04-3.45-1.36-5-2.36
			c-2.53-1.62-5.35-4.11-8.3-5.3c-1.12-0.28-2.72-0.03-3.65,0.73c-0.77-0.17-1.4-0.99-2.11-1.32c-1.79,3.41-3.34,7.05-5.04,10.56
			c0.9,0.45,0.2,1.38,0.44,2.1c0.17,1.25,1.03,2.24,1.86,2.99l9.46,6.48c2.73,2.28,1.25,6.34,2.92,9.21
			c2.05,5.62,7.66,10.27,13.57,11.49C397.01,99.98,402.8,98.87,406.72,96.18z M407.58,80.71l-6.18,2.59l2.96,6.01l-6.2-2.54
			L396,93.12l-2.59-6.18l-6.01,2.96l2.54-6.2l-6.35-2.15l6.18-2.59l-2.96-6.01l6.2,2.54l2.15-6.35l2.59,6.18l6.01-2.96l-2.54,6.2
			L407.58,80.71z"/>
		
			<ellipse transform="matrix(0.3827 -0.9239 0.9239 0.3827 -137.1173 240.4501)" class="st1" cx="111.37" cy="222.83" rx="12.62" ry="12.62"/>
		<path class="st2" d="M381.78,134l0.71-0.22c-0.02,0.16-0.01,0.34,0.04,0.51c0.2,0.62,0.64,0.84,0.64,0.84l-0.29-0.91
			c-0.05-0.19-0.05-0.39-0.01-0.56l0.98-0.31c-0.03,0.17-0.02,0.36,0.04,0.54c0.2,0.62,0.64,0.84,0.64,0.84l-0.3-0.91
			c-0.06-0.2-0.05-0.41,0-0.58l0.96-0.32c-0.03,0.17-0.02,0.36,0.04,0.54c0.2,0.62,0.64,0.84,0.64,0.84l-0.29-0.91
			c-0.06-0.2-0.05-0.41,0-0.58l1.29-0.41c0.06-0.05,0.18-0.09,0.24-0.11c0.28-0.08,0.51,0.11,0.62,0.42l0.03,0.1l1.36,4.18
			l-0.84,0.28c-0.01,0.11,0,0.22,0.02,0.33l-0.04,0.08l-1.36,0.44c-0.05-0.06-0.12-0.17-0.18-0.35c-0.08-0.23,0-0.47,0.21-0.53
			c0.17-0.06,0.36,0.03,0.47,0.19l-0.02-0.1c-0.09-0.28-0.37-0.44-0.63-0.36c-0.08,0.03-0.14,0.07-0.2,0.13l-0.03-0.13
			c-0.07-0.21-0.21-0.37-0.38-0.46c-0.09,0.17-0.11,0.39-0.04,0.6l0.05,0.12c-0.08-0.02-0.16-0.02-0.24,0.01
			c-0.25,0.08-0.39,0.38-0.29,0.66l0.04,0.09c-0.01-0.19,0.09-0.37,0.26-0.43c0.21-0.07,0.41,0.08,0.48,0.31
			c0.06,0.18,0.06,0.31,0.06,0.39l-1.72,0.56c-0.05-0.06-0.12-0.18-0.18-0.35c-0.08-0.23,0-0.47,0.21-0.54
			c0.17-0.06,0.36,0.03,0.47,0.19l-0.02-0.1c-0.09-0.28-0.37-0.44-0.63-0.36c-0.08,0.03-0.14,0.07-0.2,0.13l-0.03-0.13
			c-0.07-0.21-0.21-0.37-0.38-0.46c-0.09,0.17-0.11,0.39-0.04,0.6l0.05,0.12c-0.08-0.02-0.16-0.02-0.24,0.01
			c-0.25,0.08-0.38,0.38-0.29,0.66l0.04,0.09c-0.01-0.19,0.09-0.37,0.26-0.43c0.21-0.07,0.41,0.08,0.48,0.31
			c0.06,0.18,0.06,0.31,0.06,0.39l-1.61,0.52l-1.4-4.32c-0.09-0.39-0.02-0.83,0.22-1.03c0.06-0.05,0.18-0.09,0.24-0.11L381.78,134z
			 M387.6,132.84l-0.03-0.09c-0.05-0.13-0.12-0.22-0.18-0.27c-0.06-0.05-0.11-0.05-0.15-0.04c-0.21,0.14-0.3,0.54-0.21,0.88
			l1.15,3.55c0.05-0.12,0.12-0.23,0.21-0.31c0.05-0.04,0.1-0.07,0.15-0.09c0.08-0.02,0.16-0.03,0.23-0.01L387.6,132.84z"/>
		<path class="st1" d="M101.93,265.28l12.72-20.9h-4.16c-0.39,0-0.73,0.14-0.97,0.39c-0.24,0.24-0.44,0.48-0.63,0.73l-7.89,13.5
			c-0.34,0.53-0.58,1.06-0.82,1.55c-0.19,0.48-0.39,1.02-0.58,1.5c-0.15-0.48-0.34-0.97-0.58-1.5c-0.19-0.48-0.48-1.02-0.82-1.6
			l-7.93-13.45c-0.14-0.29-0.39-0.58-0.63-0.77c-0.24-0.19-0.53-0.34-0.97-0.34h-4.11l12.72,20.9v13.79h4.65V265.28z"/>
		<path class="st0" d="M142.16,261.75c0,2.13-0.29,4.02-0.87,5.71c-0.58,1.69-1.4,3.15-2.47,4.31c-1.06,1.16-2.37,2.03-3.87,2.66
			c-1.5,0.63-3.19,0.97-5.08,0.97c-1.84,0-3.53-0.34-5.08-0.97c-1.5-0.63-2.81-1.5-3.87-2.66c-1.06-1.16-1.89-2.61-2.47-4.31
			c-0.58-1.69-0.87-3.58-0.87-5.71c0-2.13,0.29-4.06,0.87-5.76c0.58-1.69,1.4-3.1,2.47-4.26c1.06-1.16,2.37-2.08,3.92-2.71
			c1.5-0.63,3.19-0.97,5.03-0.97c1.89,0,3.58,0.34,5.08,0.97c1.5,0.63,2.81,1.55,3.87,2.71c1.06,1.16,1.89,2.61,2.47,4.31
			C141.87,257.73,142.16,259.62,142.16,261.75z M147,261.75c0-2.61-0.44-4.98-1.26-7.16c-0.82-2.18-1.98-4.02-3.48-5.61
			c-1.5-1.55-3.29-2.81-5.42-3.68c-2.08-0.82-4.4-1.31-6.97-1.31c-2.56,0-4.89,0.48-6.97,1.36c-2.08,0.87-3.92,2.08-5.42,3.63
			c-1.5,1.6-2.66,3.44-3.48,5.61c-0.82,2.18-1.21,4.55-1.21,7.16c0,2.61,0.43,4.98,1.26,7.16c0.82,2.18,1.98,4.02,3.48,5.61
			c1.5,1.55,3.29,2.76,5.37,3.63c2.08,0.87,4.4,1.31,6.97,1.31c2.56,0,4.89-0.44,6.97-1.31c2.13-0.87,3.92-2.08,5.42-3.68
			c1.5-1.55,2.66-3.39,3.48-5.56C146.56,266.73,147,264.36,147,261.75z"/>
		<path class="st1" d="M184.88,263.35v-18.97h-4.69v34.69h4.69v-9.84l4.6-5.12l12.19,13.99c0.15,0.15,0.24,0.24,0.39,0.39
			c0.15,0.14,0.29,0.24,0.44,0.34c0.15,0.05,0.34,0.15,0.53,0.15c0.19,0.1,0.48,0.1,0.77,0.1h4.06l-15.35-18.47l14.43-16.22h-4.02
			c-0.48,0-0.92,0.1-1.26,0.29c-0.34,0.15-0.68,0.44-1.02,0.87L184.88,263.35z"/>
		<path class="st0" d="M155.55,264.41V248.1h6.4c2.66,0,4.19,1.03,5.55,2.09c1.33,1.05,2.7,3.24,2.7,5.93
			c0,2.29-0.99,4.54-2.67,6.15c-0.93,0.89-3.1,2.19-5.62,2.19L155.55,264.41z M155.55,267.85h3.53c0.63,0,1.11,0.1,1.45,0.24
			c0.34,0.19,0.59,0.52,0.92,0.87c1.92,2.02,7.78,7.88,9,9.14c0.51,0.52,1.02,0.97,1.89,0.97h4.16l-10.16-10.54
			c-0.44-0.63-0.97-1.11-1.55-1.45c1.88-0.36,4.68-1.52,6.06-2.95c1-1.03,2.19-2.48,2.57-3.55c0.93-1.87,1.22-4.81,0.93-6.39
			c-0.53-2.98-2.03-5.65-4.61-7.61c-2.39-1.81-5.04-2.2-7.96-2.2h-10.93v34.69h4.69V267.85z"/>
		<polygon class="st0" points="119.94,287.92 118.79,287.15 91.85,291.39 91.85,297.93 105.13,301.2 105.13,372.21 89.54,377.21 
			89.73,383.95 135.92,383.95 135.92,377.21 120.14,372.98 		"/>
		<path class="st0" d="M293.49,299.08c18.09,0,20.98,14.24,20.98,24.25l-46.96,4.43C267.7,316.4,272.32,299.08,293.49,299.08z
			 M333.32,330.65c-0.38-18.67-6.16-42.72-37.72-42.72c-34.64,0-44.84,26.56-44.84,50.03c0,30.21,12.32,48.5,43.3,48.5
			c12.51,0,25.59-4.81,34.83-11.74l-3.08-6.35c-11.55,5.39-21.74,6.35-27.33,6.35c-24.82,0-31.56-12.89-31.56-39.26l64.47-3.08
			L333.32,330.65z"/>
		<path class="st0" d="M401.52,364.13c-8.85,5.39-20.21,9.81-28.87,9.81c-9.04,0-13.86-5.96-13.86-15.01
			c0-6.73,3.46-19.44,42.72-21.17V364.13z M401.52,371.83c0.77,14.05,7.51,14.43,12.12,14.43c5.39,0,13.66-1.54,18.48-4.62v-5.97
			l-15.59-3.27v-54.27c0-23.48-10.58-30.21-30.4-30.21c-12.89,0-25.4,3.27-37.53,10l2.7,7.89c15.01-4.43,25.98-5,31.17-5
			c13.28,0,19.05,4.62,19.05,18.09v11.35c-25.79,0.77-40.22,4.04-48.3,9.24c-9.62,5.97-10.2,15.59-10.2,20.59
			c0,16.93,11.93,26.36,27.13,26.36c5.97,0,11.55-0.96,17.9-2.5l13.08-12.32L401.52,371.83z"/>
		<path class="st0" d="M216.94,364.07c-7.68,4.6-17.46,9.02-28.01,9.02c-18.42,0-24.75-16.69-24.75-35.49
			c0-16.69,5.76-37.6,27.44-37.6c8.44,0,18.23,1.53,25.33,4.8V364.07z M217.13,371.36l2.69,13.82l1.15,0.77l24.37-3.45v-6.52
			l-13.43-3.26V223.34l-1.34-0.96l-27.05,3.45v6.52l13.43,3.45l0.19,57.47c-7.67-4.03-18.42-5.56-25.13-5.56
			c-31.08,0-43.36,23.41-43.36,51.42c0,28.78,14.01,47.2,37.6,47.2c5.95,0,10.93-0.96,17.27-2.49l13.24-12.47H217.13z"/>
		<path class="st1" d="M475.12,287.73c-25.6,0-32.91,13.28-32.91,25.21c0,15.97,14.63,20.98,30.02,27.9
			c12.89,5.77,22.9,8.47,22.9,20.59c0,9.04-6.73,15.2-22.32,15.2c-4.81,0-13.47-1.54-19.44-5.97l-9.43-18.86l-4.81,1.16l1.54,26.56
			c7.89,4.23,19.82,6.93,31.37,6.93c26.17,0,38.68-12.32,38.68-28.29c0-17.13-11.16-22.52-28.1-29.44
			c-15.97-6.54-24.83-9.62-24.83-18.28c0-9.04,7.51-12.7,15.78-12.7c4.04,0,11.74,0.77,17.9,5l7.7,16.93l5.58-0.58v-24.82
			C494.17,289.08,482.24,287.73,475.12,287.73z"/>
		<polygon class="st1" points="266.09,244.38 244.71,244.38 244.71,279.07 249.45,279.07 249.45,264.79 263.67,264.79 
			263.67,260.97 249.4,260.97 249.4,248.2 266.09,248.2 		"/>
		<polygon class="st1" points="291.53,244.38 270.15,244.38 270.15,279.07 291.53,279.07 291.53,275.25 274.84,275.25 
			274.84,264.71 288.34,264.71 288.34,261.04 274.84,261.04 274.84,248.2 291.53,248.2 		"/>
		<path class="st1" d="M314.06,249.8l1.16-2.23c-1.21-1.16-2.61-2.03-4.21-2.66c-1.6-0.58-3.34-0.92-5.32-0.92
			c-1.69,0-3.24,0.29-4.55,0.82c-1.35,0.53-2.47,1.26-3.39,2.13c-0.87,0.87-1.55,1.89-2.03,3.05c-0.48,1.16-0.73,2.32-0.73,3.58
			c0,1.5,0.24,2.81,0.73,3.82c0.48,1.06,1.11,1.93,1.89,2.61c0.77,0.68,1.64,1.26,2.61,1.69c1.02,0.43,2.03,0.82,3.05,1.16
			c1.06,0.34,2.08,0.63,3.05,0.97c1.02,0.29,1.89,0.68,2.66,1.16c0.77,0.44,1.4,0.97,1.89,1.65c0.48,0.68,0.73,1.55,0.73,2.61
			c0,0.92-0.19,1.79-0.53,2.57c-0.29,0.77-0.77,1.45-1.35,1.98c-0.63,0.58-1.35,1.02-2.23,1.31c-0.87,0.29-1.84,0.48-3,0.48
			c-1.31,0-2.47-0.19-3.39-0.58c-0.92-0.34-1.69-0.77-2.37-1.21c-0.63-0.44-1.21-0.82-1.64-1.16c-0.44-0.39-0.77-0.58-1.16-0.58
			c-0.19,0-0.39,0.1-0.58,0.19c-0.19,0.14-0.39,0.29-0.48,0.48l-1.35,2.23c1.31,1.35,2.9,2.47,4.74,3.29
			c1.84,0.82,3.87,1.21,6.14,1.21c1.84,0,3.43-0.29,4.89-0.87c1.45-0.53,2.66-1.31,3.68-2.32c0.97-0.97,1.74-2.13,2.27-3.44
			c0.48-1.35,0.77-2.76,0.77-4.31c0-1.4-0.24-2.61-0.73-3.63c-0.48-0.97-1.11-1.79-1.89-2.47c-0.77-0.68-1.69-1.26-2.66-1.69
			c-1.02-0.44-2.03-0.82-3.05-1.21c-1.06-0.34-2.08-0.68-3.05-1.02c-1.02-0.34-1.89-0.73-2.66-1.16c-0.77-0.43-1.4-1.02-1.89-1.64
			c-0.48-0.63-0.73-1.4-0.73-2.42c0-0.73,0.15-1.45,0.44-2.08c0.24-0.68,0.68-1.26,1.21-1.74c0.53-0.48,1.21-0.82,2.03-1.11
			c0.77-0.29,1.69-0.44,2.76-0.44c1.11,0,2.08,0.14,2.85,0.44c0.77,0.24,1.45,0.53,1.98,0.87c0.58,0.34,1.02,0.63,1.4,0.92
			c0.34,0.29,0.68,0.44,0.97,0.44c0.24,0,0.43-0.1,0.63-0.19C313.77,250.23,313.92,250.09,314.06,249.8z"/>
		<polygon class="st1" points="343.6,244.38 316.46,244.38 316.46,248.35 327.73,248.35 327.73,279.07 332.42,279.07 332.42,248.35 
			343.6,248.35 		"/>
		<rect x="347.46" y="244.38" class="st1" width="4.69" height="34.69"/>
		<path class="st1" d="M355.48,244.38l14.13,34.69h4.26l14.13-34.69h-3.82c-0.39,0-0.73,0.14-1.02,0.39
			c-0.24,0.24-0.44,0.48-0.58,0.77l-9.72,24.43c-0.24,0.53-0.44,1.16-0.58,1.79c-0.19,0.63-0.34,1.31-0.48,2.03
			c-0.19-0.73-0.34-1.4-0.53-2.03c-0.19-0.63-0.39-1.26-0.63-1.79l-9.82-24.48c-0.1-0.29-0.29-0.58-0.58-0.77
			c-0.24-0.19-0.58-0.34-1.02-0.34H355.48z"/>
		<path class="st0" d="M392.23,267.76l6.1-15.65c0.14-0.43,0.29-0.92,0.48-1.45c0.14-0.58,0.34-1.16,0.53-1.84
			c0.34,1.31,0.68,2.37,1.02,3.29l6.12,15.65H392.23z M415.6,279.07l-13.89-34.69h-4.79l-13.84,34.69h3.63
			c0.39,0,0.73-0.1,1.02-0.34c0.29-0.24,0.48-0.48,0.58-0.77l2.65-6.86h16.78l2.63,6.86c0.1,0.34,0.29,0.58,0.58,0.82
			c0.24,0.19,0.58,0.29,1.02,0.29H415.6z"/>
		<polygon class="st1" points="422.7,275.1 422.7,244.38 418,244.38 418,279.07 437.7,279.07 437.7,275.1 		"/>
		<path class="st0" d="M477.04,261.75c0,2.13-0.29,4.02-0.87,5.71c-0.58,1.69-1.4,3.15-2.47,4.31c-1.06,1.16-2.37,2.03-3.87,2.66
			c-1.5,0.63-3.19,0.97-5.08,0.97c-1.84,0-3.53-0.34-5.08-0.97c-1.5-0.63-2.81-1.5-3.87-2.66c-1.06-1.16-1.89-2.61-2.47-4.31
			c-0.58-1.69-0.87-3.58-0.87-5.71c0-2.13,0.29-4.06,0.87-5.76c0.58-1.69,1.4-3.1,2.47-4.26c1.06-1.16,2.37-2.08,3.92-2.71
			c1.5-0.63,3.19-0.97,5.03-0.97c1.89,0,3.58,0.34,5.08,0.97c1.5,0.63,2.81,1.55,3.87,2.71c1.06,1.16,1.89,2.61,2.47,4.31
			C476.75,257.73,477.04,259.62,477.04,261.75z M481.88,261.75c0-2.61-0.44-4.98-1.26-7.16c-0.82-2.18-1.98-4.02-3.48-5.61
			c-1.5-1.55-3.29-2.81-5.42-3.68c-2.08-0.82-4.4-1.31-6.97-1.31c-2.56,0-4.89,0.48-6.97,1.36c-2.08,0.87-3.92,2.08-5.42,3.63
			c-1.5,1.6-2.66,3.44-3.48,5.61c-0.82,2.18-1.21,4.55-1.21,7.16c0,2.61,0.43,4.98,1.26,7.16c0.82,2.18,1.98,4.02,3.48,5.61
			c1.5,1.55,3.29,2.76,5.37,3.63c2.08,0.87,4.4,1.31,6.97,1.31c2.56,0,4.89-0.44,6.97-1.31c2.13-0.87,3.92-2.08,5.42-3.68
			c1.5-1.55,2.66-3.39,3.48-5.56C481.44,266.73,481.88,264.36,481.88,261.75z"/>
		<polygon class="st1" points="507.7,244.38 486.31,244.38 486.31,279.07 491.06,279.07 491.06,264.79 505.28,264.79 505.28,260.97 
			491.01,260.97 491.01,248.2 507.7,248.2 		"/>
	</g>
</g>
</svg>
