<?xml version="1.0" encoding="utf-8"?>
<!-- Generator: Adobe Illustrator 23.0.1, SVG Export Plug-In . SVG Version: 6.00 Build 0)  -->
<svg version="1.1" id="Layer_1" xmlns="http://www.w3.org/2000/svg" xmlns:xlink="http://www.w3.org/1999/xlink" x="0px" y="0px"
	 viewBox="0 0 426.2 353.4" style="enable-background:new 0 0 426.2 353.4;" xml:space="preserve">
<style type="text/css">
	.st0{fill-rule:evenodd;clip-rule:evenodd;fill:#9D187C;}
	.st1{fill:#9D187C;}
	.st2{fill:#C286AF;}
	.st3{fill-rule:evenodd;clip-rule:evenodd;fill:#C286AF;}
	.st4{clip-path:url(#SVGID_2_);fill:none;stroke:#C286AF;stroke-width:0.7758;}
	.st5{clip-path:url(#SVGID_4_);fill:#C286AF;}
	.st6{clip-path:url(#SVGID_6_);fill:#C286AF;}
	.st7{clip-path:url(#SVGID_8_);fill:#C286AF;}
	.st8{clip-path:url(#SVGID_10_);fill:#C286AF;}
	.st9{clip-path:url(#SVGID_12_);fill:#C286AF;}
	.st10{clip-path:url(#SVGID_14_);fill:#C286AF;}
	.st11{clip-path:url(#SVGID_16_);fill:#C286AF;}
	.st12{clip-path:url(#SVGID_18_);fill:#C286AF;}
	.st13{clip-path:url(#SVGID_20_);fill:#C286AF;}
	.st14{clip-path:url(#SVGID_22_);fill:#C286AF;}
	.st15{clip-path:url(#SVGID_24_);fill:#C286AF;}
	.st16{clip-path:url(#SVGID_26_);fill:#C286AF;}
	.st17{clip-path:url(#SVGID_28_);fill:#C286AF;}
	.st18{clip-path:url(#SVGID_30_);fill:#C286AF;}
	.st19{clip-path:url(#SVGID_32_);fill:#C286AF;}
	.st20{clip-path:url(#SVGID_34_);fill:#C286AF;}
	.st21{clip-path:url(#SVGID_36_);fill:#C286AF;}
	.st22{fill:none;stroke:#C286AF;stroke-width:1.0827;}
</style>
<g>
	<g>
		<path class="st0" d="M364.5,76.9c0.3,0.4-0.1,0.4-0.2,0.6c0,0.2,0.1,0.2,0.1,0.2s9-3.6,9.6-4.1c0.6-0.5,0.8-0.7,1-0.7
			c0.4,0,0.5,0.3,0.4,0.5s-0.3,0.4-0.6,0.6c-0.3,0.1-0.5-0.1-0.8,0s-9.4,3.9-9.5,3.9c-0.1,0.1-0.1,0.3,0,0.4
			c0.1,0.1,0.9,0.1,0.4,0.8c-0.4,0.5,0.3,0.8-0.6,1.1c-0.4,0.1-0.6,0.5-1.1,0.6c-0.2,0-0.1,0.5-0.1,0.5s4.4-0.6,9.7,3.5
			c6.8,5.1,10,7.4,12,14.3c2,6.9-1.8,4.6-2,4.7s-0.6,1.6-2.4,1.5c-0.9,0-3-0.4-3.4-1.2c-0.4-0.8-0.6,1.4-2.6,0.2
			c-2.4-1.4-3.1,3.2-6.6,1.8c-1.8-0.7-3.6-1.2-5.2-0.7c-1.6,0.5-2.3,1.6-3,1.4c-0.8-0.3-2.6,0.6-3.1,0.1c-0.6-0.5-1.7-0.7-2.7-0.6
			c-0.9,0.1-1.2-0.1-1.8-0.3s-1,0.1-0.9-0.4c0.1-0.3,1.1-2.1,0.5-2.1c0,0-0.4-0.1-0.7,0.3c-0.7,0.7-1.1,0.8-1.7,1
			c-1.9,0.5-2.9-2.1-3.5-2.1c-0.6-0.1-3.8-1.4-4.4-3.2c-0.2-0.6,0.8-2.5,1.1-2.6s-1.1-0.1-1.6,0.1c-0.1,0.1,5.3-4.9,5.4-5.3
			c-0.4,0.1-6.6,4.1-6.5,4c0.3-0.4,0.7-1.7,0.5-1.5c-0.2,0.2-2.3,0.7-2.8,0.4c-1.7-1.1-2.1-4.5-2.1-5.1c0.1-0.6-2.1-2.2-1.2-3.9
			c0.3-0.6,0.5-0.9,1.4-1.4c0.5-0.3,0.5-0.6,0.5-0.6c0.2-0.5-1.8,0-2.1,0c-0.6,0-0.1-0.3-0.2-0.9c-0.1-0.7-0.2-1,0.1-1.8
			c0.3-1,0.4-2.1,0.1-2.8c-0.3-0.6,1-2.2,0.9-3c-0.1-0.7,1.2-1.2,2.1-2.6s0.8-3.4,0.6-5.3c-0.5-3.7,4.1-3.3,3.3-6
			c-0.7-2.3,1.5-1.9,0.8-2.5c-0.7-0.6-0.5-2.7-0.4-3.6c0.4-1.8,1.9-1.8,2.1-2c0.2-0.2-1.2-4.4,5.1-0.8s7.6,7.3,11,15.2
			c2.6,6.2,1,10.3,1,10.3s0.4,0.2,0.5,0c0.1-0.4,0.6-0.5,0.8-0.9c0.5-0.8,0.6-0.1,1.2-0.3c0.8-0.3,0.6,0.4,0.6,0.6
			c0.1,0.2,0.3,0.2,0.4,0.1s6-8,6.1-8.3s0-0.5,0.2-0.8c0.2-0.3,0.4-0.5,0.7-0.5c0.2,0,0.5,0.2,0.4,0.5c0,0.2-0.3,0.3-0.9,0.8
			s-6.3,8.4-6.3,8.4s0,0.1,0.2,0.1C364.2,76.9,364.2,76.5,364.5,76.9z"/>
		<path class="st1" d="M380.9,110.2c10.9,2.7,18.4,12.2,18.4,23.6c0,9.1-5.5,15.6-12.9,15.6c-6.4,0-11.5-4.9-11.5-11.2
			c0-4.2,1.6-7,5.1-9.1c2.6-1.6,3.4-2.5,3.4-4.2c0-3.3-3.6-6.1-9.4-7.4L380.9,110.2z"/>
		<path class="st1" d="M354.2,110.2c10.8,2.7,18.2,12.2,18.2,23.6c0,9.1-5.3,15.6-12.9,15.6c-6.4,0-11.5-4.9-11.5-11.2
			c0-4.2,1.7-7,5.1-9.1c2.7-1.7,3.4-2.5,3.4-4.2c0-3.3-3.6-6.1-9.2-7.4L354.2,110.2z"/>
		<polygon class="st1" points="239.6,104.7 239.6,110.5 246.4,110.5 246.4,104.5 251.5,107.5 254.9,101.6 249.8,98.7 254.9,95.6 
			251.5,89.7 246.4,92.7 246.4,86.7 239.5,86.7 239.5,92.7 234.4,89.7 231,95.6 236.1,98.7 231,101.6 234.4,107.5 		"/>
		<polygon class="st2" points="267.1,86.6 267.1,92.9 263.9,87.4 263.9,87.4 263.9,87.3 263.8,87.2 263.8,87.1 263.7,86.7 
			263.7,86.4 263.8,86.1 264,85.8 264.1,85.5 264.4,85.3 264.6,85.1 265,85 265.3,84.9 265.6,84.9 266,85 266.2,85.2 266.5,85.3 
			266.7,85.6 266.9,85.9 267,86.2 267.1,86.3 		"/>
		<polygon class="st2" points="267.3,86.6 267.3,92.9 270.5,87.4 270.5,87.4 270.6,87.3 270.6,87.2 270.6,87.1 270.7,86.7 
			270.7,86.4 270.6,86.1 270.5,85.8 270.3,85.5 270.1,85.3 269.8,85.1 269.5,85 269.1,84.9 268.8,84.9 268.5,85 268.2,85.2 
			267.9,85.3 267.7,85.6 267.5,85.9 267.4,86.2 267.4,86.3 		"/>
		<polygon class="st2" points="263.8,87.8 267,93.3 261.5,90.1 261.4,90 261.3,90 261.3,89.9 261.2,89.8 260.8,89.3 260.7,88.6 
			260.8,88 261.2,87.4 261.4,87.2 261.7,87.1 262,87 262.4,86.9 262.7,87 263,87.1 263.3,87.2 263.5,87.4 263.6,87.5 263.6,87.6 
			263.7,87.7 		"/>
		<polygon class="st2" points="270.6,87.8 267.5,93.3 272.9,90.1 273,90 273.1,90 273.2,89.9 273.3,89.8 273.6,89.3 273.8,88.6 
			273.6,88 273.3,87.4 273,87.2 272.7,87.1 272.4,87 272.1,86.9 271.7,87 271.4,87.1 271.1,87.2 270.9,87.4 270.8,87.5 270.8,87.6 
			270.7,87.7 		"/>
		<polygon class="st2" points="261.6,90.5 267.1,93.6 260.8,93.6 260.7,93.6 260.6,93.6 260.5,93.6 260.4,93.6 260,93.4 259.8,93.3 
			259.5,93 259.3,92.8 259.2,92.5 259.1,92.2 259.1,91.8 259.2,91.5 259.3,91.2 259.5,90.9 259.7,90.7 260,90.5 260.2,90.3 
			260.6,90.3 260.9,90.2 261.2,90.3 261.3,90.3 261.4,90.4 261.5,90.4 		"/>
		<polygon class="st2" points="272.8,90.5 267.3,93.6 273.6,93.6 273.7,93.6 273.8,93.6 273.9,93.6 274.1,93.6 274.4,93.4 
			274.7,93.3 274.9,93 275.1,92.8 275.2,92.5 275.3,92.2 275.3,91.8 275.3,91.5 275.1,91.2 275,90.9 274.7,90.7 274.5,90.5 
			274.2,90.3 273.9,90.3 273.5,90.2 273.2,90.3 273.1,90.3 273,90.4 272.9,90.4 		"/>
		<polygon class="st2" points="267.1,100.9 267.1,94.6 263.9,100 263.9,100.1 263.9,100.2 263.8,100.3 263.8,100.4 263.7,100.8 
			263.7,101.1 263.8,101.4 264,101.7 264.1,102 264.4,102.2 264.6,102.4 265,102.5 265.3,102.6 265.6,102.5 266,102.5 266.2,102.3 
			266.5,102.1 266.7,101.9 266.9,101.6 267,101.3 267.1,101.1 		"/>
		<polygon class="st2" points="267.3,100.9 267.3,94.6 270.5,100 270.5,100.1 270.6,100.2 270.6,100.3 270.6,100.4 270.7,100.8 
			270.7,101.1 270.6,101.4 270.5,101.7 270.3,102 270.1,102.2 269.8,102.4 269.5,102.5 269.1,102.6 268.8,102.5 268.5,102.5 
			268.2,102.3 267.9,102.1 267.7,101.9 267.5,101.6 267.4,101.3 267.4,101.1 		"/>
		<polygon class="st2" points="263.8,99.7 267,94.2 261.5,97.4 261.4,97.4 261.3,97.5 261.3,97.6 261.2,97.7 260.8,98.2 260.7,98.8 
			260.8,99.5 261.2,100 261.4,100.3 261.7,100.4 262,100.5 262.4,100.5 262.7,100.5 263,100.4 263.3,100.3 263.5,100 263.6,100 
			263.6,99.9 263.7,99.8 		"/>
		<polygon class="st2" points="270.6,99.7 267.5,94.2 272.9,97.4 273,97.4 273.1,97.5 273.2,97.6 273.3,97.7 273.6,98.2 273.8,98.8 
			273.6,99.5 273.3,100 273,100.3 272.7,100.4 272.4,100.5 272.1,100.5 271.7,100.5 271.4,100.4 271.1,100.3 270.9,100 270.8,100 
			270.8,99.9 270.7,99.8 		"/>
		<polygon class="st2" points="261.6,97 267.1,93.9 260.8,93.9 260.7,93.9 260.6,93.9 260.5,93.9 260.4,93.9 260,94.1 259.8,94.2 
			259.5,94.5 259.3,94.7 259.2,95 259.1,95.3 259.1,95.7 259.2,96 259.3,96.3 259.5,96.6 259.7,96.8 260,97 260.2,97.2 260.6,97.2 
			260.9,97.3 261.2,97.2 261.3,97.2 261.4,97.1 261.5,97.1 		"/>
		<polygon class="st2" points="272.8,97 267.3,93.9 273.6,93.9 273.7,93.9 273.8,93.9 273.9,93.9 274.1,93.9 274.4,94.1 274.7,94.2 
			274.9,94.5 275.1,94.7 275.2,95 275.3,95.3 275.3,95.7 275.3,96 275.1,96.3 275,96.6 274.7,96.8 274.5,97 274.2,97.2 273.9,97.2 
			273.5,97.3 273.2,97.2 273.1,97.2 273,97.1 272.9,97.1 		"/>
		<polygon class="st2" points="174.9,61.6 175,61.7 175,61.6 		"/>
		<polygon class="st2" points="176.3,61.6 176.3,61.6 176.3,61.6 		"/>
		<polygon class="st2" points="176.5,64.9 176.5,64.8 176.6,64.9 		"/>
		<polygon class="st2" points="176.6,56.3 176.8,56.2 177,55.9 177.2,55.7 177.3,55.5 177.4,55.3 177.5,55 177.5,54.8 177.5,54.5 
			177.5,54.1 177.3,53.6 177.1,53.2 176.8,52.9 176.5,52.6 176.1,52.4 175.7,52.3 175.2,52.2 174.9,52.2 174.6,52.3 174.3,52.4 
			174.1,52.5 173.9,52.7 173.6,52.9 173.4,53.1 173.2,53.3 172.7,54.1 172.4,55.1 172.3,56.2 172.3,57.4 172.6,58.7 173.1,59.8 
			173.9,60.9 175,61.7 174.8,60.8 174.7,59.9 174.7,59.2 174.9,58.5 175.1,57.9 175.5,57.3 176,56.8 		"/>
		<polygon class="st2" points="171.5,57.8 171.5,57.2 171.4,56.7 171.1,56.2 170.8,55.9 170.5,55.6 170.1,55.4 169.6,55.2 
			169.2,55.2 168.8,55.2 168.3,55.4 167.9,55.6 167.6,55.9 167.2,56.3 167,56.8 166.9,57.4 166.9,58 167,58.4 167.1,58.9 
			167.4,59.4 167.6,59.8 167.9,60.3 168.3,60.8 168.8,61.2 169.2,61.6 169.7,61.9 170.3,62.2 170.9,62.5 171.5,62.7 172.1,62.8 
			172.8,62.9 173.5,62.8 174.1,62.7 173.3,62.2 172.6,61.7 172.1,61.1 171.8,60.6 171.5,59.9 171.4,59.2 171.4,58.5 		"/>
		<polygon class="st2" points="168.9,62.4 168.6,62.2 168.5,62 168.2,61.8 168,61.7 167.8,61.6 167.5,61.6 167.3,61.5 167,61.5 
			166.6,61.6 166.1,61.7 165.8,61.9 165.4,62.2 165.1,62.5 164.9,62.9 164.8,63.4 164.7,63.8 164.8,64.1 164.8,64.4 164.9,64.7 
			165,64.9 165.2,65.2 165.4,65.4 165.6,65.6 165.8,65.8 166.2,66.1 166.6,66.3 167.1,66.4 167.6,66.6 168.1,66.7 168.7,66.7 
			169.4,66.7 170,66.7 170.6,66.6 171.2,66.4 171.8,66.2 172.3,65.9 172.9,65.5 173.4,65.1 173.8,64.6 174.2,64 173.8,64.2 
			173.3,64.2 172.9,64.3 172.5,64.3 172.1,64.4 171.7,64.3 171.4,64.3 171,64.2 170.7,64 170.4,63.9 170.1,63.7 169.9,63.5 
			169.6,63.3 169.3,63 169.1,62.7 		"/>
		<polygon class="st2" points="170.3,67.5 170,67.5 169.7,67.5 169.4,67.6 169.2,67.7 168.9,67.8 168.8,67.9 168.5,68 168.4,68.2 
			168.1,68.6 167.9,68.9 167.7,69.4 167.7,69.8 167.7,70.3 167.9,70.7 168.1,71.1 168.4,71.5 168.6,71.7 168.8,71.8 169.1,71.9 
			169.4,72 169.6,72.1 169.9,72.1 170.2,72.1 170.5,72.1 171,72 171.4,71.9 171.9,71.7 172.4,71.4 172.8,71.1 173.3,70.7 
			173.7,70.3 174.1,69.8 174.5,69.3 174.8,68.7 175,68.1 175.2,67.5 175.3,66.9 175.4,66.2 175.4,65.6 175.2,64.9 175,65.3 
			174.7,65.7 174.5,66.1 174.2,66.4 173.9,66.6 173.6,66.9 173.4,67.1 173.1,67.2 172.8,67.4 172.4,67.5 172.1,67.6 171.8,67.6 
			171.4,67.6 171,67.6 170.7,67.6 		"/>
		<polygon class="st2" points="174.9,70.2 174.7,70.4 174.5,70.6 174.4,70.8 174.2,71 174.1,71.2 174.1,71.5 174,71.7 174,72 
			174.1,72.4 174.2,72.9 174.4,73.3 174.7,73.6 175,73.9 175.4,74.1 175.9,74.2 176.3,74.3 176.6,74.3 176.9,74.2 177.2,74.1 
			177.4,74 177.7,73.8 177.9,73.6 178.1,73.4 178.3,73.2 178.8,72.4 179.1,71.4 179.2,70.3 179.2,69.1 178.9,67.8 178.4,66.7 
			177.6,65.6 176.5,64.8 176.8,65.7 176.9,66.6 176.8,67.3 176.7,68 176.4,68.6 176,69.2 175.5,69.7 		"/>
		<polygon class="st2" points="180,68.8 180,69.3 180.1,69.8 180.4,70.3 180.7,70.6 181,70.9 181.5,71.2 181.9,71.3 182.3,71.3 
			182.8,71.3 183.2,71.2 183.6,70.9 184,70.6 184.3,70.2 184.5,69.7 184.6,69.1 184.6,68.5 184.5,68.1 184.4,67.6 184.2,67.1 
			183.9,66.7 183.6,66.2 183.2,65.8 182.8,65.3 182.3,64.9 181.8,64.6 181.2,64.3 180.6,64 180,63.8 179.4,63.7 178.7,63.6 
			178.1,63.7 177.4,63.8 178.2,64.3 178.9,64.8 179.4,65.4 179.8,66 180,66.6 180.1,67.2 180.1,68 		"/>
		<polygon class="st2" points="182.7,64.1 182.9,64.3 183.1,64.5 183.3,64.7 183.5,64.8 183.8,64.9 184,65 184.2,65 184.5,65 
			184.9,65 185.4,64.8 185.8,64.6 186.1,64.3 186.4,64 186.6,63.6 186.7,63.2 186.8,62.7 186.8,62.4 186.7,62.1 186.6,61.8 
			186.5,61.6 186.3,61.3 186.1,61.1 185.9,60.9 185.7,60.7 185.4,60.5 184.9,60.2 184.4,60.1 183.9,59.9 183.4,59.8 182.8,59.8 
			182.2,59.8 181.6,59.8 181,59.9 180.3,60.1 179.8,60.3 179.2,60.6 178.6,61 178.1,61.4 177.7,61.9 177.3,62.5 177.8,62.4 
			178.2,62.2 178.7,62.2 179.1,62.2 179.5,62.2 179.8,62.2 180.2,62.2 180.5,62.3 180.8,62.5 181.1,62.6 181.4,62.8 181.7,63 
			181.9,63.2 182.2,63.5 182.4,63.8 		"/>
		<polygon class="st2" points="181.3,59 181.5,59 181.8,59 182.1,58.9 182.3,58.9 182.5,58.8 182.8,58.6 183,58.5 183.1,58.3 
			183.5,58 183.7,57.6 183.8,57.1 183.8,56.7 183.8,56.2 183.7,55.8 183.5,55.4 183.1,55.1 182.9,54.8 182.7,54.7 182.4,54.6 
			182.2,54.5 181.9,54.4 181.6,54.4 181.3,54.4 181,54.4 180.6,54.5 180.1,54.6 179.6,54.8 179.2,55.1 178.7,55.4 178.3,55.8 
			177.8,56.2 177.4,56.7 177.1,57.2 176.8,57.8 176.5,58.4 176.3,59 176.2,59.6 176.1,60.3 176.2,60.9 176.3,61.6 176.5,61.2 
			176.8,60.8 177.1,60.4 177.3,60.1 177.6,59.9 177.9,59.6 178.2,59.4 178.5,59.2 178.8,59.1 179.1,59 179.4,58.9 179.8,58.9 
			180.1,58.9 180.5,58.9 180.9,58.9 		"/>
		<path class="st2" d="M301.3,144.1c-1,2.3,3.4,2.9,5,3.9c3.3,1.3,4.9,4.9,3.7,8.2c-1.3,3.2-4.9,4.8-8.2,3.6
			c-3.2-1.3-4.8-4.9-3.7-8.2c0.4-2.2,3-5.7,0.6-6.3c-2.3-0.6-2.5,3.2-3.6,4.8c-1.2,3.2-4.9,4.9-8.1,3.6c-3.3-1.4-4.9-5-3.6-8.2
			c1.2-3.1,5-4.8,8.1-3.6c2.2,0.3,5.4,2.8,6.4,0.5c1-2.4-3.6-2.7-5.4-3.7c-3.2-1.3-4.8-4.9-3.6-8.2c1.3-3.2,5-4.9,8.2-3.6
			c3.3,1.2,4.9,4.9,3.6,8.2c-0.3,2.2-2.8,5.5-0.5,6.3c2.3,0.7,2.5-3.1,3.7-4.9c1.2-3.1,4.9-4.8,8.1-3.6c3.3,1.2,5,4.9,3.6,8.2
			c-1.2,3.3-4.9,4.9-8.1,3.6C305.3,144.4,302.3,141.9,301.3,144.1z"/>
		<path class="st1" d="M227.4,93.7h-2.5c-5.6,0-11.3,1.3-15.4,5.4c-3.8,3.8-5.5,9.2-5.5,14.5c0,7.3,4.3,13.3,11.9,13.3
			c6.7,0,12.2-4.2,12.2-11.2c0-5.7-5-10.6-10.7-10.6c-1.1,0-2.1,0-3.1,0.4c-0.4,0.1-0.8,0.3-1.2,0.3c-1.1,0-1.8-0.8-1.8-1.9
			c0-2.9,3.3-5.5,5.7-6.4c3.7-1.4,7.2-1.7,10.2-1.1L227.4,93.7z"/>
		<path class="st1" d="M221.3,20.6l4.1-7c0.4,1.1,0.9,1.8,2,2.5c1.7,1,3.9,0.3,5-1.4c1.2-2,0.3-4.1-1.4-5.3c0.4-0.4,0.8-0.7,1.1-1.1
			c1.2-2,0.5-4.3-1.4-5.4c-1.6-1-3.9-0.4-4.9,1.3c-0.3,0.5-0.4,1.2-0.6,1.8c-2-0.8-4.3-0.8-5.5,1.2c-1.1,1.9-0.5,4,1.4,5.1
			c0.9,0.5,1.9,0.7,2.9,0.4l-4.3,6.9l-6.8-4c0.9-0.5,1.8-1,2.3-1.9c1.1-1.8,0.5-4-1.3-5.1c-1.8-1.1-4.1-0.3-5.3,1.4
			c-0.3-0.5-0.7-0.8-1.2-1.1c-1.8-1.1-4.2-0.6-5.3,1.2c-0.9,1.5-0.7,3.9,1,4.8c0.6,0.4,1.4,0.5,2.1,0.7c-1,1.8-1,4.3,0.9,5.5
			c1.9,1.1,4.1,0.8,5.3-1.2c0.6-1,0.8-1.8,0.7-2.9l6.7,4.2l-3.9,6.7c-0.4-0.9-0.8-1.7-1.8-2.2c-1.8-1.1-4.1-0.4-5.2,1.4
			c-1.2,2-0.2,4.3,1.6,5.3c-0.6,0.4-1,0.8-1.4,1.4c-1,1.8-0.4,4,1.2,5c1.9,1.1,4.1,0.4,5.2-1.3c0.4-0.6,0.5-1,0.5-1.7
			c1.8,0.9,4.3,0.6,5.5-1.3c1.1-1.9,0.4-4.1-1.4-5.2c-0.9-0.5-1.9-0.6-3-0.6l4.2-6.6l7,4c-1,0.5-1.7,1.1-2.3,2
			c-1.1,1.8-0.6,3.9,1.2,5c2,1.2,4.2,0.3,5.4-1.6c0.3,0.5,0.6,0.9,1.2,1.2c1.8,1.1,4.1,0.6,5.2-1.2c1.1-1.8,0.4-4.2-1.4-5.3
			c-0.5-0.3-1-0.4-1.6-0.5c1-1.8,0.6-4.2-1.2-5.3c-1.9-1.1-4-0.7-5.2,1.2c-0.5,0.9-0.7,2-0.6,3.1L221.3,20.6z"/>
		<path class="st1" d="M219.8,133.2c0-2.7,2.2-4.9,4.9-4.9s4.9,2.2,4.9,4.9c0,2.7-2.2,4.9-4.9,4.9
			C222,138.1,219.8,135.9,219.8,133.2z"/>
		<polygon class="st1" points="253.4,16.1 253.5,16.2 253.5,16.1 		"/>
		<polygon class="st1" points="255,16.1 255,16.1 255,16.1 		"/>
		<polygon class="st1" points="255.2,19.7 255.2,19.5 255.4,19.7 		"/>
		<polygon class="st1" points="255.3,10.3 255.6,10.1 255.8,9.8 255.9,9.6 256.1,9.3 256.2,9.1 256.2,8.8 256.3,8.6 256.3,8.3 
			256.2,7.8 256.1,7.3 255.9,6.9 255.5,6.5 255.2,6.2 254.7,5.9 254.3,5.8 253.8,5.7 253.4,5.8 253.1,5.8 252.8,5.9 252.5,6.1 
			252.3,6.3 252,6.5 251.8,6.7 251.6,6.9 251,7.8 250.7,8.9 250.5,10.1 250.6,11.5 250.9,12.8 251.5,14.1 252.4,15.2 253.5,16.2 
			253.3,15.2 253.2,14.2 253.2,13.4 253.4,12.7 253.7,12 254.1,11.4 254.6,10.8 		"/>
		<polygon class="st1" points="249.7,11.8 249.7,11.2 249.6,10.6 249.3,10.2 249,9.7 248.6,9.4 248.1,9.2 247.6,9 247.2,9 246.7,9 
			246.2,9.2 245.8,9.4 245.4,9.7 245,10.2 244.8,10.8 244.7,11.5 244.7,12.1 244.8,12.6 244.9,13.1 245.1,13.6 245.4,14.1 
			245.8,14.6 246.2,15.1 246.7,15.6 247.2,16 247.8,16.4 248.4,16.8 249,17 249.7,17.3 250.4,17.4 251.1,17.5 251.8,17.4 
			252.6,17.3 251.7,16.7 251,16.1 250.4,15.5 250,14.9 249.8,14.2 249.6,13.5 249.6,12.7 		"/>
		<polygon class="st1" points="246.8,16.9 246.6,16.7 246.4,16.5 246.1,16.3 245.9,16.2 245.6,16.1 245.3,16 245.1,16 244.8,16 
			244.3,16 243.8,16.1 243.4,16.4 243,16.7 242.7,17.1 242.5,17.5 242.3,18 242.2,18.5 242.3,18.8 242.3,19.1 242.5,19.4 
			242.6,19.7 242.8,20 243,20.2 243.2,20.4 243.4,20.6 243.8,20.9 244.3,21.2 244.9,21.4 245.4,21.5 246,21.6 246.7,21.7 
			247.3,21.7 248,21.6 248.7,21.5 249.4,21.3 250,21.1 250.6,20.7 251.2,20.3 251.8,19.9 252.3,19.3 252.7,18.7 252.2,18.8 
			251.7,18.9 251.2,19 250.8,19.1 250.3,19.1 249.9,19 249.5,19 249.2,18.8 248.9,18.7 248.5,18.5 248.2,18.4 247.9,18.1 
			247.6,17.9 247.3,17.6 247,17.3 		"/>
		<polygon class="st1" points="248.3,22.6 248,22.5 247.7,22.5 247.5,22.6 247.2,22.7 246.9,22.8 246.7,22.9 246.5,23.1 246.3,23.3 
			245.9,23.7 245.7,24.1 245.6,24.6 245.5,25.1 245.6,25.6 245.7,26 245.9,26.5 246.3,26.9 246.5,27.1 246.8,27.3 247,27.4 
			247.4,27.5 247.7,27.5 248,27.6 248.3,27.6 248.6,27.6 249.1,27.5 249.6,27.3 250.1,27.1 250.6,26.8 251.1,26.4 251.6,26 
			252.1,25.6 252.5,25 252.9,24.5 253.3,23.9 253.6,23.2 253.8,22.5 253.9,21.9 254,21.1 253.9,20.4 253.8,19.6 253.5,20.1 
			253.2,20.5 253,20.9 252.7,21.3 252.4,21.6 252.1,21.8 251.8,22 251.4,22.2 251.1,22.4 250.7,22.5 250.4,22.6 250,22.7 
			249.6,22.7 249.2,22.7 248.8,22.6 		"/>
		<polygon class="st1" points="253.5,25.5 253.2,25.7 253,25.9 252.8,26.1 252.7,26.4 252.6,26.7 252.5,26.9 252.5,27.2 252.5,27.4 
			252.5,27.9 252.7,28.4 252.9,28.8 253.2,29.2 253.6,29.5 254,29.8 254.5,29.9 255,30 255.3,30 255.6,29.9 255.9,29.8 256.2,29.6 
			256.5,29.5 256.7,29.3 256.9,29 257.2,28.8 257.7,27.9 258.1,26.8 258.2,25.6 258.2,24.2 257.8,22.9 257.3,21.6 256.4,20.5 
			255.2,19.5 255.5,20.6 255.6,21.5 255.5,22.3 255.4,23.1 255.1,23.7 254.6,24.3 254.1,24.9 		"/>
		<polygon class="st1" points="259.1,23.9 259.1,24.5 259.2,25.1 259.5,25.6 259.8,26 260.2,26.3 260.6,26.5 261.1,26.7 261.6,26.7 
			262.1,26.7 262.5,26.5 263,26.3 263.4,26 263.8,25.5 264,24.9 264.1,24.2 264.1,23.6 264,23.1 263.8,22.6 263.6,22.1 263.3,21.6 
			263,21.1 262.5,20.6 262.1,20.1 261.6,19.7 261,19.3 260.4,19 259.8,18.7 259.1,18.5 258.4,18.3 257.7,18.3 256.9,18.3 
			256.2,18.5 257.1,19 257.8,19.6 258.4,20.2 258.8,20.8 259,21.5 259.2,22.2 259.2,23.1 		"/>
		<polygon class="st1" points="262,18.8 262.2,19 262.4,19.2 262.6,19.4 262.9,19.5 263.1,19.7 263.4,19.7 263.7,19.8 264,19.8 
			264.5,19.7 265,19.6 265.4,19.3 265.8,19 266.1,18.6 266.3,18.2 266.4,17.8 266.5,17.2 266.5,16.9 266.4,16.6 266.3,16.3 
			266.2,16 266,15.8 265.8,15.5 265.6,15.3 265.3,15.1 264.9,14.8 264.4,14.5 263.9,14.3 263.4,14.2 262.7,14.1 262.1,14 261.4,14 
			260.8,14.1 260.1,14.2 259.4,14.4 258.8,14.6 258.1,15 257.5,15.4 257,15.8 256.5,16.4 256.1,17 256.6,16.9 257.1,16.8 
			257.6,16.7 258,16.7 258.4,16.6 258.8,16.7 259.2,16.8 259.6,16.9 259.9,17 260.2,17.2 260.6,17.4 260.9,17.6 261.1,17.9 
			261.4,18.1 261.7,18.5 		"/>
		<polygon class="st1" points="260.4,13.2 260.7,13.2 261,13.2 261.3,13.1 261.6,13 261.8,12.9 262.1,12.8 262.3,12.6 262.5,12.5 
			262.8,12.1 263.1,11.6 263.2,11.2 263.2,10.6 263.2,10.2 263.1,9.7 262.8,9.2 262.5,8.8 262.2,8.6 262,8.5 261.7,8.3 261.4,8.2 
			261.1,8.2 260.8,8.1 260.5,8.1 260.1,8.2 259.7,8.2 259.1,8.4 258.6,8.6 258.1,8.9 257.6,9.3 257.1,9.7 256.6,10.2 256.2,10.7 
			255.8,11.2 255.5,11.9 255.2,12.5 255,13.2 254.9,13.9 254.8,14.6 254.8,15.3 255,16.1 255.2,15.6 255.5,15.2 255.8,14.8 
			256.1,14.4 256.4,14.1 256.7,13.9 257,13.7 257.4,13.5 257.7,13.3 258,13.2 258.4,13.1 258.8,13.1 259.2,13 259.6,13.1 260,13.1 
					"/>
		<path class="st1" d="M286.3,72l3.5-3.6l3.5,3.6c0.8,0.8,0.8,2.1,0,2.9s-2.1,0.8-3,0c-0.4-0.4-0.6-0.9-0.6-1.5
			c0,0.5-0.2,1.1-0.6,1.5c-0.8,0.8-2.1,0.8-3,0C285.5,74.2,285.5,72.8,286.3,72z M289.3,71.6c-0.3,0.3-0.3,0.9,0,1.2s0.9,0.3,1.2,0
			c0.3-0.3,0.3-0.9,0-1.2C290.1,71.3,289.6,71.3,289.3,71.6z"/>
		<path class="st1" d="M293.8,71.5l-3.5-3.6l3.5-3.6c0.8-0.8,2.1-0.8,3,0c0.8,0.8,0.8,2.1,0,2.9c-0.4,0.4-1,0.6-1.5,0.6
			c0.5,0,1.1,0.2,1.5,0.6c0.8,0.8,0.8,2.1,0,2.9C295.9,72.3,294.6,72.3,293.8,71.5z M293.4,68.5c0.3,0.3,0.9,0.3,1.2,0
			c0.3-0.3,0.3-0.9,0-1.2s-0.9-0.3-1.2,0C293,67.7,293,68.2,293.4,68.5z"/>
		<path class="st1" d="M293.3,64.1l-3.5,3.6l-3.5-3.6c-0.8-0.8-0.8-2.1,0-2.9s2.1-0.8,3,0c0.4,0.4,0.6,0.9,0.6,1.5
			c0-0.5,0.2-1.1,0.6-1.5c0.8-0.8,2.1-0.8,3,0S294.1,63.2,293.3,64.1z M290.3,64.4c0.3-0.3,0.3-0.9,0-1.2s-0.9-0.3-1.2,0
			c-0.3,0.3-0.3,0.9,0,1.2C289.4,64.8,290,64.8,290.3,64.4z"/>
		<path class="st1" d="M285.8,64.6l3.5,3.6l-3.5,3.6c-0.8,0.8-2.1,0.8-3,0s-0.8-2.1,0-2.9c0.4-0.4,1-0.6,1.5-0.6
			c-0.5,0-1.1-0.2-1.5-0.6c-0.8-0.8-0.8-2.1,0-2.9C283.7,63.7,285,63.7,285.8,64.6z M286.2,67.5c-0.3-0.3-0.9-0.3-1.2,0
			c-0.3,0.3-0.3,0.9,0,1.2s0.9,0.3,1.2,0S286.5,67.9,286.2,67.5z"/>
		<path class="st2" d="M56.9,126.8c0-2.6,2.1-4.7,4.7-4.7s4.7,2.1,4.7,4.7c0,2.6-2.1,4.7-4.7,4.7S56.9,129.4,56.9,126.8z"/>
		<path class="st1" d="M235,42.7c0-2.7,2.2-4.9,4.9-4.9s4.9,2.2,4.9,4.9s-2.2,4.9-4.9,4.9S235,45.4,235,42.7z"/>
		<path class="st1" d="M253.5,188.6l4.5,1.5l-1.5,4.5c-0.3,1-1.4,1.6-2.5,1.3c-1-0.3-1.6-1.4-1.3-2.5c0.2-0.5,0.5-0.9,1-1.1
			c-0.5,0.2-1,0.3-1.5,0.1c-1-0.3-1.6-1.4-1.3-2.5C251.4,188.9,252.5,188.3,253.5,188.6z M255.2,191c-0.4-0.1-0.9,0.1-1,0.5
			c-0.1,0.4,0.1,0.9,0.5,1c0.4,0.1,0.9-0.1,1-0.5C255.8,191.5,255.6,191.1,255.2,191z"/>
		<path class="st1" d="M257.2,194.7l1.5-4.5l4.5,1.5c1,0.3,1.6,1.4,1.3,2.5s-1.4,1.6-2.5,1.3c-0.5-0.2-0.9-0.5-1.1-1
			c0.2,0.4,0.3,1,0.1,1.5c-0.3,1-1.4,1.6-2.5,1.3C257.4,196.8,256.8,195.7,257.2,194.7z M259.5,193.1c-0.1,0.4,0.1,0.9,0.5,1
			c0.4,0.1,0.9-0.1,1-0.5c0.1-0.4-0.1-0.9-0.5-1C260.1,192.4,259.6,192.7,259.5,193.1z"/>
		<path class="st1" d="M263.2,191.1l-4.5-1.5l1.5-4.5c0.3-1,1.4-1.6,2.5-1.3c1,0.3,1.6,1.4,1.3,2.5c-0.2,0.5-0.5,0.9-1,1.1
			c0.5-0.2,1-0.3,1.5-0.1c1,0.3,1.6,1.4,1.3,2.5C265.4,190.9,264.2,191.4,263.2,191.1z M261.6,188.7c0.4,0.1,0.9-0.1,1-0.5
			c0.1-0.4-0.1-0.9-0.5-1c-0.4-0.1-0.9,0.1-1,0.5C261,188.2,261.2,188.6,261.6,188.7z"/>
		<path class="st1" d="M259.6,185l-1.5,4.5l-4.5-1.5c-1-0.3-1.6-1.4-1.3-2.5s1.4-1.6,2.5-1.3c0.5,0.2,0.9,0.5,1.1,1
			c-0.2-0.4-0.3-1-0.1-1.5c0.3-1,1.4-1.6,2.5-1.3C259.4,182.9,260,184,259.6,185z M257.3,186.6c0.1-0.4-0.1-0.9-0.5-1
			c-0.4-0.1-0.9,0.1-1,0.5c-0.1,0.4,0.1,0.9,0.5,1C256.7,187.3,257.1,187,257.3,186.6z"/>
		<polygon class="st1" points="119.2,88.4 119.2,94.2 116.3,89.2 116.2,89.1 116.2,89 116.2,88.9 116.1,88.8 116.1,88.5 116.1,88.2 
			116.2,87.9 116.3,87.7 116.4,87.4 116.7,87.2 116.9,87.1 117.2,86.9 117.5,86.9 117.8,86.9 118.1,87 118.4,87.1 118.6,87.3 
			118.8,87.5 119,87.8 119.1,88 119.1,88.2 		"/>
		<polygon class="st1" points="119.4,88.4 119.4,94.2 122.3,89.2 122.3,89.1 122.3,89 122.4,88.9 122.4,88.8 122.4,88.5 122.4,88.2 
			122.4,87.9 122.2,87.7 122.1,87.4 121.9,87.2 121.6,87.1 121.3,86.9 121,86.9 120.7,86.9 120.4,87 120.1,87.1 119.9,87.3 
			119.7,87.5 119.5,87.8 119.4,88 119.4,88.2 		"/>
		<polygon class="st1" points="116.1,89.5 119,94.5 114,91.6 114,91.6 113.9,91.5 113.8,91.5 113.7,91.4 113.4,90.9 113.3,90.3 
			113.4,89.7 113.7,89.2 114,89 114.2,88.9 114.5,88.8 114.8,88.8 115.1,88.8 115.4,88.9 115.7,89 115.9,89.2 115.9,89.2 116,89.3 
			116.1,89.4 		"/>
		<polygon class="st1" points="122.4,89.5 119.5,94.5 124.5,91.6 124.6,91.6 124.7,91.5 124.7,91.5 124.8,91.4 125.2,90.9 
			125.3,90.3 125.2,89.7 124.8,89.2 124.6,89 124.3,88.9 124,88.8 123.7,88.8 123.4,88.8 123.1,88.9 122.9,89 122.6,89.2 
			122.6,89.2 122.5,89.3 122.4,89.4 		"/>
		<polygon class="st1" points="114.2,92 119.2,94.9 113.4,94.9 113.3,94.9 113.2,94.8 113.1,94.8 113,94.8 112.7,94.7 112.4,94.5 
			112.2,94.3 112,94.1 111.9,93.8 111.8,93.5 111.8,93.2 111.9,92.9 112,92.6 112.2,92.4 112.4,92.1 112.6,92 112.9,91.8 
			113.2,91.8 113.5,91.8 113.8,91.8 113.8,91.8 113.9,91.9 114,91.9 		"/>
		<polygon class="st1" points="124.4,92 119.4,94.9 125.2,94.9 125.2,94.9 125.3,94.8 125.4,94.8 125.5,94.8 125.8,94.7 126.1,94.5 
			126.3,94.3 126.5,94.1 126.6,93.8 126.7,93.5 126.7,93.2 126.7,92.9 126.5,92.6 126.4,92.4 126.2,92.1 125.9,92 125.7,91.8 
			125.4,91.8 125.1,91.8 124.7,91.8 124.7,91.8 124.6,91.9 124.5,91.9 		"/>
		<polygon class="st1" points="119.2,101.5 119.2,95.7 116.3,100.7 116.2,100.8 116.2,100.9 116.2,101 116.1,101.1 116.1,101.4 
			116.1,101.7 116.2,102 116.3,102.3 116.4,102.5 116.7,102.7 116.9,102.9 117.2,103 117.5,103 117.8,103 118.1,103 118.4,102.8 
			118.6,102.7 118.8,102.5 119,102.2 119.1,101.9 119.1,101.8 		"/>
		<polygon class="st1" points="119.4,101.5 119.4,95.7 122.3,100.7 122.3,100.8 122.3,100.9 122.4,101 122.4,101.1 122.4,101.4 
			122.4,101.7 122.4,102 122.2,102.3 122.1,102.5 121.9,102.7 121.6,102.9 121.3,103 121,103 120.7,103 120.4,103 120.1,102.8 
			119.9,102.7 119.7,102.5 119.5,102.2 119.4,101.9 119.4,101.8 		"/>
		<polygon class="st1" points="116.1,100.4 119,95.4 114,98.3 114,98.4 113.9,98.4 113.8,98.5 113.7,98.6 113.4,99.1 113.3,99.7 
			113.4,100.2 113.7,100.8 114,100.9 114.2,101.1 114.5,101.2 114.8,101.2 115.1,101.2 115.4,101.1 115.7,100.9 115.9,100.8 
			115.9,100.7 116,100.6 116.1,100.5 		"/>
		<polygon class="st1" points="122.4,100.4 119.5,95.4 124.5,98.3 124.6,98.4 124.7,98.4 124.7,98.5 124.8,98.6 125.2,99.1 
			125.3,99.7 125.2,100.2 124.8,100.8 124.6,100.9 124.3,101.1 124,101.2 123.7,101.2 123.4,101.2 123.1,101.1 122.9,100.9 
			122.6,100.8 122.6,100.7 122.5,100.6 122.4,100.5 		"/>
		<polygon class="st1" points="114.2,98 119.2,95.1 113.4,95.1 113.3,95.1 113.2,95.1 113.1,95.1 113,95.2 112.7,95.3 112.4,95.4 
			112.2,95.6 112,95.9 111.9,96.1 111.8,96.4 111.8,96.7 111.9,97 112,97.3 112.2,97.6 112.4,97.8 112.6,98 112.9,98.1 113.2,98.2 
			113.5,98.2 113.8,98.1 113.8,98.1 113.9,98.1 114,98 		"/>
		<polygon class="st1" points="124.4,98 119.4,95.1 125.2,95.1 125.2,95.1 125.3,95.1 125.4,95.1 125.5,95.2 125.8,95.3 126.1,95.4 
			126.3,95.6 126.5,95.9 126.6,96.1 126.7,96.4 126.7,96.7 126.7,97 126.5,97.3 126.4,97.6 126.2,97.8 125.9,98 125.7,98.1 
			125.4,98.2 125.1,98.2 124.7,98.1 124.7,98.1 124.6,98.1 124.5,98 		"/>
		<path class="st2" d="M86.3,61c0-2.1,1.7-3.8,3.8-3.8s3.8,1.7,3.8,3.8c0,2.1-1.7,3.8-3.8,3.8S86.3,63.1,86.3,61z"/>
		<path class="st3" d="M226.2,54.7c1.1-1.1,2.9-3,3.5-3.6c1-0.9,4-1.8,6.4,0.8c2.4,2.6,3,5.8,3.3,7.1c0.3,1.3,1.2,6.4,0,9
			c-1.1,2.5-3.8,3.5-5,3.1c-0.8-0.2-2.6-1-3.9-1.5c0.1-0.2,0.1-0.4,0.1-0.6c0.2-0.8,0.7-3.9,0-5.4s-2.4-2.5-2.4-2.5s1.2-2.2,0.2-4
			C227.8,56,226.9,55.2,226.2,54.7z M230.2,70.3c1.4,0.7,3.6,1.7,4.3,2.1c1.1,0.6,2.9,3.3,1.2,6.4s-4.6,4.6-5.8,5.3
			s-5.7,3.1-8.5,2.8s-4.5-2.5-4.5-3.8c0-0.8,0.1-2.7,0.2-4c0.3,0,0.5-0.1,0.8-0.1c0.8-0.1,3.9-0.5,5.1-1.6s1.3-3.2,1.3-3.2
			s2.8,0.6,4.2-0.9C229.5,72.3,230,71.2,230.2,70.3z M216.4,79.1c-0.2,1.6-0.5,3.8-0.7,4.6c-0.2,1.3-2.2,3.8-5.7,3.1
			c-3.4-0.7-5.8-2.9-6.8-3.8s-4.7-4.5-5.3-7.2c-0.6-2.7,1-5.1,2.2-5.5c0.8-0.2,2.6-0.7,4-1c0.1,0.4,0.3,0.7,0.4,0.9
			c0.3,0.8,1.7,3.5,3.1,4.4c1.5,0.8,3.3,0.3,3.3,0.3s0.4,2.8,2.3,3.7C214.4,78.9,215.5,79.1,216.4,79.1z M203.9,68.5
			c-1.6,0.3-3.8,0.7-4.6,0.8c-1.3,0.2-4.3-0.9-4.7-4.4c-0.4-3.5,1-6.4,1.5-7.7s2.8-5.9,5.2-7.3c2.4-1.4,5.1-0.7,5.9,0.4
			c0.5,0.7,1.6,2.4,2.4,3.6c-0.3,0.2-0.6,0.5-0.8,0.6c-0.6,0.5-2.9,2.7-3.2,4.3c-0.3,1.6,0.7,3.3,0.7,3.3s-2.5,1.2-2.8,3.3
			C203.5,66.6,203.7,67.7,203.9,68.5z M210.1,53.5c-0.8-1.4-1.9-3.6-2.3-4.4c-0.6-1.2-0.4-4.4,2.7-5.9c3.2-1.5,6.4-1,7.8-0.9
			c1.4,0.1,6.5,0.8,8.5,2.7c2.1,1.9,2.2,4.7,1.4,5.8c-0.5,0.7-1.8,2.3-2.7,3.4c-0.3-0.2-0.5-0.3-0.7-0.4c-0.7-0.4-3.5-1.9-5.1-1.7
			c-1.7,0.2-3,1.6-3,1.6s-1.8-2-3.8-1.6C211.8,52.5,210.9,53,210.1,53.5z"/>
		<path class="st3" d="M221.4,70.6c0,0,1.5,1.8,1.9,2.4s0.4,2.1-0.8,3.1s-3.9,1.4-4.6,1.5s-2.5,0.3-4.2-0.5s-1.8-2.6-1.5-3.2
			s1.6-3.1,1.6-3.1l-0.2-0.2c0,0-1.3,2-1.7,2.6c-0.4,0.6-1.9,1-3.2,0.2s-2.5-3.3-2.8-3.9c-0.3-0.7-1.1-2.3-0.8-4.2s1.9-2.5,2.6-2.4
			c0.7,0.1,3.4,0.6,3.4,0.6l0.1-0.3c0,0-2.3-0.6-3-0.8c-0.7-0.2-1.5-1.5-1.2-3c0.3-1.5,2.3-3.4,2.9-3.9c0.6-0.5,1.8-1.7,3.7-2.1
			s3,1,3.1,1.7c0.1,0.7,0.5,3.4,0.5,3.4l0.4,0c0,0-0.2-2.4-0.2-3.1s1-1.9,2.5-2.1s4,1.1,4.6,1.5c0.6,0.4,2.2,1.2,3.1,2.9
			c0.9,1.7,0,3.1-0.7,3.5s-3.1,1.5-3.1,1.5l0.1,0.4c0,0,2.2-0.9,2.9-1.2c0.7-0.2,2.1,0.3,2.7,1.7s0.1,4.1,0,4.9s-0.5,2.5-1.8,3.9
			c-1.3,1.4-3,0.9-3.5,0.4c-0.5-0.5-2.4-2.5-2.4-2.5L221.4,70.6z M213.3,62.3c0.3,0.3,0.9,0.3,1.2,0c0.3-0.3,0.3-0.9,0-1.2
			s-0.9-0.3-1.2,0C213,61.4,213,62,213.3,62.3z M212.6,63.9c0.4,0.2,0.9,0,1.1-0.4c0.2-0.4,0-0.9-0.4-1.1s-0.9,0-1.1,0.4
			C212,63.2,212.2,63.7,212.6,63.9z M212.5,65.7c0.5,0,0.9-0.3,0.9-0.8c0-0.5-0.3-0.9-0.8-0.9c-0.5,0-0.9,0.3-0.9,0.8
			C211.7,65.3,212.1,65.7,212.5,65.7z M214.6,61.1c0.2,0.4,0.7,0.6,1.1,0.4c0.4-0.2,0.6-0.7,0.4-1.1c-0.2-0.4-0.7-0.6-1.1-0.4
			C214.6,60.2,214.4,60.6,214.6,61.1z M213.1,67.3c0.4-0.1,0.6-0.5,0.6-0.9c0.1,0.4,0.3,0.7,0.5,1C213.9,67.2,213.4,67.2,213.1,67.3
			c-0.3,0.3-0.4,0.9-0.1,1.2c0.3,0.4,0.8,0.4,1.2,0.1c0.3-0.2,0.4-0.7,0.2-1c0.2,0.3,0.5,0.5,0.8,0.7c-0.4-0.1-0.8,0.1-1,0.4
			c-0.2,0.4-0.1,0.9,0.3,1.2c0.4,0.2,0.9,0.1,1.1-0.3c0.2-0.3,0.1-0.8-0.1-1c0.3,0.2,0.6,0.3,1,0.3c-0.4,0.1-0.7,0.3-0.7,0.7
			c-0.1,0.5,0.2,0.9,0.7,1c0.5,0.1,0.9-0.2,1-0.7c0.1-0.4-0.1-0.7-0.5-0.9c0.1,0,0.2,0,0.4,0c0.2,0,0.4,0,0.6,0
			c-0.3,0.2-0.5,0.5-0.4,0.9c0.1,0.4,0.5,0.7,1,0.7c0.5-0.1,0.7-0.5,0.6-1c-0.1-0.4-0.4-0.6-0.7-0.7c0.3-0.1,0.6-0.2,0.8-0.3
			c-0.2,0.3-0.2,0.7,0,0.9c0.2,0.4,0.8,0.5,1.2,0.2s0.5-0.8,0.2-1.2c-0.2-0.3-0.6-0.4-0.9-0.4c0.2-0.2,0.5-0.4,0.6-0.6
			c-0.1,0.3,0,0.7,0.3,0.9c0.4,0.3,0.9,0.2,1.2-0.2c0.3-0.4,0.2-0.9-0.2-1.2c-0.3-0.2-0.7-0.2-1,0c0.1-0.2,0.3-0.5,0.4-0.8
			c0,0.3,0.3,0.6,0.6,0.7c0.5,0.1,0.9-0.2,1-0.6c0.1-0.4-0.1-0.9-0.6-1c-0.4-0.1-0.7,0.1-0.9,0.3c0-0.2,0.1-0.4,0.1-0.7
			c0-0.1,0-0.2,0-0.2c0.1,0.3,0.5,0.5,0.8,0.5c0.5-0.1,0.8-0.5,0.8-0.9c0-0.5-0.5-0.8-0.9-0.8c-0.4,0-0.7,0.3-0.7,0.7
			c-0.1-0.3-0.2-0.6-0.3-0.9c0.2,0.3,0.7,0.4,1,0.2c0.4-0.2,0.6-0.7,0.4-1.1c-0.2-0.4-0.7-0.6-1.1-0.4c-0.4,0.2-0.5,0.6-0.4,1
			c-0.2-0.3-0.4-0.6-0.7-0.8c0.3,0.2,0.8,0.1,1-0.2c0.3-0.3,0.3-0.9-0.1-1.2s-0.9-0.3-1.2,0.1c-0.3,0.3-0.3,0.8,0,1.1
			c-0.3-0.2-0.6-0.4-1-0.6c0.4,0.1,0.8-0.1,0.9-0.5c0.2-0.4,0-0.9-0.5-1.1c-0.4-0.2-0.9,0.1-1.1,0.5c-0.1,0.4,0,0.8,0.4,1
			c-0.4-0.1-0.7-0.2-1.1-0.2c0.4-0.1,0.6-0.4,0.6-0.8c0-0.5-0.4-0.8-0.8-0.8s-0.8,0.4-0.8,0.8c0,0.4,0.3,0.7,0.7,0.8
			c-2,0.2-3.6,1.8-3.6,3.9c0,0.4,0,0.8,0.2,1.1c-0.2-0.4-0.6-0.6-1-0.4c-0.4,0.1-0.7,0.6-0.5,1.1C212.1,67.3,212.6,67.5,213.1,67.3z
			"/>
		<polygon class="st1" points="51.7,105.2 51.9,105.4 51.8,105.2 		"/>
		<polygon class="st1" points="53.5,105.2 53.5,105.3 53.5,105.2 		"/>
		<polygon class="st1" points="53.8,109.3 53.8,109.2 53.9,109.3 		"/>
		<polygon class="st1" points="53.9,98.6 54.2,98.3 54.4,98.1 54.6,97.8 54.8,97.5 54.9,97.2 55,96.9 55,96.6 55,96.3 55,95.7 
			54.8,95.2 54.5,94.7 54.2,94.3 53.7,93.9 53.2,93.6 52.7,93.5 52.1,93.4 51.7,93.4 51.4,93.5 51,93.6 50.7,93.8 50.4,94 
			50.2,94.2 49.9,94.5 49.6,94.8 49,95.8 48.6,97 48.4,98.4 48.5,100 48.9,101.5 49.5,103 50.5,104.3 51.9,105.4 51.6,104.2 
			51.5,103.1 51.5,102.2 51.7,101.3 52,100.6 52.5,99.8 53.1,99.2 		"/>
		<polygon class="st1" points="47.4,100.4 47.4,99.7 47.3,99 47,98.5 46.6,98 46.2,97.6 45.7,97.3 45.1,97.2 44.5,97.1 44,97.2 
			43.5,97.3 42.9,97.6 42.5,98 42,98.6 41.8,99.2 41.7,100 41.7,100.7 41.8,101.3 42,101.8 42.2,102.4 42.6,103 43,103.6 
			43.5,104.1 44,104.7 44.6,105.2 45.2,105.6 45.9,106 46.7,106.3 47.4,106.6 48.2,106.8 49.1,106.8 49.9,106.8 50.8,106.6 
			49.7,106 48.9,105.3 48.3,104.6 47.8,103.9 47.5,103.1 47.3,102.3 47.3,101.3 		"/>
		<polygon class="st1" points="44.1,106.2 43.9,105.9 43.6,105.7 43.3,105.5 43.1,105.4 42.7,105.2 42.4,105.2 42.1,105.1 
			41.8,105.1 41.3,105.2 40.7,105.3 40.2,105.6 39.8,106 39.4,106.4 39.1,106.9 39,107.4 38.9,108 39,108.4 39,108.8 39.1,109.1 
			39.3,109.4 39.5,109.7 39.7,110 40,110.2 40.3,110.5 40.7,110.8 41.3,111.1 41.9,111.3 42.5,111.5 43.2,111.6 44,111.7 
			44.7,111.7 45.5,111.6 46.3,111.5 47.1,111.3 47.8,111 48.5,110.6 49.2,110.2 49.8,109.6 50.4,109 50.9,108.3 50.3,108.4 
			49.7,108.5 49.2,108.6 48.7,108.7 48.2,108.7 47.7,108.7 47.3,108.6 46.9,108.4 46.5,108.3 46.1,108.1 45.7,107.9 45.4,107.6 
			45.1,107.3 44.7,107 44.4,106.6 		"/>
		<polygon class="st1" points="45.9,112.7 45.5,112.7 45.2,112.7 44.9,112.7 44.5,112.8 44.2,113 44,113.1 43.7,113.3 43.5,113.5 
			43.1,114 42.9,114.5 42.7,115 42.7,115.6 42.7,116.1 42.9,116.7 43.1,117.2 43.5,117.6 43.8,117.9 44.1,118.1 44.4,118.2 
			44.8,118.3 45.1,118.4 45.5,118.4 45.9,118.4 46.2,118.4 46.8,118.3 47.4,118.1 48,117.9 48.5,117.6 49.1,117.1 49.7,116.7 
			50.2,116.1 50.7,115.5 51.2,114.9 51.6,114.2 51.9,113.5 52.1,112.7 52.3,111.9 52.4,111 52.3,110.2 52.1,109.3 51.8,109.9 
			51.5,110.4 51.2,110.8 50.9,111.2 50.5,111.6 50.2,111.9 49.8,112.1 49.4,112.3 49,112.5 48.6,112.6 48.2,112.7 47.8,112.8 
			47.3,112.8 46.9,112.8 46.4,112.8 		"/>
		<polygon class="st1" points="51.8,116 51.5,116.3 51.2,116.5 51,116.8 50.9,117 50.8,117.4 50.7,117.7 50.6,118 50.6,118.3 
			50.7,118.8 50.9,119.4 51.1,119.9 51.5,120.3 51.9,120.7 52.4,121 53,121.2 53.5,121.2 53.9,121.2 54.3,121.1 54.6,121 
			54.9,120.8 55.2,120.6 55.5,120.4 55.8,120.1 56,119.8 56.6,118.8 57.1,117.6 57.2,116.2 57.2,114.6 56.8,113.1 56.1,111.6 
			55.2,110.3 53.8,109.2 54.1,110.4 54.2,111.5 54.2,112.4 54,113.3 53.6,114 53.1,114.7 52.5,115.4 		"/>
		<polygon class="st1" points="58.2,114.2 58.2,114.9 58.4,115.6 58.6,116.1 59,116.6 59.5,117 60,117.2 60.5,117.4 61.1,117.5 
			61.7,117.4 62.2,117.2 62.7,117 63.2,116.6 63.6,116 63.9,115.4 64,114.6 64,113.9 63.9,113.3 63.7,112.8 63.4,112.2 63.1,111.6 
			62.7,111 62.2,110.5 61.7,109.9 61.1,109.4 60.4,109 59.7,108.6 59,108.2 58.2,108 57.4,107.8 56.6,107.8 55.7,107.8 54.9,108 
			55.9,108.6 56.8,109.3 57.4,110 57.9,110.7 58.2,111.5 58.3,112.3 58.3,113.3 		"/>
		<polygon class="st1" points="61.5,108.4 61.8,108.7 62,108.9 62.3,109.1 62.6,109.2 62.9,109.3 63.2,109.4 63.5,109.5 63.8,109.5 
			64.4,109.4 64.9,109.3 65.4,109 65.9,108.6 66.2,108.2 66.5,107.7 66.7,107.2 66.7,106.6 66.7,106.2 66.6,105.8 66.5,105.5 
			66.3,105.2 66.1,104.9 65.9,104.6 65.7,104.4 65.4,104.1 64.9,103.8 64.4,103.5 63.8,103.3 63.1,103.1 62.4,103 61.7,102.9 
			60.9,102.9 60.1,103 59.4,103.1 58.6,103.3 57.8,103.6 57.1,104 56.4,104.4 55.8,105 55.2,105.6 54.8,106.3 55.4,106.2 55.9,106 
			56.5,106 57,105.9 57.5,105.9 57.9,106 58.4,106 58.8,106.2 59.2,106.3 59.6,106.5 59.9,106.7 60.3,107 60.6,107.3 60.9,107.6 
			61.2,108 		"/>
		<polygon class="st1" points="59.8,101.9 60.1,101.9 60.5,101.9 60.8,101.8 61.1,101.8 61.4,101.6 61.7,101.5 61.9,101.3 
			62.1,101.1 62.5,100.7 62.8,100.1 62.9,99.6 63,99 62.9,98.5 62.8,97.9 62.5,97.4 62.1,97 61.9,96.7 61.6,96.5 61.2,96.4 
			60.9,96.3 60.5,96.2 60.2,96.1 59.8,96.1 59.4,96.2 58.9,96.3 58.3,96.4 57.7,96.7 57.1,97 56.5,97.5 56,97.9 55.4,98.5 
			54.9,99.1 54.5,99.7 54.1,100.4 53.8,101.1 53.5,101.9 53.4,102.7 53.3,103.5 53.3,104.4 53.5,105.3 53.8,104.7 54.1,104.2 
			54.5,103.8 54.8,103.4 55.2,103 55.5,102.7 55.8,102.5 56.2,102.3 56.6,102.1 57,102 57.4,101.9 57.9,101.8 58.3,101.8 
			58.8,101.8 59.3,101.8 		"/>
		<path class="st0" d="M134.7,39.4c0,0,0.7,1.4,1.3,2.2c0.6,0.8,0.5,2.2-0.8,3.2c-1.3,0.9-3.4,1.5-4.4,1.7c-1,0.2-1.5,0.2-1.5,0.2
			s-0.5,0-1.6-0.2c-1-0.2-3.1-0.8-4.4-1.7c-1.3-0.9-1.4-2.3-0.8-3.2c0.6-0.8,1.3-2.2,1.3-2.2l-0.3-0.3c0,0-1.4,0.7-2.2,1.3
			c-0.8,0.6-2.2,0.5-3.1-0.8c-0.9-1.3-1.5-3.3-1.7-4.4s-0.2-1.6-0.2-1.6s0-0.5,0.2-1.6c0.2-1,0.8-3.1,1.7-4.4s2.3-1.3,3.1-0.8
			c0.8,0.6,2.2,1.3,2.2,1.3l0.3-0.4c0,0-0.7-1.4-1.3-2.2c-0.6-0.8-0.5-2.2,0.8-3.2c1.3-0.9,3.4-1.5,4.4-1.7c1-0.2,1.6-0.2,1.6-0.2
			s0.5,0,1.5,0.2s3.1,0.8,4.4,1.7c1.3,0.9,1.4,2.3,0.8,3.2c-0.6,0.8-1.4,2.2-1.4,2.2l0.3,0.3c0,0,1.4-0.7,2.2-1.3
			c0.8-0.6,2.2-0.5,3.1,0.8c0.9,1.3,1.5,3.3,1.7,4.4s0.2,1.6,0.2,1.6s0,0.5-0.2,1.6c-0.2,1-0.8,3.1-1.7,4.4s-2.3,1.3-3.1,0.8
			c-0.8-0.6-2.2-1.3-2.2-1.3L134.7,39.4z M123.3,33.8c0-3.2,2.6-5.8,5.8-5.8c3.2,0,5.8,2.6,5.8,5.8s-2.6,5.8-5.8,5.8
			C125.9,39.6,123.3,37,123.3,33.8z M126.4,33.8c0-1.5,1.2-2.6,2.6-2.6c1.5,0,2.6,1.2,2.6,2.6s-1.2,2.6-2.6,2.6
			C127.6,36.5,126.4,35.3,126.4,33.8z"/>
		<path class="st3" d="M101.9,84c0,0,1.9-0.8,3.6-2.3c1.6-1.6,2.6-3.6,2.9-5.1c0.3-1.5,0.6-3.3,0.6-3.3s-3.1-0.3-5.3-0.7
			c-1.9-0.3-4.8-1.1-4.8-1.1s-0.3,1.8-0.5,3.3c-0.2,1.5,0,3.7,1,5.7C100.5,82.6,101.9,84,101.9,84z M97.9,73.3c0,0-0.5-2.4,0.6-3.6
			c1.1-1.2,2.6-1.8,3.8-1.9s2.8-1.1,2.8-1.1s1.1,1.5,2.2,2c1.1,0.5,2.2,1.6,2.9,3.1c0.6,1.5-0.7,3.6-0.7,3.6s2.4,0.8,2.8,2.3
			c0.5,1.6,0.3,3.1-0.2,4.2s-0.5,3-0.5,3s-1.9,0.3-2.9,1c-1,0.7-2.5,1.1-4.1,0.9c-1.6-0.2-2.8-2.4-2.8-2.4s-1.8,1.7-3.4,1.3
			c-1.6-0.4-2.9-1.3-3.6-2.3s-2.3-1.9-2.3-1.9s0.7-1.7,0.6-3c-0.1-1.2,0.3-2.7,1.3-4C95.4,73.3,97.9,73.3,97.9,73.3z M91.5,75.6
			c1.1-6.4,7.2-10.7,13.6-9.5c6.4,1.1,10.7,7.2,9.5,13.6c-1.1,6.4-7.2,10.7-13.6,9.5C94.6,88.1,90.3,82,91.5,75.6z"/>
		<path class="st2" d="M37.9,124l23.2,12.9c0,0-10.3,34.8-10.8,35.8c-0.7,1.4-1.2,1.8-2.5,2.8c-0.9,0.7-2.6,1.2-2.6,1.2l-26.1-14.3
			l11-32.8l1.9,1l-10.1,30.9l23.7,13.1c0,0,2.2-0.5,3.2-2.4c0.8-1.4,0.8-2,0.9-2.7l-22.8-12.7L37.9,124z"/>
		<path class="st2" d="M331.1,113.1c0-2.7,2.2-4.9,4.9-4.9s4.9,2.2,4.9,4.9s-2.2,4.9-4.9,4.9C333.3,117.9,331.1,115.8,331.1,113.1z"
			/>
		<path class="st0" d="M259.2,145c-1.5,1-3,1.4-4.5,0.1c-0.9-0.9-1.4-2-1.5-3.3c-1.8,0.9-4.1,1.5-5.8,0c-1.3-1.2-1.1-3.6-1-5.2
			l-0.9,0.5c-3,3.2-4.3,7.4-6.9,10.2c-1.1,1.1-5.3,5.5-7,4c-1.8-1.6,1.4-8.6,2.2-10.4c1.6-3.7,3.1-7.4,5.5-10.8
			c2.6-3.8,5.4-7.9,8.4-11.2c1.8-1.9,2.6-2.3,5-3.3l8.7-3.4c3-1,3.6-1.6,5.8-3.7c1.3-1.3,2.2-2.1,4-1.8c2.9,0.4,6,2.7,8.1,4.7
			c2,1.9,4.8,5.3,5.5,7.9c0.2,1.1-0.7,1.9-1.2,2.7l-2.6,3.6c-1.4,1.9-1.4,1.6-2,3.8c-0.9,3.9-1,5.8-3.8,8.8c-2.3,2.5-6.4,5.6-9,7.5
			c-1.9,1.3-4,2.5-6,0.7L259.2,145z"/>
		<path class="st2" d="M339.4,180.4c0,0,3.1-1.9,3.7-4.4c0.7-3.2-0.4-6.2-2.6-8.3s-5.7-1.8-5.7-1.8L339.4,180.4z M330.1,148.5
			c0,0,4.8-3.8,6.4-7.5c1.6-3.7,2.6-6.2,2-10.1c-0.6-4-3.8-5.1-6.3-4.1s-4.1,4.7-4.1,8.4C328.2,138.9,330.1,148.5,330.1,148.5z
			 M332.7,166.1c0,0-2.4,0.6-3.7,2.5c-1,1.6-1.2,4.7-1.2,4.7s-1.4-0.2-1.8-2.1c-0.4-2-1-3.5,0.6-6.2c1.6-2.7,5.1-4,5.1-4l-2-5.9
			c0,0-3.5,2.8-6.1,7.8c-2.7,5.2-2.7,12.8,2.8,16.5c5.5,3.7,11.8,1.8,11.8,1.8L332.7,166.1z M329,149.3c0,0-2.3-9.6-2.5-14.1
			c-0.2-4.5,1-8.4,3.3-10.4s9-4.1,11.8,5.3c2.7,9.4-4.6,18.2-7.4,21c-2.2,2.2-3,2.8-3,2.8l2.1,7c0,0,4.3-1.2,8,1.6
			c4.4,3.2,6,10.5,4.2,14.6c-2,4.3-5.5,5.6-5.5,5.6s1.5,3.9,1.3,7.6c-0.2,4.4-1.7,7.3-6.2,8.3c-1.7,0.4-3.2,0-4.4-0.5
			c-2.4-0.7-4.1-2.9-4.1-5.5c0-3.1,2.5-5.7,5.7-5.7c3.1,0,5.7,2.5,5.7,5.7c0,1.8-0.8,3.3-2.1,4.4c0.9-0.2,1.6-0.7,2.5-2
			c1.8-2.3,1.8-6,1.4-7.8c-0.4-1.8-1.4-4.3-1.4-4.3c-2.6,0.5-6,1-10-0.4s-10.4-5.5-10.4-14.7c0-9.2,6-14.1,7.4-15.5
			C326.8,150.8,329,149.3,329,149.3z"/>
		<path class="st2" d="M73.2,124c-0.9-0.3-1,0-2,0.2c0-1.2,4.1-2.4,4.9-3c0,0-3.9-0.4-6.2,0.1c-0.8-0.1-1.3,0.1-1.9-0.2
			c-0.2,0-0.4-0.1-0.5-0.1c-0.2,0.1-0.5,0.1-0.9,0.2c0-1.1,5.3-1.3,6.1-1.9c0,0-3.8-0.4-6,0.1c-0.8-0.1-1.2,0.1-1.8-0.2
			c-0.2,0-0.3-0.1-0.5-0.1c0.3-1.1,7.4-1,9-1c1.5-0.5,1.8-2.4,2.4-4.1c0.2-0.5,0.4-1,0.5-1.4c0.4-1.6,0.5-3.7,0.5-3.9
			c-0.1-0.1,0-0.4-0.1-0.5c0-0.3-0.3-0.7,0.1-0.9c-0.2-0.2,0.3-0.4,0-0.6c0.3-0.2,0.1-0.2,0-0.3c0.2-0.1,0-0.3,0-0.5
			c-0.5-0.1-0.1-0.6-0.2-0.9c-0.7-1.2-2.3-1.5-3.2-2.4c-0.8-0.1-1.2-0.8-1.9-1c-0.2-0.1-0.4-0.5-0.8-0.4c-0.6-0.9-1.7-1.2-2.3-2.1
			c-2.1-1.9-2.8-4.5-3.9-7c0-1.1-0.6-2-0.7-3.1c0-0.6,0-1.2-0.3-1.8c-0.1-2-0.4-3.9-0.2-5.9c0-2,0.4-3.5,0.6-5.4
			c0.5-3.3,4.2-4.7,4.4-8.1c0.2-1.8,1.2-3.2,1.9-4.8c0.3-0.4-0.1-0.8-0.3-1.2c-1.4-1-2.8-1.8-4.2-2.8c-0.2-0.3-0.8-0.5-0.9-1
			c0.1-0.1,0.4-0.2,0.6-0.3c0.9,0.6,1.7,1.1,2.5,1.5c1.4,0.5,2.9,1,4.2,1.9c0.2,0.1,0.6,0.4,0.8,0c-0.2-0.7-0.4-1.3-1.6-2.9
			c-1.2-1.6-2.5-2.9-4.3-4c0.2-0.1,0.5-0.1,0.8-0.2c2.2,0.7,3.8,2.2,5.7,3.6c1.4,0.7,3.1-0.2,4.6,0.3c1.3,0.5,2.7,0.8,3.5,2
			c0.4,0.5,1,0.6,1.1,1.4c0.5,0.8,0.8,1.6,1.2,2.4c0.1,1.4,0.4,2.6,0.3,3.9c-0.1,2.5-1.2,4.9-1.1,7.4c0.5,3.3,2.9,5.6,4.4,8.4
			c0.1,0.1,2.6,5,3.4,7.5c0.4,1.7,0.9,3.6,1.6,5.2c0,0.6,0.1,1.1,0.4,1.5c0.3,1.7,1.5,3,2.4,4.4c3.8,4.5,7.4,9.2,11.1,13.6
			c3.3,3.7,6.1,7.9,9.7,11.3c0.2,0.2,0.2,0.6-0.1,0.7c-0.4,0.2-1,0-1.4-0.1c-1.4-0.3-1.9-1.9-3.1-2.3c-1-0.6-0.9,0.8-1.7,0.8
			c-0.5-0.1-0.9-0.4-1-0.8c-1.2,0.1-1.8-1.3-2.3-2.1c-2.4-3.5-5.2-6.7-8-9.8c-1.8-2.2-3.6-4.3-5.6-6.3c-0.2-0.1-0.5-0.5-0.7-0.5
			c0.8,3.3,2,6.3,2.4,9.7c0.3,0.7,0,1.6,0.5,2.2c-1.2-0.6-1.4-1.7-2.1-2.5c-0.2-1.1-1.2-2.1-1.7-3.1c-1.1-1.7-2.4-3.4-3.2-5.2
			c-0.3-0.5-0.4-1.2-0.8-1.5c-0.4,0.3-0.9,0.2-1.4,0.3c-0.6,1.3,1.3,2.7-0.1,3.9c0.2,1,0.7,1.9,0.6,3c-0.2,0.3-0.2,0.8-0.8,0.7
			c-0.9-0.7-2.3-3.3-3.4-4c-0.4,1.4-0.8,3-1,4.4l-0.1,0.9c-0.3,0.9-0.3,1.9-0.6,2.9c1.4,0.2,2.4,0.6,1.8,1.2c-0.5-0.2-1.4,0-1.9-0.2
			c-0.1,0-0.2,0-0.3,0c0,0.2-0.1,0.3-0.1,0.5c0.1,0.1,7.5,0.1,6,1.6c-0.5-0.2-1.5,0-2-0.2c-2.9-0.8-5.2,0.1-7.1,0.6
			C75.1,122.7,74.7,123.8,73.2,124z M73.2,120c1.2,0,3.1,0,3.7,0c0.6-0.2,0.4-0.6,0.8-1c-1.5,0.1-3.1,0.6-4.2,0.9L73.2,120z
			 M78.1,118c0.7-1.3,1.1-2.9,1.6-3.8c0.3-1.4,0.8-4.3,0.6-4.3c-0.2,0-1.6-0.7-1.8-0.7c-0.2,0-0.6,2.1-0.8,3.6l-0.2,0.9
			c-0.3,1.2-0.6,2.2-0.9,3.8c0,0.2-0.1,0.3-0.1,0.5C76.5,118,77.2,118,78.1,118z"/>
		<path class="st0" d="M134.8,90.2c0.4,1.7,2.7,3.7,5.2,3.3l4-0.6c1.7-0.2,3-1.5,3.6-2.8h1.3c-0.4,1.8-1.7,3.8-4.8,4.3l-3.8,0.5
			c-4.6,0.6-6.3-3.1-6.5-4.8L134.8,90.2z M133.2,90.2c0.3,1.9,2.1,6.2,7.1,5.5l4.1-0.6c3.4-0.5,4.8-2.8,5.2-4.9h2.8
			c0,0.3,0,0.5,0,0.7c0.3,2.2,0.3,9.2-7.5,10.3l-3.3,0.5c-7.9,1.1-9.8-5.7-10.1-7.9c-0.1-1-0.7-2.3-1.6-3.7L133.2,90.2z"/>
		<path class="st0" d="M145.3,52.2c-0.1-0.1-0.1-0.3-0.2-0.4c0,0.1,0,0.2,0.1,0.3L145.3,52.2z M134.9,69c-1.7-1.7-5.9-2.6-11.6,2.2
			C124.9,72.3,130.2,75.9,134.9,69z M133.6,65.5c-1.4-2.2-7.7-5.4-10.5,0C126,63.6,129.3,63.4,133.6,65.5z M134.3,59.8
			c-2.5-2.2-5.4-2.2-6.4-1.2c-0.9,1,1.4,1,2.6,0.4C131.5,58.3,133.6,59.5,134.3,59.8z M142.1,68.8c1-2.2,4.6-4.5,11.6-1.9
			C152.7,68.6,148.1,73.4,142.1,68.8z M142.2,64.1c0.8-2.5,6.1-7.1,10.2-2.5C149.2,60.4,145.9,60.9,142.2,64.1z M140.2,59
			c1.8-2.8,4.6-3.6,5.8-2.9c1.2,0.7-1,1.3-2.4,1.1C142.5,56.8,140.8,58.5,140.2,59z M137.6,81.2c0,0-1,0.3-1.7-0.4
			c-0.7-0.7-0.8-1.6-0.5-2.2c0.4-0.6,1-0.8,1-0.8s-0.6,0.7-0.5,1.7C136.1,80.6,137.6,81.2,137.6,81.2z M143,80.5c0,0,1.1,0,1.5-0.9
			s0.3-1.8-0.2-2.2c-0.5-0.4-1.1-0.5-1.1-0.5s0.8,0.5,0.9,1.5C144.3,79.4,143,80.5,143,80.5z M129.8,90.2c-1.1-1.6-2.7-3.4-4.9-4.8
			c-4-2.6-4.6-6.7-3.2-8.7s-0.4-4.3-1.3-6c-0.5-0.9-0.8-1.8-1-2.6c-0.8,0.1-1.8-0.3-2.9-1.9c-2.6-4,0.9-10.4,3.6-11.8
			c2.6-1.6,5.4-2.3,7.5-3.4c0.1,0.8,0.2,1.5,0.2,2.2c0.8-2.9,5.3-3.7,7.2-4.2c-0.1,0.2-0.1,0.3-0.2,0.5c0.4-0.2,1.5-0.3,2-0.3
			c-0.1-0.1-0.2-0.3-0.3-0.4c2-0.1,6.5-0.5,8.1,2.1c-0.2-0.6-0.4-1.3-0.4-2.1c2.3,0.5,5.1,0,8.1,1.2c2.9,0.6,8.1,5.8,6.7,10.3
			c-0.6,1.8-1.4,2.6-2.2,2.6c0.1,0.9,0,1.8-0.2,2.8c-0.5,1.9-1.5,4.6,0.4,6.1c1.9,1.5,2.5,5.6-0.6,9.2c-2.8,3.3-4,6.9-4,9.2h-2.8
			c0.2-1.2,0.2-2.3,0-2.9c-0.5-1.4-0.6-4.5-0.2-6.1c0.4-1.6-1.6-0.9-2.3-0.4c0.7-0.5,2.2-0.2,1.8,1.2c-0.4,1.4-0.3,4.2,0.2,5.4
			c0.2,0.5,0.2,1.5,0,2.7h-1.3c0.4-0.8,0.6-1.7,0.4-2.4c-0.5-1.6,0-4.3,0.2-5.7c0.2-1.4-1.4-1-1.7-0.2s-1.5,3.4-3.7,3.7l-3.6,0.5
			c-2.1,0.3-4-1.9-4.6-2.5c-0.6-0.6-2.1-0.6-1.6,0.7c0.5,1.3,1.7,3.7,1.7,5.4c0,0.2,0,0.3,0.1,0.5l-1,0c0-0.2,0-0.4,0-0.6
			c0.1-1.3-0.6-4-1.4-5.3s0.4-2.1,1.1-1.8c-0.8-0.3-2.8-0.2-1.9,1.2c0.9,1.4,1.6,4.5,1.5,5.9c0,0.2,0,0.3,0,0.6H129.8z"/>
		<path class="st0" d="M93.3,47.3c0.8-2.5,3.3-4.1,5.8-3.8c0-0.6,0.1-1.3,0.3-1.9c0.9-2.9,4.1-4.5,7-3.6c2.9,0.9,4.5,4.1,3.6,7
			c-0.2,0.6-0.5,1.1-0.8,1.6c2.5,1.2,3.9,4.1,3,6.8c-0.9,2.9-4.1,4.5-7,3.6c-1.6-0.5-2.9-1.8-3.5-3.3c-1.4,0.9-3.1,1.2-4.7,0.6
			C94,53.4,92.4,50.2,93.3,47.3z M90.2,46.2c1-3.1,3.6-5.2,6.5-5.8c1.5-4.5,6.4-6.9,10.9-5.5c4.5,1.5,7,6.3,5.6,10.8
			c2.1,2.2,2.9,5.5,1.9,8.6c-1.5,4.5-6.4,7-10.9,5.6c-1.6-0.5-2.9-1.4-3.9-2.5c-1.5,0.3-3.1,0.3-4.6-0.2
			C91.2,55.7,88.7,50.8,90.2,46.2z M91.6,46.9c0.9-2.8,3.3-4.6,6-5c0.1-0.4,0.1-0.7,0.3-1.1c1.3-3.9,5.5-6.1,9.5-4.8
			c3.9,1.3,6.1,5.5,4.8,9.5c-0.1,0.3-0.2,0.7-0.4,0.9c2.1,1.9,3,4.9,2,7.7c-1.3,3.9-5.4,6-9.3,4.7c-1.5-0.5-2.8-1.4-3.7-2.7
			c-1.4,0.5-3,0.5-4.5,0C92.4,55,90.3,50.8,91.6,46.9z"/>
		<polygon class="st1" points="194.6,0.5 190.4,8.4 183.5,9.9 188.4,2 		"/>
		<polygon class="st1" points="200.6,6.2 195.3,7.3 199.5,0 		"/>
		<polygon class="st1" points="178.3,11.1 171.8,12.5 177.2,4.5 183.2,3.2 		"/>
		<polygon class="st1" points="171.2,5.9 166.6,13.6 160.7,15 165.4,7.2 		"/>
		<polygon class="st1" points="154.9,16.2 153.3,10.1 153.4,9.8 159.4,8.5 		"/>
		<polygon class="st1" points="154.7,17.2 159.2,23.9 165.9,24.9 161.4,18 167.4,18.8 172,25.7 179.7,26.8 174.6,19.8 180.4,20.7 
			185.5,27.6 191.4,28.4 186.2,21.5 192.5,22.4 197.7,29.3 194.5,51.5 150.9,45.3 		"/>
		<path class="st1" d="M373.7,154.4l28-1c0,0,9.6,37,9.6,38.1c0.1,1.6-0.1,2.3-0.7,3.9c-0.4,1.2-1.7,2.5-1.7,2.5l-31.3,1.2
			l-7.8-35.5l2.2-0.1l7.7,33.4l28.5-1.1c0,0,1.7-1.6,1.6-3.9c-0.1-1.7-0.4-2.2-0.6-3l-27.5,0.9L373.7,154.4z"/>
		<path class="st1" d="M140.7,19.6c0-2.7,2.2-4.9,4.9-4.9c2.7,0,4.9,2.2,4.9,4.9s-2.2,4.9-4.9,4.9C142.9,24.5,140.7,22.3,140.7,19.6
			z"/>
		<path class="st2" d="M264.7,39.8l-20.2,9.4c0,0,6.6,29.7,7,30.5c0.5,1.2,0.9,1.6,1.9,2.5c0.7,0.7,2.1,1.2,2.1,1.2l22.6-10.5
			l-7.3-28l-1.6,0.8l6.6,26.4l-20.6,9.5c0,0-1.8-0.5-2.5-2.2c-0.5-1.2-0.5-1.7-0.6-2.3l19.8-9.3L264.7,39.8z"/>
		<path class="st0" d="M165.4,76.1l4.5,1.5l0.8-2.2l2,0.7l-0.8,2.2l5.1,1.8l2.8-3.1l12.8,4.4l0.3,4.2l11.3,3.9l-7.7,22.3l-38.8-13.4
			L165.4,76.1z M171.6,90.7c1.8-5.2,7.4-7.9,12.6-6.1s7.9,7.4,6.1,12.5c-1.8,5.2-7.4,7.9-12.6,6.1
			C172.6,101.5,169.9,95.9,171.6,90.7z M174.1,91.6c1.3-3.8,5.5-5.8,9.2-4.5c3.8,1.3,5.8,5.4,4.5,9.2c-1.3,3.8-5.5,5.8-9.2,4.5
			C174.8,99.5,172.8,95.4,174.1,91.6z"/>
		<path class="st2" d="M286.7,164c-9.5,1.7-16.4,9.4-17.1,19c-0.5,7.8,3.7,13.7,10.1,14.1c5.5,0.4,10.1-3.5,10.5-8.9
			c0.2-3.6-0.9-6.1-3.8-8.1c-2.1-1.5-2.8-2.3-2.6-3.8c0.2-2.8,3.5-5,8.5-5.8L286.7,164z"/>
		<path class="st2" d="M309.5,165.6c-9.4,1.7-16.3,9.4-17,19.1c-0.5,7.8,3.6,13.7,10.1,14.1c5.5,0.4,10.1-3.6,10.5-8.9
			c0.2-3.6-1-6.1-3.8-8.1c-2.2-1.6-2.8-2.3-2.6-3.8c0.2-2.8,3.5-5,8.4-5.8L309.5,165.6z"/>
		<path class="st0" d="M262,162.8c1-0.1,2.7-0.2,3.2-0.3c0.9,0,2.8,0.9,2.8,3.1s-1,4.1-1.4,4.9c-0.4,0.8-2.1,3.7-3.8,4.4
			c-1.6,0.8-3.4,0.1-3.8-0.6c-0.3-0.5-0.9-1.6-1.3-2.4c0.1-0.1,0.2-0.2,0.3-0.2c0.4-0.3,2-1.6,2.3-2.6c0.3-1.1-0.1-2.2-0.1-2.2
			s1.5-0.6,1.8-1.9C262.3,164.1,262.2,163.4,262,162.8z M257.4,172.2c0.4,0.9,1,2.4,1.2,2.9c0.3,0.8,0,2.9-2.1,3.6
			c-2.1,0.8-4.2,0.3-5.1,0.1s-4.1-0.9-5.4-2.2c-1.2-1.3-1.2-3.2-0.6-3.8c0.3-0.4,1.2-1.2,1.8-1.9c0.2,0.1,0.3,0.2,0.4,0.3
			c0.4,0.3,2.1,1.4,3.2,1.4c1.1,0,2-1,2-1s1.1,1.5,2.5,1.3C256.1,172.9,256.9,172.5,257.4,172.2z M246.8,170.6
			c-0.8,0.7-1.9,1.6-2.3,2c-0.7,0.5-2.7,0.9-4.1-0.9c-1.4-1.8-1.6-3.9-1.7-4.8c-0.1-0.9-0.4-4.2,0.5-5.8c0.9-1.6,2.6-2.1,3.5-1.7
			c0.5,0.2,1.6,0.8,2.4,1.2c-0.1,0.2-0.1,0.4-0.2,0.6c-0.2,0.5-0.7,2.5-0.3,3.5s1.5,1.6,1.5,1.6s-1,1.5-0.5,2.8
			C245.9,169.7,246.4,170.2,246.8,170.6z M245.2,160.1c-0.9-0.5-2.2-1.3-2.6-1.6c-0.7-0.5-1.7-2.3-0.4-4.2s3.2-2.7,4-3.1
			c0.8-0.4,3.9-1.7,5.7-1.3s2.8,1.9,2.7,2.7c0,0.6-0.2,1.9-0.4,2.8c-0.3,0-0.5,0-0.6,0c-0.5,0-2.5,0.1-3.4,0.8c-0.9,0.7-1,1.9-1,1.9
			s-1.8-0.5-2.8,0.4C245.8,158.9,245.4,159.5,245.2,160.1z M254.7,155.4c0.2-1,0.6-2.6,0.8-3.1c0.2-0.8,1.7-2.4,3.9-1.7
			c2.2,0.6,3.6,2.2,4.2,2.9c0.6,0.6,2.8,3.2,3,5c0.2,1.8-0.9,3.2-1.8,3.4c-0.5,0.1-1.9,0.4-2.8,0.5c-0.1-0.2-0.1-0.4-0.2-0.5
			c-0.2-0.5-0.9-2.4-1.8-3c-0.9-0.6-2.2-0.5-2.2-0.5s0-1.7-1.2-2.4C255.9,155.6,255.2,155.4,254.7,155.4z"/>
		<path class="st0" d="M252.9,168.6c0,0,0,1.5-0.1,2c0,0.5-0.7,1.2-1.7,1.2c-1,0-2.5-1-2.9-1.2c-0.4-0.3-1.4-0.9-1.9-2.1
			s0.2-2,0.6-2.2c0.4-0.2,2.1-0.8,2.1-0.8l0-0.2c0,0-1.5,0.4-1.9,0.5c-0.5,0.1-1.4-0.3-1.7-1.3s0.1-2.7,0.3-3.2
			c0.1-0.5,0.5-1.6,1.4-2.4c0.9-0.8,2-0.4,2.3-0.1c0.3,0.4,1.4,1.7,1.4,1.7l0.2-0.1c0,0-0.9-1.3-1.2-1.7c-0.2-0.4-0.1-1.4,0.7-2
			c0.8-0.6,2.6-0.7,3.1-0.7s1.6-0.1,2.7,0.6c1.1,0.6,1,1.8,0.8,2.1c-0.2,0.4-1.2,1.9-1.2,1.9l0.2,0.2c0,0,0.9-1.3,1.2-1.6
			c0.3-0.4,1.3-0.5,2.1,0s1.5,2.3,1.6,2.7c0.1,0.5,0.6,1.5,0.3,2.8c-0.2,1.2-1.4,1.5-1.8,1.4c-0.5-0.1-2.2-0.6-2.2-0.6l-0.1,0.2
			c0,0,1.5,0.5,1.9,0.7c0.4,0.2,0.9,1.1,0.6,2c-0.3,0.9-1.7,2.1-2.1,2.4c-0.4,0.3-1.3,1-2.5,1.1c-1.2,0.1-1.9-0.8-1.9-1.3
			c0-0.5-0.1-2.2-0.1-2.2L252.9,168.6z M252.5,161c0,0.3,0.3,0.5,0.6,0.5c0.3,0,0.5-0.3,0.5-0.6c0-0.3-0.3-0.5-0.6-0.5
			C252.7,160.5,252.5,160.7,252.5,161z M251.4,161.5c0.1,0.3,0.5,0.4,0.7,0.3c0.3-0.1,0.4-0.5,0.3-0.7c-0.1-0.3-0.5-0.4-0.7-0.3
			C251.4,160.9,251.3,161.3,251.4,161.5z M250.6,162.4c0.2,0.2,0.6,0.2,0.8,0c0.2-0.2,0.2-0.6,0-0.8c-0.2-0.2-0.6-0.2-0.8,0
			C250.4,161.8,250.4,162.1,250.6,162.4z M253.6,161c-0.1,0.3,0.1,0.6,0.4,0.7c0.3,0.1,0.6-0.1,0.7-0.4c0.1-0.3-0.1-0.6-0.4-0.7
			C254,160.5,253.7,160.7,253.6,161z M250.2,163.4c0.2,0.1,0.5,0,0.7-0.2c-0.1,0.2-0.1,0.5-0.2,0.7
			C250.7,163.7,250.4,163.5,250.2,163.4c-0.3,0-0.6,0.3-0.6,0.6c0,0.3,0.2,0.6,0.5,0.6c0.3,0,0.5-0.2,0.5-0.4c0,0.2,0,0.5,0.1,0.7
			c-0.1-0.2-0.4-0.3-0.6-0.2c-0.3,0.1-0.4,0.4-0.3,0.7c0.1,0.3,0.4,0.4,0.7,0.3c0.2-0.1,0.4-0.3,0.4-0.6c0.1,0.2,0.2,0.4,0.3,0.6
			c-0.2-0.1-0.5-0.1-0.6,0c-0.2,0.2-0.3,0.5-0.1,0.8s0.5,0.3,0.8,0.1c0.2-0.2,0.2-0.4,0.1-0.6c0.1,0.1,0.1,0.1,0.2,0.2
			c0.1,0.1,0.2,0.2,0.3,0.2c-0.2,0-0.5,0.1-0.6,0.3c-0.1,0.3,0,0.6,0.2,0.7c0.3,0.1,0.6,0.1,0.7-0.2c0.1-0.2,0.1-0.5-0.1-0.6
			c0.2,0.1,0.4,0.1,0.5,0.2c-0.2,0-0.4,0.2-0.4,0.5c0,0.3,0.2,0.6,0.5,0.6c0.3,0,0.6-0.2,0.6-0.5c0-0.2-0.1-0.5-0.3-0.6
			c0.2,0,0.4,0,0.6,0c-0.2,0.1-0.3,0.4-0.2,0.6c0.1,0.3,0.4,0.5,0.6,0.4s0.5-0.4,0.4-0.6c0-0.2-0.2-0.4-0.5-0.4
			c0.2-0.1,0.4-0.1,0.5-0.2c-0.1,0.2-0.1,0.4,0,0.6c0.2,0.2,0.5,0.3,0.8,0.1c0.2-0.2,0.3-0.5,0.1-0.8c-0.1-0.2-0.4-0.3-0.6-0.2
			c0.1-0.1,0.2-0.2,0.3-0.3c0,0,0.1-0.1,0.1-0.1c-0.1,0.2,0,0.5,0.2,0.6c0.2,0.2,0.6,0.1,0.8-0.1c0.2-0.2,0.1-0.6-0.1-0.8
			c-0.2-0.1-0.5-0.1-0.6,0c0.1-0.2,0.2-0.4,0.2-0.6c0,0.2,0.2,0.5,0.4,0.5c0.3,0.1,0.6-0.1,0.7-0.4c0.1-0.3-0.1-0.6-0.4-0.7
			c-0.2-0.1-0.5,0.1-0.6,0.3c0-0.2,0-0.5,0-0.7c0.1,0.2,0.3,0.4,0.6,0.4c0.3,0,0.5-0.3,0.5-0.6c0-0.3-0.3-0.5-0.6-0.5
			c-0.3,0-0.5,0.2-0.5,0.5c0-0.2-0.1-0.5-0.2-0.7c0.2,0.2,0.5,0.3,0.7,0.1c0.3-0.1,0.4-0.5,0.2-0.7c-0.1-0.3-0.5-0.4-0.7-0.2
			c-0.2,0.1-0.4,0.4-0.3,0.7c-0.1-0.2-0.3-0.4-0.5-0.6c0.2,0.1,0.5,0.1,0.6-0.1c0.2-0.2,0.2-0.6,0-0.8c-0.2-0.2-0.6-0.2-0.8,0
			c-0.2,0.2-0.2,0.5,0,0.7c-1.1-0.8-2.6-0.6-3.5,0.4c-0.2,0.2-0.3,0.4-0.4,0.6c0.1-0.3-0.1-0.5-0.3-0.6c-0.3-0.1-0.6,0-0.7,0.3
			C249.8,163,249.9,163.3,250.2,163.4z"/>
		<polygon class="st2" points="357.3,156.5 357.3,162.8 354.1,157.3 354.1,157.2 354,157.1 354,157 354,156.9 353.9,156.6 
			353.9,156.2 354,155.9 354.1,155.6 354.3,155.4 354.6,155.1 354.9,155 355.2,154.9 355.5,154.8 355.8,154.8 356.1,154.9 
			356.4,155 356.7,155.2 356.9,155.5 357.1,155.7 357.2,156 357.3,156.2 		"/>
		<polygon class="st2" points="357.5,156.5 357.5,162.8 360.7,157.3 360.7,157.2 360.8,157.1 360.8,157 360.9,156.9 360.9,156.6 
			360.9,156.2 360.8,155.9 360.7,155.6 360.5,155.4 360.2,155.1 360,155 359.6,154.9 359.3,154.8 359,154.8 358.7,154.9 358.4,155 
			358.1,155.2 357.9,155.5 357.7,155.7 357.6,156 357.5,156.2 		"/>
		<polygon class="st2" points="354,157.6 357.2,163.1 351.7,160 351.6,159.9 351.5,159.9 351.5,159.8 351.4,159.7 351,159.1 
			350.9,158.5 351,157.9 351.4,157.3 351.6,157.1 351.9,157 352.2,156.9 352.5,156.8 352.9,156.9 353.2,157 353.5,157.1 
			353.7,157.3 353.8,157.4 353.9,157.5 353.9,157.5 		"/>
		<polygon class="st2" points="360.8,157.6 357.6,163.1 363.1,160 363.2,159.9 363.3,159.9 363.4,159.8 363.5,159.7 363.8,159.1 
			364,158.5 363.8,157.9 363.5,157.3 363.2,157.1 362.9,157 362.6,156.9 362.3,156.8 361.9,156.9 361.6,157 361.3,157.1 
			361.1,157.3 361,157.4 361,157.5 360.9,157.5 		"/>
		<polygon class="st2" points="351.8,160.3 357.3,163.5 351,163.5 350.9,163.5 350.8,163.5 350.7,163.5 350.5,163.4 350.2,163.3 
			350,163.1 349.7,162.9 349.5,162.6 349.4,162.3 349.3,162 349.3,161.7 349.4,161.4 349.5,161 349.6,160.8 349.9,160.5 
			350.1,160.3 350.4,160.2 350.8,160.1 351.1,160.1 351.4,160.2 351.5,160.2 351.6,160.2 351.7,160.3 		"/>
		<polygon class="st2" points="363,160.3 357.5,163.5 363.8,163.5 363.9,163.5 364,163.5 364.1,163.5 364.3,163.4 364.6,163.3 
			364.9,163.1 365.1,162.9 365.3,162.6 365.4,162.3 365.5,162 365.5,161.7 365.5,161.4 365.3,161 365.2,160.8 364.9,160.5 
			364.7,160.3 364.4,160.2 364.1,160.1 363.7,160.1 363.4,160.2 363.3,160.2 363.2,160.2 363.1,160.3 		"/>
		<polygon class="st2" points="357.3,170.8 357.3,164.4 354.1,169.9 354.1,170 354,170.1 354,170.2 354,170.3 353.9,170.6 
			353.9,171 354,171.3 354.1,171.6 354.3,171.8 354.6,172.1 354.9,172.3 355.2,172.4 355.5,172.4 355.8,172.4 356.1,172.3 
			356.4,172.2 356.7,172 356.9,171.8 357.1,171.5 357.2,171.2 357.3,171 		"/>
		<polygon class="st2" points="357.5,170.8 357.5,164.4 360.7,169.9 360.7,170 360.8,170.1 360.8,170.2 360.9,170.3 360.9,170.6 
			360.9,171 360.8,171.3 360.7,171.6 360.5,171.8 360.2,172.1 360,172.3 359.6,172.4 359.3,172.4 359,172.4 358.7,172.3 
			358.4,172.2 358.1,172 357.9,171.8 357.7,171.5 357.6,171.2 357.5,171 		"/>
		<polygon class="st2" points="354,169.6 357.2,164.1 351.7,167.3 351.6,167.3 351.5,167.4 351.5,167.4 351.4,167.5 351,168.1 
			350.9,168.7 351,169.4 351.4,169.9 351.6,170.1 351.9,170.3 352.2,170.4 352.5,170.4 352.9,170.4 353.2,170.3 353.5,170.1 
			353.7,169.9 353.8,169.9 353.9,169.8 353.9,169.7 		"/>
		<polygon class="st2" points="360.8,169.6 357.6,164.1 363.1,167.3 363.2,167.3 363.3,167.4 363.4,167.4 363.5,167.5 363.8,168.1 
			364,168.7 363.8,169.4 363.5,169.9 363.2,170.1 362.9,170.3 362.6,170.4 362.3,170.4 361.9,170.4 361.6,170.3 361.3,170.1 
			361.1,169.9 361,169.9 361,169.8 360.9,169.7 		"/>
		<polygon class="st2" points="351.8,166.9 357.3,163.7 351,163.7 350.9,163.7 350.8,163.8 350.7,163.8 350.5,163.8 350.2,163.9 
			350,164.1 349.7,164.3 349.5,164.6 349.4,164.9 349.3,165.2 349.3,165.5 349.4,165.9 349.5,166.2 349.6,166.5 349.9,166.7 
			350.1,166.9 350.4,167 350.8,167.1 351.1,167.1 351.4,167.1 351.5,167 351.6,167 351.7,167 		"/>
		<polygon class="st2" points="363,166.9 357.5,163.7 363.8,163.7 363.9,163.7 364,163.8 364.1,163.8 364.3,163.8 364.6,163.9 
			364.9,164.1 365.1,164.3 365.3,164.6 365.4,164.9 365.5,165.2 365.5,165.5 365.5,165.9 365.3,166.2 365.2,166.5 364.9,166.7 
			364.7,166.9 364.4,167 364.1,167.1 363.7,167.1 363.4,167.1 363.3,167 363.2,167 363.1,167 		"/>
		<path class="st3" d="M350.9,191c-0.2-2.3,1.3-4.3,3.4-4.9c-0.2-0.5-0.4-1-0.4-1.6c-0.2-2.6,1.8-4.9,4.4-5.1
			c2.6-0.2,4.9,1.8,5.1,4.4c0,0.5,0,1.1-0.1,1.6c2.4,0.1,4.4,2,4.5,4.4c0.2,2.6-1.8,4.9-4.4,5.1c-1.5,0.1-2.9-0.5-3.8-1.5
			c-0.8,1.1-2.1,1.9-3.6,2C353.4,195.6,351.1,193.6,350.9,191z M348,191.1c-0.2-2.8,1.2-5.3,3.3-6.7c-0.2-4.1,2.8-7.6,6.9-7.9
			c4.1-0.3,7.6,2.8,7.9,6.8c2.4,1.1,4.1,3.4,4.3,6.2c0.3,4.1-2.8,7.7-6.9,7.9c-1.4,0.1-2.7-0.2-3.9-0.8c-1.1,0.8-2.4,1.2-3.7,1.3
			C351.9,198.3,348.3,195.2,348,191.1z M349.4,191.2c-0.2-2.5,1.1-4.8,3.2-5.9c-0.1-0.3-0.1-0.6-0.1-0.9c-0.2-3.6,2.4-6.6,6-6.9
			s6.6,2.4,6.9,6c0,0.3,0,0.6,0,0.9c2.3,0.8,3.9,2.9,4.1,5.5c0.2,3.5-2.4,6.5-5.9,6.8c-1.4,0.1-2.7-0.3-3.8-0.9
			c-1,0.8-2.2,1.4-3.6,1.4C352.6,197.3,349.6,194.7,349.4,191.2z"/>
		<g>
			<g>
				<defs>
					<path id="SVGID_1_" d="M319.8,76.1l-34.9,11.3c2.5,7.5,8,32.7,30.8,35.5C332.5,107.2,322.3,83.7,319.8,76.1z"/>
				</defs>
				<clipPath id="SVGID_2_">
					<use xlink:href="#SVGID_1_"  style="overflow:visible;"/>
				</clipPath>
				<polygon class="st4" points="303.2,84.5 292.6,107 297.5,121.9 308.1,99.3 329.9,111.3 325.1,96.5 				"/>
			</g>
		</g>
		<path class="st2" d="M320.5,74l-37.9,12.3l0.5,1.7c0.2,0.6,0.4,1.3,0.7,2.2c0.3,1.1,0.7,2.4,1.2,3.9c1.6,4.9,4.3,12.1,9.1,18.3
			c2.6,3.3,5.5,6,8.8,8c3.8,2.3,8,3.8,12.5,4.4l0.5,0.1l-0.5-1.5c-21-2.7-27.4-24.2-30.2-33.4c-0.3-0.9-0.5-1.6-0.7-2.2l-0.1-0.3
			l0.3-0.1l34.8-11.3L320.5,74z M321.2,73.4l-1.4,2.7l-34.9,11.3c2.5,7.5,8,32.7,30.8,35.5l0.7,2.2l-1-0.1
			c-4.9-0.6-9.1-2.2-12.7-4.4c-3.6-2.2-6.5-5-8.9-8.1c-4.8-6.1-7.5-13.1-9.2-18.4c-0.8-2.5-1.4-4.7-1.9-6l-0.6-2L321.2,73.4z"/>
		<path class="st2" d="M316.5,124.9l-0.6-1.9c15.4-14.5,8-35.7,4.8-44.7c-0.3-0.8-0.5-1.5-0.7-2.2l1.1-2.2l0.5,1.6
			c0.2,0.6,0.4,1.3,0.7,2.1c0.4,1.1,0.8,2.4,1.3,3.8c1.1,3.4,2.7,8.7,3.2,14.6c0.6,6.4-0.1,12.3-2.2,17.4c-1.7,4.1-4.2,7.8-7.6,11
			L316.5,124.9z"/>
		<path class="st2" d="M321.1,74.3l-0.9,1.8c0.2,0.6,0.4,1.3,0.7,2.1c3.2,9.1,10.6,30.3-4.8,44.8l0.5,1.5l0.4-0.3
			c3.4-3.1,5.9-6.8,7.6-10.9c2.1-5.1,2.8-10.9,2.2-17.3c-0.5-5.9-2.1-11.1-3.2-14.5c-0.5-1.4-0.9-2.7-1.3-3.8
			c-0.3-0.8-0.5-1.6-0.7-2.2L321.1,74.3z M321.2,73.4l0.6,2c0.5,1.4,1.2,3.5,2,6c1.3,4,2.7,9,3.2,14.6c0.5,5.6,0.1,11.6-2.2,17.4
			c-1.6,3.9-4.1,7.6-7.7,11l-0.7,0.7l-0.7-2.2c16.8-15.7,6.5-39.3,4.1-46.8L321.2,73.4z"/>
		<g>
			<g>
				<defs>
					<path id="SVGID_3_" d="M319.8,76.1l-34.9,11.3c2.5,7.5,8,32.7,30.8,35.5C332.5,107.2,322.3,83.7,319.8,76.1z"/>
				</defs>
				<clipPath id="SVGID_4_">
					<use xlink:href="#SVGID_3_"  style="overflow:visible;"/>
				</clipPath>
				<path class="st5" d="M302.2,81.5c9.6-3.2,19-5.4,27.3-7.9c-8.1,3.1-17.1,6.4-26.7,9.6c-9.6,3.2-19,5.4-27.3,7.9
					C283.7,88.1,292.7,84.7,302.2,81.5z"/>
			</g>
			<g>
				<defs>
					<path id="SVGID_5_" d="M319.8,76.1l-34.9,11.3c2.5,7.5,8,32.7,30.8,35.5C332.5,107.2,322.3,83.7,319.8,76.1z"/>
				</defs>
				<clipPath id="SVGID_6_">
					<use xlink:href="#SVGID_5_"  style="overflow:visible;"/>
				</clipPath>
				<path class="st6" d="M303,83.8c9.6-3.2,19-5.4,27.3-7.9c-7.8,3-16.5,6.2-25.7,9.3l-1.4-0.8l-0.7,1.5c-9.2,3-18.2,5.2-26.2,7.5
					C284.5,90.4,293.5,87.1,303,83.8z"/>
			</g>
			<g>
				<defs>
					<path id="SVGID_7_" d="M319.8,76.1l-34.9,11.3c2.5,7.5,8,32.7,30.8,35.5C332.5,107.2,322.3,83.7,319.8,76.1z"/>
				</defs>
				<clipPath id="SVGID_8_">
					<use xlink:href="#SVGID_7_"  style="overflow:visible;"/>
				</clipPath>
				<path class="st7" d="M305.4,85.6c9-2.9,17.8-5,25.7-7.4c-7.2,2.7-15.1,5.7-23.5,8.6L305.4,85.6z M301.1,89
					c-8.4,2.7-16.6,4.7-24,6.8c7.7-2.9,16.1-6.1,25.1-9.1L301.1,89z"/>
			</g>
			<g>
				<defs>
					<path id="SVGID_9_" d="M319.8,76.1l-34.9,11.3c2.5,7.5,8,32.7,30.8,35.5C332.5,107.2,322.3,83.7,319.8,76.1z"/>
				</defs>
				<clipPath id="SVGID_10_">
					<use xlink:href="#SVGID_9_"  style="overflow:visible;"/>
				</clipPath>
				<path class="st8" d="M308.3,87.3c8.2-2.6,16.3-4.5,23.5-6.7c-6.6,2.5-13.8,5.2-21.4,7.8L308.3,87.3z M299.7,92
					c-7.7,2.3-15.1,4.2-21.9,6.2c7-2.7,14.7-5.5,22.9-8.3L299.7,92z"/>
			</g>
			<g>
				<defs>
					<path id="SVGID_11_" d="M319.8,76.1l-34.9,11.3c2.5,7.5,8,32.7,30.8,35.5C332.5,107.2,322.3,83.7,319.8,76.1z"/>
				</defs>
				<clipPath id="SVGID_12_">
					<use xlink:href="#SVGID_11_"  style="overflow:visible;"/>
				</clipPath>
				<path class="st9" d="M311.3,88.9c7.5-2.2,14.7-4,21.3-6c-6,2.3-12.5,4.7-19.3,7.1L311.3,88.9z M298.3,95
					c-6.9,2-13.6,3.7-19.7,5.5c6.4-2.4,13.3-5,20.7-7.6L298.3,95z"/>
			</g>
			<g>
				<defs>
					<path id="SVGID_13_" d="M319.8,76.1l-34.9,11.3c2.5,7.5,8,32.7,30.8,35.5C332.5,107.2,322.3,83.7,319.8,76.1z"/>
				</defs>
				<clipPath id="SVGID_14_">
					<use xlink:href="#SVGID_13_"  style="overflow:visible;"/>
				</clipPath>
				<path class="st10" d="M314.3,90.6c6.6-1.9,13.1-3.6,19-5.3c-5.4,2-11.1,4.2-17.1,6.3L314.3,90.6z M296.9,97.9
					c-6.1,1.8-12.1,3.3-17.6,4.9c5.8-2.2,11.9-4.5,18.5-6.8L296.9,97.9z"/>
			</g>
			<g>
				<defs>
					<path id="SVGID_15_" d="M319.8,76.1l-34.9,11.3c2.5,7.5,8,32.7,30.8,35.5C332.5,107.2,322.3,83.7,319.8,76.1z"/>
				</defs>
				<clipPath id="SVGID_16_">
					<use xlink:href="#SVGID_15_"  style="overflow:visible;"/>
				</clipPath>
				<path class="st11" d="M317.4,92.2c5.8-1.7,11.5-3.1,16.7-4.7c-4.7,1.8-9.8,3.7-15,5.6L317.4,92.2z M295.5,100.8
					c-5.4,1.5-10.6,2.9-15.4,4.3c5.1-1.9,10.5-4,16.2-6L295.5,100.8z"/>
			</g>
			<g>
				<defs>
					<path id="SVGID_17_" d="M319.8,76.1l-34.9,11.3c2.5,7.5,8,32.7,30.8,35.5C332.5,107.2,322.3,83.7,319.8,76.1z"/>
				</defs>
				<clipPath id="SVGID_18_">
					<use xlink:href="#SVGID_17_"  style="overflow:visible;"/>
				</clipPath>
				<path class="st12" d="M320.4,93.9c5-1.4,9.9-2.7,14.4-4c-4.1,1.6-8.4,3.2-12.9,4.8L320.4,93.9z M308.4,99.5l-0.2,0.1l-0.2,0.1
					l0.1-0.3L308.4,99.5z M294.1,103.8c-4.6,1.3-9.1,2.4-13.3,3.7c4.4-1.7,9.1-3.4,14-5.2L294.1,103.8z"/>
			</g>
			<g>
				<defs>
					<path id="SVGID_19_" d="M319.8,76.1l-34.9,11.3c2.5,7.5,8,32.7,30.8,35.5C332.5,107.2,322.3,83.7,319.8,76.1z"/>
				</defs>
				<clipPath id="SVGID_20_">
					<use xlink:href="#SVGID_19_"  style="overflow:visible;"/>
				</clipPath>
				<path class="st13" d="M308.6,100.9l1.5-0.5l2.2,1.2l-3,1c-1,0.4-2.1,0.7-3.1,1l1.1-2.3L308.6,100.9z M324.5,96.2
					c3.9-1.1,7.7-2.1,11.4-3.2c-3.4,1.3-6.9,2.6-10.6,4l-0.2-0.5L324.5,96.2z M292.8,107.5c-3.8,1-7.4,2-10.9,3
					c3.5-1.3,7.2-2.7,11-4.1l-0.3,0.6L292.8,107.5z"/>
			</g>
			<g>
				<defs>
					<path id="SVGID_21_" d="M319.8,76.1l-34.9,11.3c2.5,7.5,8,32.7,30.8,35.5C332.5,107.2,322.3,83.7,319.8,76.1z"/>
				</defs>
				<clipPath id="SVGID_22_">
					<use xlink:href="#SVGID_21_"  style="overflow:visible;"/>
				</clipPath>
				<path class="st14" d="M309.3,103.3c1.2-0.4,2.5-0.8,3.7-1.2l2.1,1.2c-1.7,0.6-3.5,1.2-5.2,1.8c-1.8,0.6-3.6,1.2-5.3,1.7l1-2.2
					L309.3,103.3z M325.7,98.4c3.8-1,7.4-2,10.9-3c-3.4,1.3-6.9,2.6-10.6,4L325.7,98.4z M293.5,109.8c-3.8,1-7.4,2-10.9,3
					c3.4-1.3,6.9-2.6,10.6-4L293.5,109.8z"/>
			</g>
			<g>
				<defs>
					<path id="SVGID_23_" d="M319.8,76.1l-34.9,11.3c2.5,7.5,8,32.7,30.8,35.5C332.5,107.2,322.3,83.7,319.8,76.1z"/>
				</defs>
				<clipPath id="SVGID_24_">
					<use xlink:href="#SVGID_23_"  style="overflow:visible;"/>
				</clipPath>
				<path class="st15" d="M310.1,105.6c2-0.7,4-1.3,5.9-1.9l2,1.1c-2.4,0.9-4.9,1.7-7.4,2.5c-2.5,0.9-5,1.6-7.5,2.4l1-2.1
					C306.1,107,308.1,106.3,310.1,105.6z M326.5,100.8c3.8-1,7.4-2,10.9-3c-3.4,1.3-6.9,2.6-10.6,4L326.5,100.8z M294.3,112.2
					c-3.8,1-7.4,2-10.9,3c3.4-1.3,6.9-2.6,10.6-4L294.3,112.2z"/>
			</g>
			<g>
				<defs>
					<path id="SVGID_25_" d="M319.8,76.1l-34.9,11.3c2.5,7.5,8,32.7,30.8,35.5C332.5,107.2,322.3,83.7,319.8,76.1z"/>
				</defs>
				<clipPath id="SVGID_26_">
					<use xlink:href="#SVGID_25_"  style="overflow:visible;"/>
				</clipPath>
				<path class="st16" d="M310.9,108c2.8-0.9,5.5-1.8,8.2-2.6l1.9,1c-3.1,1.1-6.3,2.2-9.5,3.3c-3.2,1.1-6.5,2.1-9.7,3l0.9-1.9
					C305.3,109.8,308.1,108.9,310.9,108z M327.2,103.1c3.8-1,7.4-2,10.9-3c-3.4,1.3-6.9,2.6-10.6,4L327.2,103.1z M295.1,114.5
					c-3.8,1-7.4,2-10.9,3c3.4-1.3,6.9-2.6,10.6-4L295.1,114.5z"/>
			</g>
			<g>
				<defs>
					<path id="SVGID_27_" d="M319.8,76.1l-34.9,11.3c2.5,7.5,8,32.7,30.8,35.5C332.5,107.2,322.3,83.7,319.8,76.1z"/>
				</defs>
				<clipPath id="SVGID_28_">
					<use xlink:href="#SVGID_27_"  style="overflow:visible;"/>
				</clipPath>
				<path class="st17" d="M311.6,110.3c3.5-1.2,7.1-2.2,10.5-3.2l1.7,0.9c-3.8,1.4-7.6,2.7-11.6,4.1c-4,1.4-8,2.5-11.8,3.6l0.8-1.7
					C304.6,112.7,308.1,111.5,311.6,110.3z M328,105.5c3.8-1,7.4-2,10.9-3c-3.4,1.3-6.9,2.6-10.6,4L328,105.5z M295.8,116.9
					c-3.8,1-7.4,2-10.9,3c3.4-1.3,6.9-2.6,10.6-4L295.8,116.9z"/>
			</g>
			<g>
				<defs>
					<path id="SVGID_29_" d="M319.8,76.1l-34.9,11.3c2.5,7.5,8,32.7,30.8,35.5C332.5,107.2,322.3,83.7,319.8,76.1z"/>
				</defs>
				<clipPath id="SVGID_30_">
					<use xlink:href="#SVGID_29_"  style="overflow:visible;"/>
				</clipPath>
				<path class="st18" d="M312.4,112.7c4.4-1.5,8.7-2.7,12.9-3.9l1.5,0.8c-4.4,1.6-9,3.2-13.7,4.8c-4.7,1.6-9.4,2.9-14,4.2l0.7-1.5
					C303.8,115.6,308,114.1,312.4,112.7z M328.8,107.8c3.8-1,7.4-2,10.9-3c-3.4,1.3-6.9,2.6-10.6,4L328.8,107.8z M296.6,119.3
					c-3.8,1-7.4,2-10.9,3c3.4-1.3,6.9-2.6,10.6-4L296.6,119.3z"/>
			</g>
			<g>
				<defs>
					<path id="SVGID_31_" d="M319.8,76.1l-34.9,11.3c2.5,7.5,8,32.7,30.8,35.5C332.5,107.2,322.3,83.7,319.8,76.1z"/>
				</defs>
				<clipPath id="SVGID_32_">
					<use xlink:href="#SVGID_31_"  style="overflow:visible;"/>
				</clipPath>
				<path class="st19" d="M313.1,115c5.2-1.7,10.3-3.2,15.2-4.5l1.2,0.7l0.2-0.1l-0.3-0.9c3.8-1,7.4-2,10.9-3
					c-3.4,1.3-6.9,2.6-10.6,4l-0.2,0.1c-5.1,1.9-10.4,3.7-15.8,5.6c-5.5,1.9-10.9,3.4-16.1,4.8l-0.2,0.1c-3.8,1-7.4,2-10.9,3
					c3.4-1.3,6.9-2.6,10.6-4l0.3,0.9l0.2-0.1l0.6-1.3C303,118.5,308,116.7,313.1,115z"/>
			</g>
			<g>
				<defs>
					<path id="SVGID_33_" d="M319.8,76.1l-34.9,11.3c2.5,7.5,8,32.7,30.8,35.5C332.5,107.2,322.3,83.7,319.8,76.1z"/>
				</defs>
				<clipPath id="SVGID_34_">
					<use xlink:href="#SVGID_33_"  style="overflow:visible;"/>
				</clipPath>
				<path class="st20" d="M313.9,117.4c9.6-3.2,19-5.4,27.3-7.9c-8.1,3.1-17.1,6.4-26.7,9.6c-9.6,3.2-19,5.4-27.3,7.9
					C295.3,123.9,304.3,120.6,313.9,117.4z"/>
			</g>
			<g>
				<defs>
					<path id="SVGID_35_" d="M319.8,76.1l-34.9,11.3c2.5,7.5,8,32.7,30.8,35.5C332.5,107.2,322.3,83.7,319.8,76.1z"/>
				</defs>
				<clipPath id="SVGID_36_">
					<use xlink:href="#SVGID_35_"  style="overflow:visible;"/>
				</clipPath>
				<path class="st21" d="M314.7,119.7c9.6-3.2,19-5.4,27.3-7.9c-8.1,3.1-17.1,6.4-26.7,9.6c-9.6,3.2-19,5.4-27.3,7.9
					C296.1,126.3,305.1,122.9,314.7,119.7z"/>
			</g>
		</g>
		<path class="st22" d="M319.8,76.1l-34.9,11.3c2.5,7.5,8,32.7,30.8,35.5C332.5,107.2,322.3,83.7,319.8,76.1z"/>
		<path class="st3" d="M312.9,95.9l0.7-0.2c0,0.2,0,0.3,0,0.5c0.2,0.6,0.6,0.8,0.6,0.8l-0.3-0.9c0-0.2,0-0.4,0-0.6l1-0.3
			c0,0.2,0,0.4,0,0.5c0.2,0.6,0.6,0.8,0.6,0.8l-0.3-0.9c-0.1-0.2,0-0.4,0-0.6l1-0.3c0,0.2,0,0.4,0,0.5c0.2,0.6,0.6,0.8,0.6,0.8
			l-0.3-0.9c-0.1-0.2,0-0.4,0-0.6l1.3-0.4c0.1-0.1,0.2-0.1,0.2-0.1c0.3-0.1,0.5,0.1,0.6,0.4l0,0.1l1.4,4.2l-0.8,0.3
			c0,0.1,0,0.2,0,0.3l0,0.1L318,100c0-0.1-0.1-0.2-0.2-0.4c-0.1-0.2,0-0.5,0.2-0.5c0.2-0.1,0.4,0,0.5,0.2l0-0.1
			c-0.1-0.3-0.4-0.4-0.6-0.4c-0.1,0-0.1,0.1-0.2,0.1l0-0.1c-0.1-0.2-0.2-0.4-0.4-0.5c-0.1,0.2-0.1,0.4,0,0.6l0,0.1
			c-0.1,0-0.2,0-0.2,0c-0.2,0.1-0.4,0.4-0.3,0.7l0,0.1c0-0.2,0.1-0.4,0.3-0.4c0.2-0.1,0.4,0.1,0.5,0.3c0.1,0.2,0.1,0.3,0.1,0.4
			l-1.7,0.6c0-0.1-0.1-0.2-0.2-0.4c-0.1-0.2,0-0.5,0.2-0.5c0.2-0.1,0.4,0,0.5,0.2l0-0.1c-0.1-0.3-0.4-0.4-0.6-0.4
			c-0.1,0-0.1,0.1-0.2,0.1l0-0.1c-0.1-0.2-0.2-0.4-0.4-0.5c-0.1,0.2-0.1,0.4,0,0.6l0,0.1c-0.1,0-0.2,0-0.2,0
			c-0.2,0.1-0.4,0.4-0.3,0.7l0,0.1c0-0.2,0.1-0.4,0.3-0.4c0.2-0.1,0.4,0.1,0.5,0.3c0.1,0.2,0.1,0.3,0.1,0.4l-1.6,0.5l-1.4-4.3
			c-0.1-0.4,0-0.8,0.2-1C312.7,95.9,312.8,95.9,312.9,95.9L312.9,95.9z M318.7,94.7L318.7,94.7c-0.1-0.2-0.1-0.3-0.2-0.4
			c-0.1-0.1-0.1-0.1-0.1,0c-0.2,0.1-0.3,0.5-0.2,0.9l1.1,3.6c0-0.1,0.1-0.2,0.2-0.3c0,0,0.1-0.1,0.1-0.1c0.1,0,0.2,0,0.2,0
			L318.7,94.7z"/>
		<path class="st3" d="M302.8,91.6l0.7-0.2c0,0.2,0,0.3,0,0.5c0.2,0.6,0.6,0.8,0.6,0.8l-0.3-0.9c0-0.2,0-0.4,0-0.6l1-0.3
			c0,0.2,0,0.4,0,0.5c0.2,0.6,0.6,0.8,0.6,0.8l-0.3-0.9c-0.1-0.2,0-0.4,0-0.6l1-0.3c0,0.2,0,0.4,0,0.5c0.2,0.6,0.6,0.8,0.6,0.8
			l-0.3-0.9c-0.1-0.2,0-0.4,0-0.6l1.3-0.4c0.1-0.1,0.2-0.1,0.2-0.1c0.3-0.1,0.5,0.1,0.6,0.4l0,0.1l1.4,4.2l-0.8,0.3
			c0,0.1,0,0.2,0,0.3l0,0.1l-1.4,0.4c0-0.1-0.1-0.2-0.2-0.4c-0.1-0.2,0-0.5,0.2-0.5c0.2-0.1,0.4,0,0.5,0.2l0-0.1
			c-0.1-0.3-0.4-0.4-0.6-0.4c-0.1,0-0.1,0.1-0.2,0.1l0-0.1c-0.1-0.2-0.2-0.4-0.4-0.5c-0.1,0.2-0.1,0.4,0,0.6l0,0.1
			c-0.1,0-0.2,0-0.2,0c-0.2,0.1-0.4,0.4-0.3,0.7l0,0.1c0-0.2,0.1-0.4,0.3-0.4c0.2-0.1,0.4,0.1,0.5,0.3c0.1,0.2,0.1,0.3,0.1,0.4
			l-1.7,0.6c0-0.1-0.1-0.2-0.2-0.4c-0.1-0.2,0-0.5,0.2-0.5c0.2-0.1,0.4,0,0.5,0.2l0-0.1c-0.1-0.3-0.4-0.4-0.6-0.4
			c-0.1,0-0.1,0.1-0.2,0.1l0-0.1c-0.1-0.2-0.2-0.4-0.4-0.5c-0.1,0.2-0.1,0.4,0,0.6l0,0.1c-0.1,0-0.2,0-0.2,0
			c-0.2,0.1-0.4,0.4-0.3,0.7l0,0.1c0-0.2,0.1-0.4,0.3-0.4c0.2-0.1,0.4,0.1,0.5,0.3c0.1,0.2,0.1,0.3,0.1,0.4l-1.6,0.5l-1.4-4.3
			c-0.1-0.4,0-0.8,0.2-1C302.6,91.6,302.7,91.6,302.8,91.6L302.8,91.6z M308.6,90.4L308.6,90.4c-0.1-0.2-0.1-0.3-0.2-0.4
			c-0.1-0.1-0.1-0.1-0.1,0c-0.2,0.1-0.3,0.5-0.2,0.9l1.1,3.6c0-0.1,0.1-0.2,0.2-0.3c0,0,0.1-0.1,0.1-0.1c0.1,0,0.2,0,0.2,0
			L308.6,90.4z"/>
		<path class="st0" d="M279.2,19.3c-0.3-0.4-0.9-0.1-1.3,0.1c-0.6,0.3-0.7,1.4-1.4,1.4c-0.5-0.3-1.1-0.3-1.6,0
			c-0.8,1-1.6,2.4-2.2,3.6c0,0.3,0,0.5,0.2,0.7c1.1,0.9-1.2,1.9-0.5,3c0.1,0.8,1.1,1.1,1.8,1.6L279.2,19.3z M276.6,31.1l4.7-10.2
			c-0.3-0.4-0.6-0.4-0.9-0.8c-1.6,3.4-3.3,7-4.9,10.4C275.6,30.8,276.2,31.3,276.6,31.1z M278.7,32.6l4.7-10.3
			c-0.1-0.4-0.6-0.5-1-0.8c-1.5,3.4-3.2,7.1-4.8,10.5C277.8,32.3,278.4,32.8,278.7,32.6z M322.2,63.1c4.9-3.2,8.3-9.5,7.9-15.3
			c-0.4-8.1-5.9-14.6-13.2-16.8c-0.6-0.2-1.4-0.3-2-0.7c-3.6-0.6-7.4,0.1-11.1,0.9c-1.8,0-3.5-1.4-5-2.4c-2.5-1.6-5.4-4.1-8.3-5.3
			c-1.1-0.3-2.7,0-3.6,0.7c-0.8-0.2-1.4-1-2.1-1.3c-1.8,3.4-3.3,7-5,10.6c0.9,0.4,0.2,1.4,0.4,2.1c0.2,1.2,1,2.2,1.9,3l9.5,6.5
			c2.7,2.3,1.2,6.3,2.9,9.2c2,5.6,7.7,10.3,13.6,11.5C312.5,66.9,318.2,65.8,322.2,63.1z M323,47.6l-6.2,2.6l3,6l-6.2-2.5l-2.2,6.4
			l-2.6-6.2l-6,3l2.5-6.2l-6.4-2.2l6.2-2.6l-3-6l6.2,2.5l2.1-6.3l2.6,6.2l6-3l-2.5,6.2L323,47.6z"/>
		
			<ellipse transform="matrix(0.3827 -0.9239 0.9239 0.3827 -158.7629 141.9174)" class="st1" cx="26.8" cy="189.8" rx="12.6" ry="12.6"/>
		<path class="st2" d="M297.2,100.9l0.7-0.2c0,0.2,0,0.3,0,0.5c0.2,0.6,0.6,0.8,0.6,0.8l-0.3-0.9c0-0.2,0-0.4,0-0.6l1-0.3
			c0,0.2,0,0.4,0,0.5c0.2,0.6,0.6,0.8,0.6,0.8l-0.3-0.9c-0.1-0.2,0-0.4,0-0.6l1-0.3c0,0.2,0,0.4,0,0.5c0.2,0.6,0.6,0.8,0.6,0.8
			l-0.3-0.9c-0.1-0.2,0-0.4,0-0.6l1.3-0.4c0.1-0.1,0.2-0.1,0.2-0.1c0.3-0.1,0.5,0.1,0.6,0.4l0,0.1l1.4,4.2l-0.8,0.3
			c0,0.1,0,0.2,0,0.3l0,0.1l-1.4,0.4c0-0.1-0.1-0.2-0.2-0.4c-0.1-0.2,0-0.5,0.2-0.5c0.2-0.1,0.4,0,0.5,0.2l0-0.1
			c-0.1-0.3-0.4-0.4-0.6-0.4c-0.1,0-0.1,0.1-0.2,0.1l0-0.1c-0.1-0.2-0.2-0.4-0.4-0.5c-0.1,0.2-0.1,0.4,0,0.6l0,0.1
			c-0.1,0-0.2,0-0.2,0c-0.2,0.1-0.4,0.4-0.3,0.7l0,0.1c0-0.2,0.1-0.4,0.3-0.4c0.2-0.1,0.4,0.1,0.5,0.3c0.1,0.2,0.1,0.3,0.1,0.4
			l-1.7,0.6c0-0.1-0.1-0.2-0.2-0.4c-0.1-0.2,0-0.5,0.2-0.5c0.2-0.1,0.4,0,0.5,0.2l0-0.1c-0.1-0.3-0.4-0.4-0.6-0.4
			c-0.1,0-0.1,0.1-0.2,0.1l0-0.1c-0.1-0.2-0.2-0.4-0.4-0.5c-0.1,0.2-0.1,0.4,0,0.6l0,0.1c-0.1,0-0.2,0-0.2,0
			c-0.2,0.1-0.4,0.4-0.3,0.7l0,0.1c0-0.2,0.1-0.4,0.3-0.4c0.2-0.1,0.4,0.1,0.5,0.3c0.1,0.2,0.1,0.3,0.1,0.4l-1.6,0.5l-1.4-4.3
			c-0.1-0.4,0-0.8,0.2-1C297,101,297.1,101,297.2,100.9L297.2,100.9z M303,99.8L303,99.8c-0.1-0.2-0.1-0.3-0.2-0.4s-0.1-0.1-0.1,0
			c-0.2,0.1-0.3,0.5-0.2,0.9l1.1,3.6c0-0.1,0.1-0.2,0.2-0.3c0,0,0.1-0.1,0.1-0.1c0.1,0,0.2,0,0.2,0L303,99.8z"/>
		<path class="st1" d="M17.4,232.2l12.7-20.9h-4.2c-0.4,0-0.7,0.1-1,0.4c-0.2,0.2-0.4,0.5-0.6,0.7l-7.9,13.5
			c-0.3,0.5-0.6,1.1-0.8,1.5c-0.2,0.5-0.4,1-0.6,1.5c-0.2-0.5-0.3-1-0.6-1.5c-0.2-0.5-0.5-1-0.8-1.6l-7.9-13.4
			c-0.1-0.3-0.4-0.6-0.6-0.8s-0.5-0.3-1-0.3H0l12.7,20.9V246h4.7C17.4,246,17.4,232.2,17.4,232.2z"/>
		<path class="st0" d="M57.6,228.7c0,2.1-0.3,4-0.9,5.7s-1.4,3.1-2.5,4.3c-1.1,1.2-2.4,2-3.9,2.7s-3.2,1-5.1,1c-1.8,0-3.5-0.3-5.1-1
			c-1.5-0.6-2.8-1.5-3.9-2.7c-1.1-1.2-1.9-2.6-2.5-4.3c-0.6-1.7-0.9-3.6-0.9-5.7s0.3-4.1,0.9-5.8c0.6-1.7,1.4-3.1,2.5-4.3
			c1.1-1.2,2.4-2.1,3.9-2.7c1.5-0.6,3.2-1,5-1c1.9,0,3.6,0.3,5.1,1s2.8,1.5,3.9,2.7s1.9,2.6,2.5,4.3
			C57.3,224.7,57.6,226.5,57.6,228.7z M62.4,228.7c0-2.6-0.4-5-1.3-7.2c-0.8-2.2-2-4-3.5-5.6c-1.5-1.6-3.3-2.8-5.4-3.7
			c-2.1-0.8-4.4-1.3-7-1.3c-2.6,0-4.9,0.5-7,1.4c-2.1,0.9-3.9,2.1-5.4,3.6c-1.5,1.6-2.7,3.4-3.5,5.6c-0.8,2.2-1.2,4.5-1.2,7.2
			s0.4,5,1.3,7.2c0.8,2.2,2,4,3.5,5.6c1.5,1.5,3.3,2.8,5.4,3.6s4.4,1.3,7,1.3c2.6,0,4.9-0.4,7-1.3c2.1-0.9,3.9-2.1,5.4-3.7
			c1.5-1.5,2.7-3.4,3.5-5.6C62,233.7,62.4,231.3,62.4,228.7z"/>
		<path class="st1" d="M100.3,230.3v-19h-4.7V246h4.7v-9.8l4.6-5.1l12.2,14c0.1,0.1,0.2,0.2,0.4,0.4c0.1,0.1,0.3,0.2,0.4,0.3
			c0.1,0,0.3,0.1,0.5,0.1c0.2,0.1,0.5,0.1,0.8,0.1h4.1L108,227.5l14.4-16.2h-4c-0.5,0-0.9,0.1-1.3,0.3c-0.3,0.1-0.7,0.4-1,0.9
			L100.3,230.3z"/>
		<path class="st0" d="M71,231.3V215h6.4c2.7,0,4.2,1,5.6,2.1c1.3,1.1,2.7,3.2,2.7,5.9c0,2.3-1,4.5-2.7,6.1
			c-0.9,0.9-3.1,2.2-5.6,2.2L71,231.3z M71,234.8h3.5c0.6,0,1.1,0.1,1.4,0.2c0.3,0.2,0.6,0.5,0.9,0.9c1.9,2,7.8,7.9,9,9.1
			c0.5,0.5,1,1,1.9,1h4.2l-10.2-10.5c-0.4-0.6-1-1.1-1.6-1.5c1.9-0.4,4.7-1.5,6.1-3c1-1,2.2-2.5,2.6-3.5c0.9-1.9,1.2-4.8,0.9-6.4
			c-0.5-3-2-5.6-4.6-7.6c-2.4-1.8-5-2.2-8-2.2H66.3V246H71L71,234.8L71,234.8z"/>
		<polygon class="st0" points="35.4,254.9 34.2,254.1 7.3,258.3 7.3,264.9 20.6,268.1 20.6,339.1 5,344.1 5.2,350.9 51.4,350.9 
			51.4,344.1 35.6,339.9 		"/>
		<path class="st0" d="M208.9,266c18.1,0,21,14.2,21,24.2l-47,4.4C183.1,283.3,187.8,266,208.9,266z M248.8,297.6
			c-0.4-18.7-6.2-42.7-37.7-42.7c-34.6,0-44.8,26.6-44.8,50c0,30.2,12.3,48.5,43.3,48.5c12.5,0,25.6-4.8,34.8-11.7l-3.1-6.4
			c-11.5,5.4-21.7,6.4-27.3,6.4c-24.8,0-31.6-12.9-31.6-39.3l64.5-3.1L248.8,297.6z"/>
		<path class="st0" d="M317,331.1c-8.9,5.4-20.2,9.8-28.9,9.8c-9,0-13.9-6-13.9-15c0-6.7,3.5-19.4,42.7-21.2L317,331.1L317,331.1z
			 M317,338.8c0.8,14,7.5,14.4,12.1,14.4c5.4,0,13.7-1.5,18.5-4.6v-6l-15.6-3.3v-54.3c0-23.5-10.6-30.2-30.4-30.2
			c-12.9,0-25.4,3.3-37.5,10l2.7,7.9c15-4.4,26-5,31.2-5c13.3,0,19,4.6,19,18.1v11.4c-25.8,0.8-40.2,4-48.3,9.2
			c-9.6,6-10.2,15.6-10.2,20.6c0,16.9,11.9,26.4,27.1,26.4c6,0,11.5-1,17.9-2.5l13.1-12.3L317,338.8z"/>
		<path class="st0" d="M132.4,331c-7.7,4.6-17.5,9-28,9c-18.4,0-24.8-16.7-24.8-35.5c0-16.7,5.8-37.6,27.4-37.6
			c8.4,0,18.2,1.5,25.3,4.8L132.4,331L132.4,331z M132.6,338.3l2.7,13.8l1.1,0.8l24.4-3.5v-6.5l-13.4-3.3V190.3l-1.3-1l-27.1,3.4
			v6.5l13.4,3.4l0.2,57.5c-7.7-4-18.4-5.6-25.1-5.6c-31.1,0-43.4,23.4-43.4,51.4c0,28.8,14,47.2,37.6,47.2c5.9,0,10.9-1,17.3-2.5
			l13.2-12.5L132.6,338.3L132.6,338.3z"/>
		<path class="st1" d="M390.6,254.7c-25.6,0-32.9,13.3-32.9,25.2c0,16,14.6,21,30,27.9c12.9,5.8,22.9,8.5,22.9,20.6
			c0,9-6.7,15.2-22.3,15.2c-4.8,0-13.5-1.5-19.4-6l-9.4-18.9l-4.8,1.2l1.5,26.6c7.9,4.2,19.8,6.9,31.4,6.9
			c26.2,0,38.7-12.3,38.7-28.3c0-17.1-11.2-22.5-28.1-29.4c-16-6.5-24.8-9.6-24.8-18.3c0-9,7.5-12.7,15.8-12.7c4,0,11.7,0.8,17.9,5
			l7.7,16.9l5.6-0.6v-24.8C409.6,256,397.7,254.7,390.6,254.7z"/>
		<polygon class="st1" points="181.5,211.3 160.1,211.3 160.1,246 164.9,246 164.9,231.7 179.1,231.7 179.1,227.9 164.8,227.9 
			164.8,215.1 181.5,215.1 		"/>
		<polygon class="st1" points="207,211.3 185.6,211.3 185.6,246 207,246 207,242.2 190.3,242.2 190.3,231.6 203.8,231.6 203.8,228 
			190.3,228 190.3,215.1 207,215.1 		"/>
		<path class="st1" d="M229.5,216.7l1.2-2.2c-1.2-1.2-2.6-2-4.2-2.7c-1.6-0.6-3.3-0.9-5.3-0.9c-1.7,0-3.2,0.3-4.5,0.8
			c-1.4,0.5-2.5,1.3-3.4,2.1c-0.9,0.9-1.5,1.9-2,3s-0.7,2.3-0.7,3.6c0,1.5,0.2,2.8,0.7,3.8c0.5,1.1,1.1,1.9,1.9,2.6
			c0.8,0.7,1.6,1.3,2.6,1.7c1,0.4,2,0.8,3,1.2c1.1,0.3,2.1,0.6,3,1c1,0.3,1.9,0.7,2.7,1.2c0.8,0.4,1.4,1,1.9,1.6
			c0.5,0.7,0.7,1.5,0.7,2.6c0,0.9-0.2,1.8-0.5,2.6c-0.3,0.8-0.8,1.5-1.4,2c-0.6,0.6-1.4,1-2.2,1.3c-0.9,0.3-1.8,0.5-3,0.5
			c-1.3,0-2.5-0.2-3.4-0.6c-0.9-0.3-1.7-0.8-2.4-1.2c-0.6-0.4-1.2-0.8-1.6-1.2c-0.4-0.4-0.8-0.6-1.2-0.6c-0.2,0-0.4,0.1-0.6,0.2
			c-0.2,0.1-0.4,0.3-0.5,0.5l-1.4,2.2c1.3,1.4,2.9,2.5,4.7,3.3s3.9,1.2,6.1,1.2c1.8,0,3.4-0.3,4.9-0.9c1.5-0.5,2.7-1.3,3.7-2.3
			c1-1,1.7-2.1,2.3-3.4c0.5-1.4,0.8-2.8,0.8-4.3c0-1.4-0.2-2.6-0.7-3.6c-0.5-1-1.1-1.8-1.9-2.5c-0.8-0.7-1.7-1.3-2.7-1.7
			c-1-0.4-2-0.8-3-1.2c-1.1-0.3-2.1-0.7-3-1c-1-0.3-1.9-0.7-2.7-1.2s-1.4-1-1.9-1.6c-0.5-0.6-0.7-1.4-0.7-2.4c0-0.7,0.1-1.4,0.4-2.1
			c0.2-0.7,0.7-1.3,1.2-1.7c0.5-0.5,1.2-0.8,2-1.1c0.8-0.3,1.7-0.4,2.8-0.4c1.1,0,2.1,0.1,2.9,0.4c0.8,0.2,1.5,0.5,2,0.9
			c0.6,0.3,1,0.6,1.4,0.9c0.3,0.3,0.7,0.4,1,0.4c0.2,0,0.4-0.1,0.6-0.2C229.2,217.2,229.4,217,229.5,216.7z"/>
		<polygon class="st1" points="259,211.3 231.9,211.3 231.9,215.3 243.2,215.3 243.2,246 247.9,246 247.9,215.3 259,215.3 		"/>
		<rect x="262.9" y="211.3" class="st1" width="4.7" height="34.7"/>
		<path class="st1" d="M270.9,211.3l14.1,34.7h4.3l14.1-34.7h-3.8c-0.4,0-0.7,0.1-1,0.4c-0.2,0.2-0.4,0.5-0.6,0.8l-9.7,24.4
			c-0.2,0.5-0.4,1.2-0.6,1.8c-0.2,0.6-0.3,1.3-0.5,2c-0.2-0.7-0.3-1.4-0.5-2s-0.4-1.3-0.6-1.8l-9.8-24.5c-0.1-0.3-0.3-0.6-0.6-0.8
			c-0.2-0.2-0.6-0.3-1-0.3H270.9z"/>
		<path class="st0" d="M307.7,234.7l6.1-15.6c0.1-0.4,0.3-0.9,0.5-1.4c0.1-0.6,0.3-1.2,0.5-1.8c0.3,1.3,0.7,2.4,1,3.3l6.1,15.6
			H307.7z M331,246l-13.9-34.7h-4.8L298.5,246h3.6c0.4,0,0.7-0.1,1-0.3c0.3-0.2,0.5-0.5,0.6-0.8l2.6-6.9h16.8l2.6,6.9
			c0.1,0.3,0.3,0.6,0.6,0.8c0.2,0.2,0.6,0.3,1,0.3L331,246L331,246z"/>
		<polygon class="st1" points="338.1,242 338.1,211.3 333.4,211.3 333.4,246 353.1,246 353.1,242 		"/>
		<path class="st0" d="M392.5,228.7c0,2.1-0.3,4-0.9,5.7s-1.4,3.1-2.5,4.3c-1.1,1.2-2.4,2-3.9,2.7s-3.2,1-5.1,1
			c-1.8,0-3.5-0.3-5.1-1c-1.5-0.6-2.8-1.5-3.9-2.7s-1.9-2.6-2.5-4.3c-0.6-1.7-0.9-3.6-0.9-5.7s0.3-4.1,0.9-5.8
			c0.6-1.7,1.4-3.1,2.5-4.3c1.1-1.2,2.4-2.1,3.9-2.7c1.5-0.6,3.2-1,5-1c1.9,0,3.6,0.3,5.1,1s2.8,1.5,3.9,2.7s1.9,2.6,2.5,4.3
			C392.2,224.7,392.5,226.5,392.5,228.7z M397.3,228.7c0-2.6-0.4-5-1.3-7.2s-2-4-3.5-5.6c-1.5-1.6-3.3-2.8-5.4-3.7
			c-2.1-0.8-4.4-1.3-7-1.3c-2.6,0-4.9,0.5-7,1.4c-2.1,0.9-3.9,2.1-5.4,3.6c-1.5,1.6-2.7,3.4-3.5,5.6c-0.8,2.2-1.2,4.5-1.2,7.2
			s0.4,5,1.3,7.2c0.8,2.2,2,4,3.5,5.6c1.5,1.5,3.3,2.8,5.4,3.6s4.4,1.3,7,1.3c2.6,0,4.9-0.4,7-1.3c2.1-0.9,3.9-2.1,5.4-3.7
			c1.5-1.5,2.7-3.4,3.5-5.6C396.9,233.7,397.3,231.3,397.3,228.7z"/>
		<polygon class="st1" points="423.1,211.3 401.8,211.3 401.8,246 406.5,246 406.5,231.7 420.7,231.7 420.7,227.9 406.5,227.9 
			406.5,215.1 423.1,215.1 		"/>
	</g>
</g>
</svg>
