<?xml version="1.0" encoding="utf-8"?>
<!-- Generator: Adobe Illustrator 23.0.1, SVG Export Plug-In . SVG Version: 6.00 Build 0)  -->
<svg version="1.1" xmlns="http://www.w3.org/2000/svg" xmlns:xlink="http://www.w3.org/1999/xlink" x="0px" y="0px"
	 viewBox="0 0 343.27 43.94" style="enable-background:new 0 0 343.27 43.94;" xml:space="preserve">
<style type="text/css">
	.st0{fill:#FFFFFF;}
	.st1{fill:#00ABA9;}
</style>
<g id="Layer_2">
</g>
<g id="Layer_1">
	<g>
		<path class="st0" d="M104.82,15.94L99.23,4.02h4.48l1.65,4.26c0.5,1.39,0.98,2.67,1.51,4.11h0.11c0.53-1.43,1.06-2.72,1.56-4.11
			l1.65-4.26h4.38l-5.58,11.92v6.61h-4.19V15.94z"/>
		<path class="st0" d="M117.48,13.21c0-6.05,3.42-9.53,8.41-9.53c5,0,8.42,3.5,8.42,9.53c0,6.05-3.42,9.68-8.42,9.68
			C120.9,22.89,117.48,19.26,117.48,13.21z M130.02,13.21c0-3.71-1.59-5.91-4.12-5.91c-2.53,0-4.12,2.19-4.12,5.91
			s1.59,6.07,4.12,6.07C128.42,19.27,130.02,16.92,130.02,13.21z"/>
		<path class="st0" d="M140.11,4.02h6.67c3.93,0,7.15,1.36,7.15,5.77c0,4.26-3.22,6.09-7.15,6.09h-2.48v6.67h-4.19V4.02z
			 M146.44,12.56c2.2,0,3.39-0.94,3.39-2.76c0-1.83-1.18-2.44-3.39-2.44h-2.14v5.21H146.44z M146.02,14.78l2.9-2.68l5.91,10.45
			h-4.69L146.02,14.78z"/>
		<path class="st0" d="M159.85,4.02h4.19v7.57h0.1l5.52-7.57h4.6l-5.6,7.39l6.64,11.13h-4.59l-4.5-7.83l-2.16,2.86v4.97h-4.19V4.02z
			"/>
	</g>
	<g>
		<g>
			<path class="st0" d="M69.06,41.1c-0.42,0-0.83-0.02-1.25-0.05c-3.32-0.26-6.54-1.44-9.32-3.41c-1.29-0.9-2.53-1.98-3.68-3.21
				l-3.17-3.37c-0.72-0.8-1.44-1.58-2.17-2.36c-1.35-1.47-2.75-2.98-4.09-4.52c-0.2-0.23-0.19-0.58,0.03-0.79
				c0.11-0.11,0.26-0.17,0.41-0.17c0.13,0,0.27,0.05,0.38,0.14c1.55,1.31,3.07,2.68,4.55,4.01c0.8,0.72,1.59,1.43,2.4,2.14
				l3.42,3.14c1.26,1.17,2.35,2.02,3.44,2.69c2.57,1.6,5.33,2.5,7.98,2.62c0.26,0.01,0.52,0.02,0.77,0.02
				c2.52,0,5.05-0.65,7.31-1.87c5.23-2.77,8.94-7.71,9.92-13.23c1.13-5.74-0.58-11.84-4.56-16.33c-0.2-0.23-0.19-0.58,0.02-0.8
				c0.11-0.12,0.26-0.17,0.42-0.17c0.13,0,0.27,0.05,0.38,0.14c2.34,2.01,4.23,4.74,5.45,7.88c1.14,2.97,1.49,6.33,1.03,9.71
				c-0.39,3.16-1.66,6.33-3.69,9.15c-2.05,2.76-4.56,4.95-7.46,6.49C74.91,40.35,71.97,41.1,69.06,41.1L69.06,41.1z"/>
			<path class="st1" d="M18.05,39.17c-0.66,0-1.32-0.04-1.97-0.11c-2.95-0.32-5.8-1.42-8.23-3.19c-1.28-0.93-2.33-1.9-3.21-2.96
				l-0.68-0.79l-0.64-0.9c-0.45-0.6-0.83-1.29-1.13-1.84c-2.71-4.91-2.94-11.21-0.58-16.44c1.1-2.41,2.83-4.69,5-6.57
				c2.2-1.88,4.68-3.21,7.19-3.84c0.05-0.01,0.1-0.02,0.14-0.02c0.25,0,0.49,0.17,0.56,0.42c0.09,0.3-0.08,0.62-0.38,0.72
				c-2.27,0.74-4.48,2.11-6.38,3.96c-1.88,1.86-3.26,3.93-4.11,6.17c-1.73,4.64-1.22,10,1.34,13.98c0.34,0.54,0.65,1.02,1.02,1.45
				l0.59,0.74l0.61,0.62c0.75,0.8,1.66,1.54,2.74,2.22c1.98,1.24,4.22,1.95,6.48,2.04c0.22,0.01,0.43,0.02,0.64,0.02
				c3.38,0,6.87-1.34,9.82-3.76c0.74-0.7,1.41-1.4,2.01-2.12c2.57-2.94,5.28-5.88,8.08-8.75c-2.58-3.14-5.11-6.26-7.59-9.33L28,9.16
				c-0.33-0.41-0.63-0.78-0.97-1.15C26.2,7.1,25.34,6.33,24.46,5.7c-1.95-1.42-4.22-2.32-6.55-2.59c-0.29-0.03-0.51-0.28-0.51-0.58
				s0.22-0.54,0.51-0.58c0.57-0.07,1.16-0.1,1.74-0.1c2.08,0,4.23,0.44,6.23,1.26c1.21,0.49,2.44,1.15,3.65,1.97
				c0.52,0.34,1.05,0.75,1.52,1.12l11.27,8.71c3.53-3.4,7.06-6.61,10.51-9.54c2.44-2.12,5.23-3.69,8.06-4.54
				C62.78,0.28,64.62,0,66.39,0c1.22,0,2.41,0.14,3.52,0.41c0.27,0.06,0.45,0.31,0.44,0.58c-0.01,0.27-0.2,0.51-0.47,0.56
				c-5.11,1-9.64,3.7-13.11,7.8c-3.59,4.1-7.47,8.22-11.54,12.24c-4.04,3.99-8.21,7.81-12.39,11.36c-0.88,0.78-1.84,1.5-2.84,2.14
				c-1.65,1.2-3.38,2.15-5.12,2.8C22.65,38.74,20.35,39.17,18.05,39.17L18.05,39.17z"/>
		</g>
	</g>
	<g>
		<g>
			<g>
				<path class="st0" d="M105.18,33.74h-2.48v-1.71h6.99v1.71h-2.48v7.29h-2.04V33.74z"/>
				<path class="st0" d="M111.21,31.35h2.03v2.36l-0.09,1.24c0.51-0.47,1.18-0.95,2.12-0.95c1.49,0,2.12,1.05,2.12,2.76v4.25h-2.03
					v-3.99c0-0.99-0.27-1.29-0.85-1.29c-0.51,0-0.82,0.24-1.27,0.67v4.62h-2.03V31.35z"/>
				<path class="st0" d="M118.7,37.61c0-2.22,1.59-3.59,3.23-3.59c1.95,0,2.92,1.42,2.92,3.29c0,0.37-0.04,0.73-0.08,0.9h-4.1
					c0.18,0.99,0.86,1.45,1.78,1.45c0.52,0,0.98-0.16,1.48-0.45l0.67,1.22c-0.7,0.49-1.62,0.77-2.43,0.77
					C120.22,41.2,118.7,39.87,118.7,37.61z M123.12,36.86c0-0.75-0.33-1.3-1.14-1.3c-0.64,0-1.2,0.43-1.33,1.3H123.12z"/>
				<path class="st0" d="M128.48,36.58c0-2.99,1.97-4.72,4.25-4.72c1.16,0,2.1,0.55,2.71,1.17l-1.07,1.31
					c-0.45-0.42-0.94-0.72-1.59-0.72c-1.23,0-2.21,1.09-2.21,2.89c0,1.85,0.86,2.93,2.18,2.93c0.74,0,1.32-0.36,1.76-0.84l1.07,1.28
					c-0.75,0.87-1.74,1.32-2.91,1.32C130.38,41.2,128.48,39.61,128.48,36.58z"/>
				<path class="st0" d="M136.45,39.13c0-1.44,1.15-2.22,3.86-2.51c-0.04-0.6-0.34-0.99-1.08-0.99c-0.58,0-1.15,0.24-1.81,0.62
					l-0.72-1.33c0.87-0.53,1.85-0.9,2.93-0.9c1.75,0,2.72,1,2.72,3.1v3.92h-1.66l-0.15-0.7h-0.05c-0.58,0.51-1.22,0.87-1.99,0.87
					C137.25,41.2,136.45,40.28,136.45,39.13z M140.31,39.04v-1.2c-1.44,0.2-1.91,0.61-1.91,1.13c0,0.44,0.3,0.66,0.79,0.66
					C139.64,39.62,139.95,39.4,140.31,39.04z"/>
				<path class="st0" d="M144.05,34.18h1.66l0.15,0.88h0.05c0.56-0.56,1.18-1.04,2.08-1.04c0.96,0,1.54,0.42,1.89,1.15
					c0.6-0.63,1.25-1.15,2.15-1.15c1.48,0,2.14,1.05,2.14,2.76v4.25h-2.03v-3.99c0-0.99-0.27-1.29-0.85-1.29
					c-0.34,0-0.73,0.21-1.17,0.67v4.62h-2.03v-3.99c0-0.99-0.27-1.29-0.85-1.29c-0.34,0-0.73,0.21-1.17,0.67v4.62h-2.03V34.18z"/>
				<path class="st0" d="M155.89,34.18h1.66l0.15,0.67h0.05c0.54-0.48,1.24-0.84,1.95-0.84c1.66,0,2.67,1.37,2.67,3.48
					c0,2.35-1.4,3.7-2.88,3.7c-0.59,0-1.14-0.26-1.63-0.71l0.07,1.08v2.01h-2.03V34.18z M160.29,37.52c0-1.23-0.38-1.84-1.19-1.84
					c-0.42,0-0.78,0.19-1.18,0.61v2.81c0.37,0.32,0.75,0.43,1.09,0.43C159.72,39.53,160.29,38.94,160.29,37.52z"/>
				<path class="st0" d="M163.33,39.13c0-1.44,1.15-2.22,3.86-2.51c-0.04-0.6-0.34-0.99-1.08-0.99c-0.58,0-1.15,0.24-1.81,0.62
					l-0.72-1.33c0.87-0.53,1.85-0.9,2.93-0.9c1.75,0,2.72,1,2.72,3.1v3.92h-1.66l-0.15-0.7h-0.05c-0.58,0.51-1.22,0.87-1.99,0.87
					C164.13,41.2,163.33,40.28,163.33,39.13z M167.19,39.04v-1.2c-1.44,0.2-1.91,0.61-1.91,1.13c0,0.44,0.3,0.66,0.79,0.66
					C166.52,39.62,166.83,39.4,167.19,39.04z"/>
				<path class="st0" d="M170.77,32.12c0-0.62,0.49-1.06,1.18-1.06c0.68,0,1.17,0.44,1.17,1.06c0,0.62-0.49,1.06-1.17,1.06
					C171.27,33.18,170.77,32.73,170.77,32.12z M170.93,34.18h2.03v6.85h-2.03V34.18z"/>
				<path class="st0" d="M174.33,42.2c0-0.57,0.34-1.03,0.97-1.38v-0.05c-0.35-0.24-0.63-0.6-0.63-1.16c0-0.49,0.33-0.98,0.76-1.28
					v-0.06c-0.48-0.34-0.92-0.98-0.92-1.78c0-1.64,1.36-2.48,2.83-2.48c0.38,0,0.75,0.06,1.06,0.17h2.5v1.48h-1.1
					c0.13,0.2,0.23,0.54,0.23,0.9c0,1.58-1.2,2.3-2.7,2.3c-0.25,0-0.53-0.04-0.84-0.13c-0.17,0.15-0.24,0.27-0.24,0.51
					c0,0.34,0.28,0.5,1.03,0.5h1.11c1.68,0,2.62,0.52,2.62,1.74c0,1.42-1.48,2.46-3.83,2.46C175.6,43.94,174.33,43.42,174.33,42.2z
					 M179.08,41.83c0-0.43-0.37-0.53-1.04-0.53h-0.71c-0.47,0-0.74-0.03-0.96-0.09c-0.25,0.21-0.37,0.42-0.37,0.67
					c0,0.52,0.6,0.79,1.52,0.79C178.43,42.67,179.08,42.3,179.08,41.83z M178.29,36.49c0-0.73-0.4-1.11-0.94-1.11
					s-0.94,0.38-0.94,1.11c0,0.75,0.4,1.14,0.94,1.14S178.29,37.24,178.29,36.49z"/>
				<path class="st0" d="M182.4,34.18h1.66l0.15,0.87h0.05c0.58-0.55,1.27-1.03,2.2-1.03c1.49,0,2.12,1.05,2.12,2.76v4.25h-2.03
					v-3.99c0-0.99-0.27-1.29-0.85-1.29c-0.51,0-0.82,0.24-1.27,0.67v4.62h-2.03V34.18z"/>
				<path class="st0" d="M192.51,34.26l1.03-0.08h3.15v1.59h-4.17V34.26z M193.42,33.82c0-1.45,0.67-2.63,2.52-2.63
					c0.57,0,1.06,0.13,1.37,0.24l-0.37,1.5c-0.23-0.09-0.48-0.15-0.71-0.15c-0.5,0-0.78,0.27-0.78,0.98v7.26h-2.03V33.82z"/>
				<path class="st0" d="M197.24,37.61c0-2.28,1.6-3.59,3.34-3.59c1.73,0,3.34,1.32,3.34,3.59c0,2.27-1.6,3.59-3.34,3.59
					C198.84,41.2,197.24,39.88,197.24,37.61z M201.84,37.61c0-1.19-0.42-1.96-1.26-1.96c-0.84,0-1.26,0.77-1.26,1.96
					s0.42,1.95,1.26,1.95C201.42,39.56,201.84,38.79,201.84,37.61z"/>
				<path class="st0" d="M205.03,34.18h1.66l0.15,1.2h0.05c0.5-0.92,1.25-1.36,1.95-1.36c0.39,0,0.62,0.05,0.82,0.14l-0.34,1.75
					c-0.24-0.06-0.45-0.11-0.74-0.11c-0.52,0-1.14,0.33-1.51,1.27v3.97h-2.03V34.18z"/>
				<path class="st0" d="M213.57,38.54v-2.77h-0.94v-1.51l1.05-0.08l0.24-1.82h1.68v1.82h1.64v1.59h-1.64v2.74
					c0,0.78,0.35,1.09,0.89,1.09c0.23,0,0.47-0.07,0.65-0.13l0.32,1.47c-0.36,0.12-0.86,0.25-1.52,0.25
					C214.24,41.2,213.57,40.13,213.57,38.54z"/>
				<path class="st0" d="M218.58,31.35h2.03v2.36l-0.09,1.24c0.51-0.47,1.18-0.95,2.12-0.95c1.49,0,2.12,1.05,2.12,2.76v4.25h-2.03
					v-3.99c0-0.99-0.27-1.29-0.85-1.29c-0.51,0-0.82,0.24-1.27,0.67v4.62h-2.03V31.35z"/>
				<path class="st0" d="M225.79,37.61c0-2.22,1.59-3.59,3.23-3.59c1.95,0,2.92,1.42,2.92,3.29c0,0.37-0.04,0.73-0.08,0.9h-4.1
					c0.18,0.99,0.86,1.45,1.78,1.45c0.52,0,0.98-0.16,1.48-0.45l0.67,1.22c-0.7,0.49-1.62,0.77-2.43,0.77
					C227.31,41.2,225.79,39.87,225.79,37.61z M230.21,36.86c0-0.75-0.33-1.3-1.14-1.3c-0.64,0-1.2,0.43-1.33,1.3H230.21z"/>
				<path class="st0" d="M235.94,36.86v-4.83h2.04v5.04c0,1.76,0.56,2.37,1.56,2.37c1.01,0,1.59-0.61,1.59-2.37v-5.04h1.96v4.83
					c0,3.02-1.23,4.34-3.56,4.34C237.21,41.2,235.94,39.88,235.94,36.86z"/>
				<path class="st0" d="M244.73,34.18h1.66l0.15,0.87h0.05c0.58-0.55,1.27-1.03,2.2-1.03c1.49,0,2.12,1.05,2.12,2.76v4.25h-2.03
					v-3.99c0-0.99-0.27-1.29-0.85-1.29c-0.51,0-0.82,0.24-1.27,0.67v4.62h-2.03V34.18z"/>
				<path class="st0" d="M252.47,32.12c0-0.62,0.49-1.06,1.18-1.06c0.68,0,1.17,0.44,1.17,1.06c0,0.62-0.49,1.06-1.17,1.06
					C252.97,33.18,252.47,32.73,252.47,32.12z M252.63,34.18h2.03v6.85h-2.03V34.18z"/>
				<path class="st0" d="M256,34.18h2.04l0.89,3.23c0.18,0.68,0.36,1.39,0.53,2.11h0.06c0.17-0.72,0.36-1.42,0.53-2.11l0.89-3.23
					h1.94l-2.24,6.85h-2.34L256,34.18z"/>
				<path class="st0" d="M263.43,37.61c0-2.22,1.59-3.59,3.23-3.59c1.95,0,2.92,1.42,2.92,3.29c0,0.37-0.04,0.73-0.08,0.9h-4.1
					c0.18,0.99,0.86,1.45,1.78,1.45c0.52,0,0.98-0.16,1.48-0.45l0.67,1.22c-0.7,0.49-1.62,0.77-2.43,0.77
					C264.94,41.2,263.43,39.87,263.43,37.61z M267.85,36.86c0-0.75-0.33-1.3-1.14-1.3c-0.64,0-1.2,0.43-1.33,1.3H267.85z"/>
				<path class="st0" d="M270.98,34.18h1.66l0.15,1.2h0.05c0.5-0.92,1.25-1.36,1.95-1.36c0.39,0,0.62,0.05,0.82,0.14l-0.34,1.75
					c-0.24-0.06-0.45-0.11-0.74-0.11c-0.52,0-1.14,0.33-1.51,1.27v3.97h-2.03V34.18z"/>
				<path class="st0" d="M275.76,40.24l0.91-1.26c0.62,0.47,1.19,0.72,1.77,0.72c0.6,0,0.87-0.23,0.87-0.59
					c0-0.45-0.68-0.66-1.38-0.93c-0.84-0.33-1.81-0.88-1.81-2.01c0-1.28,1.04-2.14,2.62-2.14c1.05,0,1.83,0.42,2.42,0.87l-0.91,1.22
					c-0.49-0.35-0.97-0.58-1.44-0.58c-0.52,0-0.78,0.21-0.78,0.55c0,0.44,0.64,0.6,1.35,0.86c0.87,0.32,1.85,0.81,1.85,2.06
					c0,1.24-0.98,2.21-2.81,2.21C277.49,41.2,276.46,40.8,275.76,40.24z"/>
				<path class="st0" d="M282.33,32.12c0-0.62,0.49-1.06,1.18-1.06c0.68,0,1.17,0.44,1.17,1.06c0,0.62-0.49,1.06-1.17,1.06
					C282.82,33.18,282.33,32.73,282.33,32.12z M282.48,34.18h2.03v6.85h-2.03V34.18z"/>
				<path class="st0" d="M286.58,38.54v-2.77h-0.94v-1.51l1.05-0.08l0.24-1.82h1.68v1.82h1.64v1.59h-1.64v2.74
					c0,0.78,0.35,1.09,0.89,1.09c0.23,0,0.47-0.07,0.65-0.13l0.32,1.47c-0.36,0.12-0.86,0.25-1.52,0.25
					C287.25,41.2,286.58,40.13,286.58,38.54z"/>
				<path class="st0" d="M291.66,43.57l0.36-1.55c0.13,0.03,0.31,0.09,0.46,0.09c0.67,0,1.02-0.37,1.2-0.9l0.1-0.36l-2.64-6.68h2.04
					l0.98,2.95c0.2,0.62,0.36,1.27,0.54,1.94h0.06c0.15-0.65,0.3-1.3,0.48-1.94l0.83-2.95H298l-2.38,6.93
					c-0.65,1.72-1.38,2.6-2.99,2.6C292.21,43.71,291.93,43.65,291.66,43.57z"/>
				<path class="st0" d="M301.43,37.61c0-2.28,1.6-3.59,3.34-3.59c1.73,0,3.34,1.32,3.34,3.59c0,2.27-1.6,3.59-3.34,3.59
					C303.03,41.2,301.43,39.88,301.43,37.61z M306.02,37.61c0-1.19-0.42-1.96-1.26-1.96c-0.84,0-1.26,0.77-1.26,1.96
					s0.42,1.95,1.26,1.95C305.6,39.56,306.02,38.79,306.02,37.61z"/>
				<path class="st0" d="M308.86,34.26l1.03-0.08h3.15v1.59h-4.17V34.26z M309.77,33.82c0-1.45,0.67-2.63,2.52-2.63
					c0.57,0,1.06,0.13,1.37,0.24l-0.37,1.5c-0.23-0.09-0.48-0.15-0.71-0.15c-0.5,0-0.78,0.27-0.78,0.98v7.26h-2.03V33.82z"/>
				<path class="st0" d="M318.6,37.82l-2.71-5.79h2.18l0.8,2.07c0.24,0.67,0.48,1.3,0.73,2h0.06c0.26-0.7,0.51-1.32,0.76-2l0.8-2.07
					h2.13l-2.71,5.79v3.21h-2.04V37.82z"/>
				<path class="st0" d="M322.98,37.61c0-2.28,1.6-3.59,3.34-3.59c1.73,0,3.34,1.32,3.34,3.59c0,2.27-1.6,3.59-3.34,3.59
					C324.59,41.2,322.98,39.88,322.98,37.61z M327.58,37.61c0-1.19-0.42-1.96-1.26-1.96c-0.84,0-1.26,0.77-1.26,1.96
					s0.42,1.95,1.26,1.95C327.16,39.56,327.58,38.79,327.58,37.61z"/>
				<path class="st0" d="M330.77,34.18h1.66l0.15,1.2h0.05c0.5-0.92,1.25-1.36,1.95-1.36c0.39,0,0.62,0.05,0.82,0.14l-0.34,1.75
					c-0.24-0.06-0.45-0.11-0.74-0.11c-0.52,0-1.14,0.33-1.51,1.27v3.97h-2.03V34.18z"/>
				<path class="st0" d="M336.27,31.35h1.98v5.54h0.05l2.17-2.72h2.2l-2.4,2.82l2.58,4.03h-2.2l-1.54-2.67l-0.87,0.99v1.69h-1.98
					V31.35z"/>
			</g>
		</g>
	</g>
	<path class="st0" d="M187.48,13.96V4.02h4.19v10.37c0,3.63,1.14,4.88,3.22,4.88c2.08,0,3.28-1.25,3.28-4.88V4.02h4.04v9.94
		c0,6.22-2.53,8.93-7.32,8.93S187.48,20.19,187.48,13.96z"/>
	<path class="st0" d="M208.78,4.02h4.29l4.83,9.21l1.83,4.07h0.11c-0.2-1.96-0.54-4.56-0.54-6.74V4.02h3.99v18.53h-4.29l-4.83-9.24
		l-1.83-4.05h-0.11c0.2,2.04,0.54,4.53,0.54,6.71v6.58h-3.99V4.02z"/>
	<path class="st0" d="M229.99,4.02h4.19v15.01h7.31v3.51h-11.5V4.02z"/>
	<path class="st0" d="M247.8,4.02h4.19v18.53h-4.19V4.02z"/>
	<path class="st0" d="M257.88,4.02h4.57l3.01,8.23c0.37,1.09,0.7,2.28,1.07,3.42h0.11c0.37-1.14,0.69-2.33,1.06-3.42l2.91-8.23h4.57
		v18.53h-3.81v-6.8c0-1.81,0.34-4.5,0.54-6.29h-0.11l-1.52,4.38l-2.62,7.1h-2.33l-2.62-7.1l-1.48-4.38h-0.11
		c0.2,1.79,0.54,4.49,0.54,6.29v6.8h-3.76V4.02z"/>
	<path class="st0" d="M280.98,4.02h4.19v18.53h-4.19V4.02z"/>
	<path class="st0" d="M295.95,7.54h-5.1V4.02h14.39v3.51h-5.1v15.01h-4.19V7.54z"/>
	<path class="st0" d="M310.85,4.02h11.61v3.51h-7.42v3.72h6.32v3.51h-6.32v4.27h7.7v3.51h-11.89V4.02z"/>
	<path class="st0" d="M328.73,4.02h5.24c5.66,0,9.3,2.82,9.3,9.18s-3.65,9.34-9.07,9.34h-5.47V4.02z M333.71,19.18
		c3.14,0,5.27-1.54,5.27-5.97c0-4.43-2.12-5.81-5.27-5.81h-0.79v11.78H333.71z"/>
</g>
</svg>
