<?xml version="1.0" standalone="no"?>
<!DOCTYPE svg PUBLIC "-//W3C//DTD SVG 20010904//EN"
 "http://www.w3.org/TR/2001/REC-SVG-20010904/DTD/svg10.dtd">
<svg version="1.0" xmlns="http://www.w3.org/2000/svg"
 width="512.000000pt" height="512.000000pt" viewBox="0 0 512.000000 512.000000"
 preserveAspectRatio="xMidYMid meet">
<metadata>
Created by potrace 1.11, written by Peter Selinger 2001-2013
</metadata>
<g transform="translate(0.000000,512.000000) scale(0.100000,-0.100000)"
fill="#000000" stroke="none">
<path d="M423 4208 c3 -773 6 -935 21 -1058 64 -552 189 -986 410 -1429 193
-385 409 -684 721 -997 295 -296 572 -507 880 -670 l102 -54 44 18 c131 57
416 242 604 393 750 602 1237 1413 1419 2364 68 359 76 511 76 1491 l0 854
-2141 0 -2140 0 4 -912z m4107 -35 c0 -760 -4 -890 -35 -1134 -19 -151 -55
-341 -65 -337 -3 2 -420 448 -925 993 -504 545 -922 995 -929 1002 -8 9 -233
-230 -946 -1007 -884 -964 -935 -1018 -943 -992 -14 50 -56 306 -73 447 -15
119 -18 263 -21 973 l-4 832 1970 0 1971 0 0 -777z m-1512 -408 c9 -3 12 -65
12 -262 l0 -257 -47 -48 -47 -48 -72 0 -71 0 -33 64 c-29 59 -32 69 -24 113 7
39 13 49 32 51 15 2 22 -2 22 -14 0 -14 3 -14 16 -4 9 8 14 25 12 44 -2 25 -9
33 -38 42 -28 9 -36 18 -41 44 -4 18 -14 40 -24 49 -15 15 -17 15 -28 -4 -6
-11 -16 -33 -22 -50 -6 -19 -19 -31 -35 -35 -34 -8 -59 -52 -41 -74 10 -12 16
-13 32 -3 16 10 21 9 29 -3 15 -23 12 -112 -5 -144 -8 -15 -15 -35 -15 -42 0
-11 -22 -14 -103 -14 l-104 0 -31 44 c-25 35 -32 54 -32 91 0 25 5 55 10 66
13 23 40 25 40 3 0 -14 3 -14 16 -4 9 8 14 25 12 44 -2 25 -9 33 -38 42 -28 9
-36 18 -41 44 -4 18 -14 39 -23 48 -14 15 -17 14 -31 -3 -8 -11 -15 -32 -15
-47 0 -22 -6 -29 -27 -34 -40 -10 -53 -23 -53 -54 0 -36 10 -43 31 -25 15 15
18 13 28 -16 15 -43 13 -99 -4 -129 -8 -14 -14 -35 -15 -47 0 -22 -4 -23 -75
-23 l-75 0 0 260 c0 278 6 322 49 338 21 7 847 5 869 -3z m-1080 -1269 l2
-270 -47 -42 c-47 -42 -50 -43 -118 -44 l-70 0 -29 51 c-24 43 -28 59 -24 105
5 61 22 89 38 64 9 -13 11 -13 20 0 25 38 -5 90 -51 90 -11 0 -19 11 -23 33
-3 19 -13 42 -20 53 -14 18 -15 18 -25 -9 -6 -16 -11 -39 -11 -51 0 -18 -7
-25 -30 -30 -37 -7 -56 -46 -39 -78 8 -15 14 -17 22 -9 16 16 23 14 35 -14 20
-43 14 -104 -13 -152 l-26 -43 -98 0 -99 0 -26 44 c-19 33 -26 58 -26 98 0 62
22 104 40 78 9 -13 11 -13 20 0 22 34 2 74 -45 86 -16 4 -25 15 -29 39 -4 18
-14 39 -22 46 -14 11 -18 10 -31 -6 -8 -11 -17 -32 -20 -47 -4 -20 -13 -29
-34 -33 -34 -8 -53 -37 -45 -71 6 -23 26 -34 26 -14 0 17 28 11 34 -7 19 -67
18 -93 -10 -153 l-29 -60 -77 0 -78 0 0 270 c0 234 2 274 16 296 36 54 34 53
504 51 l435 -2 3 -269z m2156 222 c3 -29 8 -151 12 -271 l7 -218 -44 -45 -43
-44 -78 0 c-48 0 -78 4 -78 11 0 5 -11 27 -25 47 -38 55 -33 172 6 172 11 0
19 -4 19 -10 0 -20 21 -9 30 16 14 35 -2 61 -42 72 -26 6 -34 15 -39 40 -4 18
-12 39 -19 47 -12 14 -15 14 -28 2 -8 -8 -17 -29 -21 -47 -5 -25 -14 -35 -40
-44 -38 -12 -53 -40 -40 -73 8 -23 29 -32 29 -13 0 21 31 9 40 -16 17 -43 12
-87 -17 -146 l-28 -57 -102 -1 -101 0 -29 48 c-22 37 -28 59 -28 104 1 62 18
95 35 68 9 -13 11 -13 20 0 25 39 0 90 -46 90 -18 0 -24 5 -24 20 0 25 -27 80
-39 80 -9 0 -28 -42 -33 -74 -2 -11 -17 -23 -37 -30 -39 -13 -53 -40 -39 -76
6 -15 12 -20 15 -12 10 27 49 12 71 -27 29 -50 28 -84 -3 -138 l-26 -43 -75 0
-75 0 3 289 c3 268 4 290 22 310 19 21 25 21 451 21 l433 0 6 -52z m-948 -785
c317 -346 590 -642 606 -659 l29 -31 -72 -89 c-296 -371 -681 -705 -1059 -919
l-85 -48 -80 42 c-240 129 -526 350 -780 605 -180 180 -349 377 -343 401 3 12
1195 1325 1203 1325 2 0 263 -282 581 -627z"/>
<path d="M2320 1810 c-154 -55 -309 -219 -310 -327 0 -42 30 -65 131 -98 49
-17 79 -32 79 -41 0 -19 -16 -18 -85 6 -59 20 -130 26 -152 12 -25 -16 -44
-84 -45 -162 0 -134 53 -270 142 -359 81 -81 121 -71 210 51 35 48 55 67 62
60 7 -7 -8 -36 -46 -92 -81 -118 -75 -154 37 -206 154 -71 384 -52 485 41 31
28 34 35 28 66 -3 19 -29 65 -56 103 -28 38 -50 73 -50 77 0 26 32 2 74 -57
77 -103 115 -118 180 -69 76 58 146 193 166 320 13 80 -3 188 -31 216 -26 26
-80 24 -166 -5 -39 -13 -74 -22 -77 -18 -18 17 2 33 73 57 103 34 131 56 131
101 0 91 -122 234 -254 299 -61 30 -91 39 -148 43 -102 6 -112 -6 -116 -139
-4 -97 -4 -99 -28 -99 -24 0 -24 1 -24 94 0 79 -3 97 -21 120 -18 23 -28 26
-77 26 -31 -1 -82 -10 -112 -20z m150 -85 c18 -19 25 -40 28 -85 3 -45 1 -60
-9 -60 -26 0 -98 -42 -104 -60 -7 -22 6 -49 48 -103 16 -21 27 -40 24 -43 -3
-3 -22 17 -42 45 -61 85 -84 87 -147 11 l-33 -40 -48 16 c-26 9 -56 27 -67 41
-34 44 -26 66 45 129 36 32 65 66 65 76 0 13 7 18 26 18 14 0 55 18 91 40 37
22 74 40 83 40 9 0 27 -11 40 -25z m303 -20 c29 -19 64 -35 78 -35 19 0 28 -6
33 -22 3 -13 32 -47 66 -76 47 -42 60 -59 60 -82 0 -33 -41 -72 -95 -90 -35
-12 -36 -11 -83 39 -59 63 -78 60 -134 -20 -55 -77 -62 -68 -9 12 22 34 41 67
41 74 0 21 -26 42 -75 60 -43 17 -45 20 -45 57 0 47 22 102 47 117 25 15 57 6
116 -34z m-115 -211 c18 -5 15 -42 -7 -73 -19 -26 -24 -27 -88 -26 -79 1 -87
5 -109 46 -20 40 -6 57 49 61 43 4 132 -1 155 -8z m-253 -109 l27 -35 -21 -43
c-12 -24 -21 -55 -21 -69 0 -18 -7 -27 -22 -32 -39 -10 -78 -7 -84 8 -6 16 10
84 33 141 32 77 48 83 88 30z m385 -17 c26 -59 27 -65 36 -125 7 -43 6 -43
-24 -43 -53 0 -82 16 -82 46 0 14 -10 43 -21 64 l-22 38 28 36 c38 50 58 47
85 -16z m-611 -69 c27 -10 31 -15 31 -49 0 -51 14 -87 38 -94 10 -4 48 3 83
14 73 23 76 23 64 11 -6 -5 -35 -16 -66 -25 -31 -9 -62 -22 -69 -30 -16 -21
-4 -70 27 -107 23 -27 24 -33 13 -54 -19 -36 -72 -83 -102 -90 -36 -9 -65 23
-97 105 -12 33 -31 66 -41 73 -14 8 -16 15 -9 29 7 12 5 37 -6 77 -19 75 -19
115 1 135 18 19 86 21 133 5z m881 1 c27 -14 31 -50 14 -116 -8 -32 -14 -73
-12 -90 1 -20 -5 -38 -20 -54 -12 -13 -22 -29 -22 -34 0 -29 -51 -117 -73
-127 -32 -15 -74 7 -116 60 l-32 40 31 42 c16 23 30 55 30 70 0 31 -22 47 -97
69 -24 7 -43 17 -43 21 0 4 25 -1 57 -12 31 -10 64 -19 74 -19 32 0 49 28 49
84 0 51 1 54 33 64 42 13 104 15 127 2z m-626 -179 c16 -16 41 -35 57 -41 26
-11 29 -17 29 -57 0 -56 -18 -64 -77 -32 -51 28 -123 90 -123 108 0 12 57 51
76 51 5 0 23 -13 38 -29z m322 13 c19 -9 34 -24 34 -33 0 -32 -131 -131 -173
-131 -18 0 -27 21 -27 66 0 27 5 35 24 40 13 3 39 21 57 40 38 39 39 39 85 18z
m-181 -218 c7 -15 16 -17 59 -13 28 2 59 8 68 12 23 9 78 -76 78 -120 0 -49
-28 -67 -112 -72 -40 -3 -82 -11 -93 -18 -17 -10 -24 -10 -40 1 -10 8 -42 14
-72 14 -71 0 -120 21 -129 55 -7 28 14 84 47 124 17 20 22 22 50 12 51 -17 97
-14 109 8 5 11 11 48 11 83 l2 63 7 -65 c4 -36 11 -73 15 -84z"/>
</g>
</svg>
